<?xml version="1.0" encoding="utf-8"?>
<!-- Generator: Adobe Illustrator 22.1.0, SVG Export Plug-In . SVG Version: 6.00 Build 0)  -->
<svg version="1.1" id="Layer_1" xmlns="http://www.w3.org/2000/svg" xmlns:xlink="http://www.w3.org/1999/xlink" x="0px" y="0px"
	 viewBox="0 0 100 100" style="enable-background:new 0 0 100 100;" xml:space="preserve">
<style type="text/css">
	.st0{display:none;fill:#05A9F3;}
	.st1{fill:#FAFAFA;}
	.st2{fill:#FFDD2D;}
	.st3{fill:#222425;}
</style>
<path class="st0" d="M60.5,53.7c-2.5-0.1-5-0.1-7.4-0.2c-2-0.1-4-0.1-6.1-0.2c0.1,0.2,0.2,0.3,0.3,0.5c3.6-0.1,7.2-0.1,10.8-0.1
	C58.9,53.7,59.7,53.7,60.5,53.7z"/>
<g>
	<path class="st1" d="M29.8,67.7H13.1c-1.2,0-2.1-0.9-2.1-2.1s0.9-2.1,2.1-2.1h16.7c1.2,0,2.1,0.9,2.1,2.1
		C31.8,66.8,30.9,67.7,29.8,67.7z"/>
	<path class="st1" d="M42.3,76.1H13.1c-1.2,0-2.1-0.9-2.1-2.1s0.9-2.1,2.1-2.1h29.2c1.2,0,2.1,0.9,2.1,2.1
		C44.3,75.2,43.4,76.1,42.3,76.1z"/>
</g>
<rect x="11" y="39.5" class="st2" width="13.5" height="42.3"/>
<rect x="44.4" y="39.5" class="st2" width="11.8" height="43.5"/>
<rect x="75.3" y="39.5" class="st2" width="12.8" height="43.5"/>
<path class="st2" d="M50.3,29.3L50.3,29.3c-3.3,0-5.9-2.7-5.9-5.9v-1.9c0-3.3,2.7-5.9,5.9-5.9h0c3.3,0,5.9,2.7,5.9,5.9v1.9
	C56.3,26.6,53.6,29.3,50.3,29.3z"/>
<g>
	<g>
		<g>
			<path class="st3" d="M50,13.6c-5,0-9.1,4.1-9.1,9.1s4.1,9.1,9.1,9.1s9.1-4.1,9.1-9.1S55,13.6,50,13.6z M50,27.3
				c-2.5,0-4.5-2-4.5-4.5s2-4.5,4.5-4.5c2.5,0,4.5,2,4.5,4.5S52.5,27.3,50,27.3z"/>
			<path class="st3" d="M97.7,40.9c1.3,0,2.3-1,2.3-2.3v-9.1c0-0.8-0.4-1.5-1.1-2L54.4,1.2c0,0,0,0-0.1,0c-2.8-1.5-5.9-1.6-8.8,0
				L1.1,27.6C0.4,28,0,28.8,0,29.6v9.1c0,1.3,1,2.3,2.3,2.3h6.8v40.9c-5,0-9.1,4.1-9.1,9.1v6.8C0,99,1,100,2.3,100h95.5
				c1.3,0,2.3-1,2.3-2.3v-6.8c0-5-4.1-9.1-9.1-9.1V40.9H97.7z M95.5,90.9v4.5H4.5v-4.5c0-2.5,2-4.5,4.5-4.5h2.3h77.3h2.3
				C93.4,86.4,95.5,88.4,95.5,90.9z M13.6,81.8V40.9h9.1v40.9H13.6z M27.3,81.8V40.9h13.6v40.9H27.3z M45.5,81.8V40.9h9.1v40.9H45.5
				z M59.1,81.8V40.9h13.6v40.9H59.1z M77.3,81.8V40.9h9.1v40.9H77.3z M4.5,36.4v-5.5L47.8,5.1c1.4-0.8,2.9-0.8,4.3,0l43.3,25.7v5.5
				H4.5z"/>
		</g>
	</g>
</g>
</svg>
