<?xml version="1.0" encoding="utf-8"?>
<!-- Generator: Adobe Illustrator 22.1.0, SVG Export Plug-In . SVG Version: 6.00 Build 0)  -->
<svg version="1.1" id="Слой_1" xmlns="http://www.w3.org/2000/svg" xmlns:xlink="http://www.w3.org/1999/xlink" x="0px" y="0px"
	 viewBox="0 0 478 350" style="enable-background:new 0 0 478 350;" xml:space="preserve">
<style type="text/css">
	.st0{fill:url(#SVGID_1_);}
	.st1{fill:#FFFFFF;}
	.st2{opacity:0.5;fill:url(#SVGID_2_);fill-opacity:0.3;enable-background:new    ;}
	.st3{opacity:0.5;fill:url(#SVGID_3_);fill-opacity:0.688;enable-background:new    ;}
	.st4{fill:#BDDBFE;}
	.st5{fill:#CFE7FF;}
	.st6{fill:#EAF4FF;}
	.st7{fill:#10D54C;}
	.st8{fill:#F0F9FF;}
	.st9{fill:#F0F9FF;filter:url(#Adobe_OpacityMaskFilter);}
	.st10{mask:url(#mask0_1_);}
	.st11{fill:#BDDBFE;filter:url(#Adobe_OpacityMaskFilter_1_);}
	.st12{mask:url(#mask1_1_);}
	.st13{opacity:0.904;fill:#BDDBFE;enable-background:new    ;}
	.st14{fill:#BDDBFE;filter:url(#Adobe_OpacityMaskFilter_2_);}
	.st15{mask:url(#mask2_1_);}
	.st16{fill:url(#SVGID_4_);}
	.st17{fill:url(#SVGID_5_);}
	.st18{fill:#BDDBFE;filter:url(#Adobe_OpacityMaskFilter_3_);}
	.st19{mask:url(#mask4_1_);}
	.st20{fill:url(#SVGID_6_);}
</style>
<linearGradient id="SVGID_1_" gradientUnits="userSpaceOnUse" x1="348.1643" y1="-68.0261" x2="193.6093" y2="113.0159" gradientTransform="matrix(1 0 0 -1 0 252)">
	<stop  offset="0" style="stop-color:#9AF7B0"/>
	<stop  offset="1" style="stop-color:#5AE274"/>
</linearGradient>
<path class="st0" d="M68.8,207.4l241.9,139.7c4.8,2.8,12.2,3.2,16.5,0.7l148-85.5c4.3-2.5,3.7-6.7-1.2-9.6L232,113
	c-4.8-2.8-12.2-3.2-16.5-0.7l-148,85.5C63.3,200.3,63.8,204.5,68.8,207.4z"/>
<path class="st1" d="M70,208.1l51.1,28.6l50.9,28.9l101.4,57.9l25.3,14.8l12.5,7.3c3.9,2.7,9.2,3,13.8,2.1c1.1-0.2,2.3-0.5,3.4-1.1
	c1.1-0.5,2.1-1.2,3.2-1.8l6.4-3.7l12.7-7.3l25.3-14.5l50.5-29.2l49.4-28.5l-49.1,29.4l-50.3,29.6l-25.3,14.7l-12.6,7.3l-6.4,3.7
	c-1.1,0.5-2.1,1.2-3.2,1.8c-1.2,0.5-2.5,0.9-3.7,1.2c-5,0.9-10.6,0.5-14.7-2.3l-12.7-7.3l-25.3-14.6l-101.2-58.4l-50.7-29.3
	L70,208.1z"/>
<path class="st1" d="M309.1,287l41.8,24.1l-16.6,9.6l-41.6-24.1L309.1,287z"/>
<path class="st1" d="M250.8,253.2l41.8,24.1l-16.6,9.6l-41.8-24.1L250.8,253.2z"/>
<path class="st1" d="M192.4,219.6l41.8,24.1l-16.6,9.6l-41.8-24.1L192.4,219.6z"/>
<path class="st1" d="M133.9,185.9l41.8,24.1l-16.6,9.6l-41.8-24.1L133.9,185.9z"/>
<path class="st1" d="M215.1,158.9c0.2-0.6,0.5-1.2,0.9-1.7c0.5-0.6,1.1-1.1,1.9-1.6c0.8-0.5,1.7-0.8,2.6-1.1c0.9-0.3,2-0.5,3-0.6
	c1.4-0.2,2.3-0.9,2.2-1.7c-0.2-0.8-1.6-1.4-3-1.2c-1.6,0.2-3.1,0.5-4.5,0.8c-1.4,0.5-2.8,0.9-4,1.7c-1.2,0.6-2.2,1.4-2.8,2.3
	c-0.8,0.8-1.2,1.7-1.4,2.6c-0.2,0.8,0.8,1.6,2.2,1.7C213.7,160.1,214.9,159.7,215.1,158.9z"/>
<path class="st1" d="M205.6,157.2c0.8-2,2.6-4,5.4-5.6c2.8-1.6,6.2-2.6,9.8-3.1c1.4-0.2,2.2-0.9,1.9-1.7c-0.3-0.8-1.7-1.2-3.1-1.1
	c-4.5,0.6-8.7,1.9-12.3,3.9c-3.4,2-5.8,4.5-6.8,7c-0.3,0.8,0.5,1.6,1.9,1.7C203.9,158.4,205.1,158,205.6,157.2z"/>
<path class="st1" d="M195.5,155.3c1.4-3,4-5.8,8.1-8.1c4-2.3,8.9-3.9,14-4.7c1.4-0.2,2.2-1.1,1.9-1.9s-1.7-1.2-3.1-1.1
	c-6.1,0.9-11.7,2.8-16.3,5.4c-4.7,2.6-7.8,6.1-9.5,9.5c-0.3,0.8,0.5,1.6,1.9,1.9C193.8,156.7,195.2,156.1,195.5,155.3z"/>
<path class="st1" d="M185.5,153.6c1.9-3.9,5.4-7.6,10.7-10.6c5.3-3.1,11.7-5.1,18.4-6.2c1.4-0.2,2.2-1.1,1.9-1.9
	c-0.3-0.8-1.7-1.2-3.1-1.1c-7.6,1.2-14.8,3.6-20.7,7c-5.9,3.4-10,7.6-12,12c-0.3,0.8,0.5,1.6,1.9,1.9
	C183.6,154.9,185,154.4,185.5,153.6z"/>
<linearGradient id="SVGID_2_" gradientUnits="userSpaceOnUse" x1="326.4856" y1="-6.9036" x2="349.3166" y2="51.7013" gradientTransform="matrix(1 0 0 -1 0 252)">
	<stop  offset="0" style="stop-color:#1C3B6F"/>
	<stop  offset="0.4318" style="stop-color:#1C3B6F;stop-opacity:0.5378"/>
	<stop  offset="1" style="stop-color:#1C3B6F;stop-opacity:0"/>
</linearGradient>
<path class="st2" d="M356.6,160.6l76.8,40.8c1.6,0.9,1.5,3.4-0.1,4.3l-95.8,58.2c-1.5,0.9-3.6,1-4.8,0.3l-76.4-44.1
	c-1.2-0.7-1-2,0.4-2.9L356.6,160.6z"/>
<linearGradient id="SVGID_3_" gradientUnits="userSpaceOnUse" x1="92.0325" y1="-78.4327" x2="114.8645" y2="-19.8287" gradientTransform="matrix(1 0 0 -1 0 252)">
	<stop  offset="0" style="stop-color:#1C3B6F"/>
	<stop  offset="0.4318" style="stop-color:#1C3B6F;stop-opacity:0.5378"/>
	<stop  offset="1" style="stop-color:#1C3B6F;stop-opacity:0"/>
</linearGradient>
<path class="st3" d="M122.6,232.3l76.8,40.8c1.6,0.9,1.5,3.4-0.1,4.3l-95.8,58.2c-1.5,0.9-3.6,1-4.8,0.3l-78.2-42.4
	c-1.2-0.7-1-2,0.4-2.9L122.6,232.3z"/>
<path class="st4" d="M15.4,303c-0.8,10.6,5.3,21.8,18.2,29.6c22.8,13.7,58,12.7,78-2.3c10.1-7.3,14.7-17,13.7-26.3
	c0.8-10.6-5.3-21.8-18.2-29.6c-22.8-13.7-58-12.7-78,2.3C18.9,284,14.4,293.6,15.4,303z"/>
<path class="st5" d="M72,329.5l0,12.2c-1.2,0-2.4,0-3.6,0l0-12.2C69.6,329.5,70.8,329.5,72,329.5z"/>
<path class="st5" d="M62.9,329l0,12.2c-1.2,0-2.4-0.2-3.6-0.5l0-12.2C60.4,328.8,61.6,329,62.9,329z"/>
<path class="st5" d="M53.7,327.6l0,12.2c-1.2-0.2-2.4-0.5-3.6-0.9l0-12.4C51.3,326.9,52.5,327.2,53.7,327.6z"/>
<path class="st5" d="M44.3,324.8l0,12.4c-1.2-0.5-2.4-0.9-3.6-1.4l0-12.4C41.9,323.6,43.1,324.4,44.3,324.8z"/>
<path class="st5" d="M35.2,320.4l0,12.7c-1.2-0.7-2.4-1.4-3.6-2.3l0-12.9C32.8,318.7,34,319.4,35.2,320.4z"/>
<path class="st5" d="M28.2,315.4l0,12.7c-1.2-1.2-2.4-2.3-3.6-3.5l0-12.9C25.8,313.1,27,314.3,28.2,315.4z"/>
<path class="st5" d="M21.5,307.5l0,12.9c-1.9-2.8-3.1-5.9-3.6-8.9l0-12.9C18.6,301.6,19.8,304.7,21.5,307.5z"/>
<path class="st5" d="M81.9,329.1l0,12c-1.2,0.2-2.4,0.2-3.6,0.5l0-11.9C79.5,329.3,80.7,329.1,81.9,329.1z"/>
<path class="st5" d="M90.5,327.4l0,11.9c-1.2,0.2-2.4,0.5-3.6,0.9l0-11.9C88.1,327.9,89.3,327.7,90.5,327.4z"/>
<path class="st5" d="M99.2,324.8l0,11.7c-1.2,0.5-2.4,0.9-3.6,1.4l0-11.7C96.8,325.5,98,325.3,99.2,324.8z"/>
<path class="st5" d="M107.6,320.6l0,11.7c-1.2,0.7-2.4,1.4-3.6,1.9l0-11.7c1-0.5,1.9-0.9,2.9-1.6
	C107.1,320.9,107.4,320.9,107.6,320.6z"/>
<path class="st5" d="M113.9,316.4l0,11.7c-1.2,0.9-2.4,1.9-3.6,2.6l0-11.7C111.4,318.3,112.7,317.4,113.9,316.4z"/>
<path class="st5" d="M120.1,310.3l0,11.5c-1,1.4-2.2,2.8-3.6,4l0-11.7C117.7,312.9,118.9,311.5,120.1,310.3z"/>
<path class="st5" d="M125.4,298.4l0,11.2c-0.5,3.3-1.7,6.3-3.6,9.6l0-11.5C123.5,304.7,124.7,301.6,125.4,298.4z"/>
<path class="st6" d="M107,265.5c22.8,13.7,24.6,37.2,4.6,52.1c-20,15.2-55.2,16.2-78,2.3C10.8,306.3,9,282.8,29,267.8
	C49,252.9,84.2,251.9,107,265.5z"/>
<path class="st4" d="M105.9,314.2c-19.9,11.5-50.1,9.8-66.9-3.6c-17.3-13.4-15.1-33.3,4.8-44.8c4.1-2.4,8.6-4.1,13.2-5.3
	c-6.7,1.2-13.4,3.4-18.9,6.7c-20.4,11.7-22.8,32.6-5,46.3c17.5,13.9,48.9,15.6,69.3,3.6c3.1-1.7,5.8-3.8,7.9-6
	C108.8,312.3,107.3,313.3,105.9,314.2z"/>
<path class="st4" d="M0.2,283.1c-0.8,10.6,5.3,21.8,18.2,29.6c22.8,13.7,58,12.7,78-2.3c10.1-7.3,14.7-17,13.7-26.3
	c0.8-10.6-5.3-21.8-18.2-29.6c-22.8-13.7-58-12.7-78,2.3C3.7,264.1-0.8,273.7,0.2,283.1z"/>
<path class="st5" d="M56.8,309.6l0,12.2c-1.2,0-2.4,0-3.6,0l0-12.2C54.4,309.6,55.6,309.6,56.8,309.6z"/>
<path class="st5" d="M47.7,309.1l0,12.2c-1.2,0-2.4-0.2-3.6-0.5l0-12.2C45.3,308.9,46.5,309.1,47.7,309.1z"/>
<path class="st5" d="M38.5,307.7l0,12.2c-1.2-0.2-2.4-0.5-3.6-0.9l0-12.4C36.1,307,37.3,307.2,38.5,307.7z"/>
<path class="st5" d="M29.1,304.9l0,12.4c-1.2-0.5-2.4-0.9-3.6-1.4l0-12.4C26.7,303.7,27.9,304.4,29.1,304.9z"/>
<path class="st5" d="M20,300.4l0,12.7c-1.2-0.7-2.4-1.4-3.6-2.3l0-12.9C17.6,298.8,18.8,299.5,20,300.4z"/>
<path class="st5" d="M13,295.5l0,12.7c-1.2-1.2-2.4-2.3-3.6-3.5l0-12.9C10.6,293.2,11.8,294.3,13,295.5z"/>
<path class="st5" d="M6.3,287.6l0,12.9c-1.9-2.8-3.1-5.9-3.6-8.9l0-12.9C3.4,281.7,4.6,284.7,6.3,287.6z"/>
<path class="st5" d="M66.7,309.1l0,11.9c-1.2,0.2-2.4,0.2-3.6,0.5l0-12C64.3,309.4,65.5,309.1,66.7,309.1z"/>
<path class="st5" d="M75.3,307.5l0,11.9c-1.2,0.2-2.4,0.5-3.6,0.9l0-11.9C72.9,308,74.1,307.7,75.3,307.5z"/>
<path class="st5" d="M84,304.9l0,11.7c-1.2,0.5-2.4,0.9-3.6,1.4l0-11.7C81.6,305.6,82.8,305.4,84,304.9z"/>
<path class="st5" d="M92.4,300.7l0,11.7c-1.2,0.7-2.4,1.4-3.6,1.9l0-11.7c1-0.5,1.9-0.9,2.9-1.6C91.9,300.9,92.2,300.9,92.4,300.7z"
	/>
<path class="st5" d="M98.7,296.5l0,11.7c-1.2,0.9-2.4,1.9-3.6,2.6l0-11.7C96.3,298.4,97.5,297.4,98.7,296.5z"/>
<path class="st5" d="M104.9,290.4l0,11.5c-1,1.4-2.2,2.8-3.6,4l0-11.7C102.5,293,103.7,291.6,104.9,290.4z"/>
<path class="st5" d="M110.2,278.4l0,11.2c-0.5,3.3-1.7,6.3-3.6,9.6l0-11.5C108.3,284.8,109.5,281.7,110.2,278.4z"/>
<path class="st6" d="M91.8,245.6c22.8,13.7,24.6,37.2,4.6,52.1c-20,15.2-55.2,16.2-78,2.3c-22.8-13.7-24.6-37.2-4.6-52.1
	C33.8,233,69,232,91.8,245.6z"/>
<path class="st4" d="M90.7,294.3c-19.9,11.5-50.1,9.8-66.9-3.6c-17.3-13.4-15.1-33.3,4.8-44.8c4.1-2.4,8.6-4.1,13.2-5.3
	c-6.7,1.2-13.4,3.4-18.9,6.7c-20.4,11.7-22.8,32.6-5,46.3c17.5,13.9,48.9,15.6,69.3,3.6c3.1-1.7,5.8-3.8,7.9-6
	C93.6,292.4,92.1,293.4,90.7,294.3z"/>
<path class="st7" d="M33.4,275.2l3.6,2.1l5.7-3.3l8,4.7l2.4-1.4l-8-4.7l5.3-3l9.2,5.3c3.8,2.1,7.6,3.3,11.3,3.5
	c3.8,0.2,7.1-0.6,10.3-2.4c3-1.8,4.4-3.8,4.1-6c-0.3-2.3-2.3-4.5-5.9-6.7l-12.7-7.4l-17.5,10.1l-5.1-3l-2.4,1.5l5.1,3l-5.3,3l-5.1-3
	l-2.4,1.4l5.1,3L33.4,275.2z M61.7,273.2l-8.8-5.1l15.1-8.8l9.2,5.3c2.4,1.5,3.6,3,3.5,4.5c0,1.7-1.1,3.2-3.3,4.4
	c-2.4,1.4-5.1,2.1-7.9,2C67,275.5,64.2,274.7,61.7,273.2z"/>
<path class="st1" d="M346.2,252.1c0,2.7-0.2,5.1-0.6,7.4l-11.4,6.6l-0.4,0.2c0-0.2,0-0.4,0-0.4l-36.4-21.1l-27.4-16.1
	c-2.8-8-4.3-15.9-4.3-23.5c0-8.3-0.2-18.6-0.2-19.2c0.1,0,0.8-0.3,0.8-0.5l3.2-1.9c10.1-6.1,24-8.9,36.4-1.9
	C328,194.8,346.2,226.3,346.2,252.1z"/>
<path class="st4" d="M346.2,252.1c0,2.7-0.2,5.1-0.6,7.4l-11.4,6.6l-0.4,0.2c0-0.2,0-0.4,0-0.4l-36.4-21.1l-27.4-16.1
	c-2.8-8-4.3-15.9-4.3-23.5c0-8.3-0.2-18.6-0.2-19.2c0,0,0.8-0.5,0.8-0.5l3.2-1.9c10.1-6.1,24-8.9,36.4-1.9
	C328,194.8,346.2,226.3,346.2,252.1z"/>
<path class="st8" d="M334.2,258.9c0,2.5-0.2,4.7-0.6,7l-36.2-21.1l-27.4-16.1l-2.1-1.1l-13.7-8c0,0-0.6-0.5-0.6-7.6
	c0-7,1.9-12.9,1.9-12.9s0.2-0.9,0.4-1.5c0.6-2.1,1.5-3.6,2.4-4.9c0.2-0.2,0.4-0.6,0.6-0.8c0.9-1.4,2.1-2.7,3.4-3.8
	c0.9-0.8,2.1-1.5,3.1-2.1c0,0,1-0.5,1.7-0.9c0.4-0.2,0.8-0.4,1.3-0.6c0.4-0.2,0.8-0.2,1.3-0.4c0.4-0.2,0.8-0.2,1.3-0.4
	c6.6-1.5,14.4,0,23.1,4.9C316.2,201.6,334.2,233.1,334.2,258.9z"/>
<defs>
	<filter id="Adobe_OpacityMaskFilter" filterUnits="userSpaceOnUse" x="274.8" y="212.6" width="31" height="43.1">
		<feColorMatrix  type="matrix" values="1 0 0 0 0  0 1 0 0 0  0 0 1 0 0  0 0 0 1 0"/>
	</filter>
</defs>
<mask maskUnits="userSpaceOnUse" x="274.8" y="212.6" width="31" height="43.1" id="mask0_1_">
	<path class="st9" d="M334.2,258.9c0,2.5-0.2,4.7-0.6,7l-36.2-21.1l-27.4-16.1l-2.1-1.1l-13.7-8c-0.4-2.5-0.6-5.1-0.6-7.6
		c0-4.9,0.8-9.3,1.9-12.9V199c0.2-0.4,0.4-0.9,0.4-1.3c0.8-1.9,1.5-3.6,2.4-4.9c0.2-0.2,0.4-0.6,0.6-0.8c0.8-1.1,1.7-2.1,2.6-3
		c0.2-0.2,0.6-0.6,0.8-0.8c0,0,0.2,0,0.2-0.2c0.6-0.4,0.9-0.6,1.3-0.8c0.4-0.2,0.8-0.6,1.1-0.8c0.2-0.2,0.2-0.2,0.4-0.4
		c0.2,0,0.2-0.2,0.2-0.2c0.2,0,0.4-0.2,0.4-0.2s0,0,0.2,0c0,0,0.2,0,0.2-0.2c0.4,0,0.8-0.2,0.9-0.4c0.4-0.2,0.8-0.4,1.3-0.6
		c0.4-0.2,0.8-0.2,1.3-0.4c0.4-0.2,0.8-0.2,1.3-0.4c6.6-1.5,14.4,0,23.1,4.9C316.2,201.6,334.2,233.1,334.2,258.9z"/>
</mask>
<g class="st10">
	<path class="st7" d="M274.8,215.1v4l5.3,3.1v8.7l2.2,1.3v-8.7l4.9,2.9v10c0,4,0.8,7.7,2.5,10.9c1.7,3.1,3.8,5.4,6.7,7.1
		c2.8,1.7,5,1.9,6.7,0.6c1.7-1.3,2.7-4,2.7-8v-13.6l-16.3-9.6v-5.6l-2.2-1.4v5.6l-4.9-2.9v-5.6l-2.2-1.3v5.6L274.8,215.1z
		 M289.4,237.2v-9.6l14.1,8.3v10c0,2.6-0.7,4.3-2.1,5c-1.3,0.7-3.1,0.6-5-0.7c-2.2-1.3-4.1-3.1-5.2-5.6
		C290.1,242.6,289.4,240.1,289.4,237.2z"/>
</g>
<defs>
	<filter id="Adobe_OpacityMaskFilter_1_" filterUnits="userSpaceOnUse" x="266.9" y="177.6" width="80.1" height="85.4">
		<feColorMatrix  type="matrix" values="1 0 0 0 0  0 1 0 0 0  0 0 1 0 0  0 0 0 1 0"/>
	</filter>
</defs>
<mask maskUnits="userSpaceOnUse" x="266.9" y="177.6" width="80.1" height="85.4" id="mask1_1_">
	<path class="st11" d="M346.2,252.1c0,2.7-0.2,5.1-0.6,7.4l-11.4,6.6l-0.4,0.2c0-0.2,0-0.4,0-0.4l-36.4-21.1l-27.4-16.1
		c-2.8-8-4.3-15.9-4.3-23.5c0-8.3-0.2-18.6-0.2-19.2c0.1,0,0.8-0.3,0.8-0.5l3.2-1.9c10.1-6.1,24-8.9,36.4-1.9
		C328,194.8,346.2,226.3,346.2,252.1z"/>
</mask>
<g class="st12">
	<path class="st5" d="M296.3,178.1l-10,5.9c-1.7-0.5-3.3-0.9-4.7-1.4l8.5-5C292.3,177.6,294.4,177.9,296.3,178.1z"/>
	<path class="st5" d="M286.6,177.9l-7.8,4.3c-0.7,0-1.4,0-1.9-0.2c-1.4,0-2.8,0-4.3,0.2c-0.5,0.2-0.9,0.2-1.4,0.5l4-2.4
		c0.7-0.2,1.4-0.5,2.1-0.7c2.1-0.5,4-1.2,6.2-1.4C284.7,178.1,285.7,177.9,286.6,177.9z"/>
	<path class="st5" d="M287.8,177.6l-8.1,4.7c-0.2,0-0.5,0-0.9-0.2c-0.7,0-1.4,0-1.9-0.2c-1.4,0-2.8,0-4.3,0.2l4.7-2.6
		c2.1-0.5,4-1.2,6.2-1.4c1.2,0,2.1-0.2,3.1-0.2C286.9,177.9,287.3,177.9,287.8,177.6z"/>
	<path class="st5" d="M283.8,178.1l-6.9,4c-1.4,0-2.8,0-4.3,0.2c-0.5,0-0.9,0-1.4,0.2c-1.7,0.2-2.8,1.4-4.2,2.1
		c2.6-1.4,5.2-3.3,8.3-4.5c0.7-0.2,1.4-0.5,2.1-0.7C279.5,179.1,281.4,178.6,283.8,178.1z"/>
	<path class="st5" d="M303.9,180.2l-11.2,6.4c-1.4-0.7-2.6-1.4-4-1.9l10.7-6.2C300.9,179.1,302.3,179.5,303.9,180.2z"/>
	<path class="st5" d="M310.1,183.8l-11.4,6.6c-1.2-0.7-2.1-1.4-3.3-2.1l11.4-6.6C308,182.4,309.2,183.1,310.1,183.8z"/>
	<path class="st5" d="M316,188.5l-11.4,6.6c-0.9-0.9-1.9-1.7-2.8-2.4l11.4-6.6C314.1,186.9,315.1,187.6,316,188.5z"/>
	<path class="st5" d="M321.5,193.5l-11.6,6.6c-0.9-0.9-1.7-1.7-2.6-2.6l11.6-6.6C319.6,191.6,320.6,192.6,321.5,193.5z"/>
	<path class="st5" d="M326.2,198.7l-11.6,6.6c-0.7-0.9-1.4-1.9-2.4-2.8l11.6-6.6C324.6,196.8,325.5,197.8,326.2,198.7z"/>
	<path class="st5" d="M330.5,204.2l-11.6,6.9c-0.7-0.9-1.4-1.9-2.1-2.8l11.6-6.9C329.1,202.3,329.8,203.3,330.5,204.2z"/>
	<path class="st5" d="M334.3,209.9l-11.9,6.9c-0.7-0.9-1.2-1.9-1.9-3.1l11.6-6.9C333.1,208,333.6,209,334.3,209.9z"/>
	<path class="st5" d="M337.9,216.1L326,223c-0.5-0.9-1.2-2.1-1.7-3.1l11.9-6.9C336.7,213.9,337.2,214.9,337.9,216.1z"/>
	<path class="st5" d="M340.7,222.2l-11.9,6.9c-0.5-1.2-0.9-2.1-1.4-3.3l11.9-6.9C339.8,220.1,340.2,221.3,340.7,222.2z"/>
	<path class="st5" d="M343.3,228.9l-11.9,6.9c-0.5-1.2-0.7-2.4-1.2-3.3l11.9-6.9C342.6,226.5,343.1,227.7,343.3,228.9z"/>
	<path class="st5" d="M345.5,235.5l-11.9,6.9c-0.2-1.2-0.7-2.4-0.9-3.6l11.9-6.9C345,233.2,345.2,234.3,345.5,235.5z"/>
	<path class="st5" d="M346,243.4l-11,6.1c-0.2-1.1-0.4-2.1-0.6-3.4l11-6.1C345.6,241.3,345.8,242.3,346,243.4z"/>
	<path class="st5" d="M346,250.1l-10.8,5.9c0-1-0.2-2.2-0.2-3.3l10.8-5.7C346,248.2,346,249.2,346,250.1z"/>
	<path class="st5" d="M347,255.5c0,0.5,0,1,0,1l-12,6.5c0-0.8,0-1.6,0-2.4c0-0.4,0-0.8,0-1.2l12-6.4C347,253,347,254.4,347,255.5z"
		/>
</g>
<path class="st13" d="M293,198.3c20.2,11.7,36.8,39.7,37.9,63.6c0-0.7,0-1.4,0-2.3c0-24.4-17-53.8-37.9-65.9s-37.5-2.8-37.5,21.3
	c0,0.7,0,1.8,0,2.5C256.6,195,272.8,186.6,293,198.3z"/>
<path class="st1" d="M325.2,7.4C346.1,19.4,363,48.9,363,73.1c0,12.6-4.6,21.3-12,25c-0.7,0.4-8.8,5-8.8,5s-7.8-2.8-17-8
	c-20.7-12.1-37.8-41.7-37.8-65.9c0-8-0.4-17.9-0.4-17.9L291,9C300.5,3.5,313.8,0.6,325.2,7.4z"/>
<path class="st4" d="M325.2,7.4C346.1,19.4,363,48.9,363,73.1c0,12.6-4.6,21.3-12,25c-0.7,0.4-8.8,5-8.8,5s-7.8-2.8-17-8
	c-20.7-12.1-37.8-41.7-37.8-65.9c0-8-0.4-17.9-0.4-17.9L291,9C300.5,3.5,313.8,0.6,325.2,7.4z"/>
<defs>
	<filter id="Adobe_OpacityMaskFilter_2_" filterUnits="userSpaceOnUse" x="288.9" y="3.8" width="74.2" height="98.8">
		<feColorMatrix  type="matrix" values="1 0 0 0 0  0 1 0 0 0  0 0 1 0 0  0 0 0 1 0"/>
	</filter>
</defs>
<mask maskUnits="userSpaceOnUse" x="288.9" y="3.8" width="74.2" height="98.8" id="mask2_1_">
	<path class="st14" d="M325.2,7.4C346.1,19.4,363,48.9,363,73.1c0,12.6-4.6,21.3-12,25c-0.7,0.4-8.8,5-8.8,5s-7.8-2.8-17-8
		c-20.7-12.1-37.8-41.7-37.8-65.9c0-8-0.4-17.9-0.4-17.9L291,9C300.5,3.5,313.8,0.6,325.2,7.4z"/>
</mask>
<g class="st15">
	<path class="st5" d="M315.9,4.3l-9.1,5.4c-1.5-0.4-3-0.9-4.3-1.3l7.8-4.5C312.2,3.8,314.2,4,315.9,4.3z"/>
	<path class="st5" d="M307,4l-7.1,3.9c-0.6,0-1.3,0-1.7-0.2c-1.3,0-2.6,0-3.9,0.2c-0.4,0.2-0.9,0.2-1.3,0.4l3.7-2.2
		c0.6-0.2,1.3-0.4,1.9-0.6c1.9-0.4,3.7-1.1,5.6-1.3C305.3,4.3,306.2,4,307,4z"/>
	<path class="st5" d="M300.8,8.2l7.4-4.3c-7,0.4-9.2,1.4-11.4,2.1l-2.5,2C295.6,7.7,298.8,7.6,300.8,8.2z"/>
	<path class="st5" d="M300.8,8.2l3.7-3.9c-2.2,0.4-3.9,0.9-5.8,1.3l-1.9,0.6c-2.8,1.1-5.4,2.2-7.8,3.5C290.2,9,297.8,7.3,300.8,8.2z
		"/>
	<path class="st5" d="M322.8,6.2L312.6,12c-1.3-0.6-2.4-1.3-3.7-1.7l9.7-5.6C320,5.1,321.3,5.6,322.8,6.2z"/>
	<path class="st5" d="M328.4,9.5l-10.4,6.1c-1.1-0.6-1.9-1.3-3-1.9l10.4-6.1C326.5,8.2,327.6,8.8,328.4,9.5z"/>
	<path class="st5" d="M333.8,13.8l-10.4,6.1c-0.9-0.9-1.7-1.5-2.6-2.2l10.4-6.1C332.1,12.3,333,12.9,333.8,13.8z"/>
	<path class="st5" d="M338.8,18.3l-10.6,6.1c-0.9-0.9-1.5-1.5-2.4-2.4l10.6-6.1C337.1,16.6,338,17.5,338.8,18.3z"/>
	<path class="st5" d="M343.1,23.1l-10.6,6.1c-0.6-0.9-1.3-1.7-2.2-2.6l10.6-6.1C341.6,21.3,342.5,22.2,343.1,23.1z"/>
	<path class="st5" d="M347,28.1l-10.6,6.3c-0.6-0.9-1.3-1.7-1.9-2.6l10.6-6.3C345.7,26.3,346.4,27.2,347,28.1z"/>
	<path class="st5" d="M350.5,33.3l-10.8,6.3c-0.6-0.9-1.1-1.7-1.7-2.8l10.6-6.3C349.4,31.5,349.9,32.4,350.5,33.3z"/>
	<path class="st5" d="M353.7,38.9l-10.8,6.3c-0.4-0.9-1.1-1.9-1.5-2.8l10.8-6.3C352.7,36.9,353.1,37.8,353.7,38.9z"/>
	<path class="st5" d="M356.3,44.5l-10.8,6.3c-0.4-1.1-0.9-1.9-1.3-3l10.8-6.3C355.5,42.5,355.9,43.6,356.3,44.5z"/>
	<path class="st5" d="M358.7,50.6l-10.8,6.3c-0.4-1.1-0.6-2.2-1.1-3l10.8-6.3C358.1,48.4,358.5,49.5,358.7,50.6z"/>
	<path class="st5" d="M360.7,56.6l-10.8,6.3c-0.2-1.1-0.6-2.2-0.9-3.2l10.8-6.3C360.2,54.4,360.5,55.5,360.7,56.6z"/>
	<path class="st5" d="M362.2,63.1l-11,6.3c-0.2-1.1-0.4-2.2-0.6-3.5l11-6.3C361.7,60.9,362,62,362.2,63.1z"/>
	<path class="st5" d="M362.8,68.9l-11,6.5c0-1.1-0.2-2.4-0.2-3.7l11-6.3C362.8,66.8,362.8,67.8,362.8,68.9z"/>
	<path class="st5" d="M363,73.3c0,0.4,0,1.1,0,1.5l-11.2,6.5c0-0.9,0-1.7,0-2.6c0-0.4,0-0.9,0-1.3l11-6.5
		C363,71.8,363,72.6,363,73.3z"/>
	<path class="st5" d="M363,76.7c0,1.5-0.2,2.8-0.4,4.1l-11.2,6.5c0.2-1.3,0.4-2.6,0.6-4.1L363,76.7z"/>
	<path class="st5" d="M362.4,81.7c-0.4,1.5-0.6,3-1.3,4.3l-11.7,6.7c0.6-1.5,1.1-3,1.5-4.5L362.4,81.7z"/>
	<path class="st5" d="M360.9,86.9c-0.6,1.9-1.7,3.9-2.8,5.4l-12.5,7.1c1.5-1.7,2.8-3.7,3.9-5.8L360.9,86.9z"/>
	<path class="st5" d="M357.4,92.9c-1.7,2.4-3.9,4.1-6.3,5.2c-0.6,0.4-8.7,4.1-9.5,4.5c1.1-0.6,2.2-1.5,3-2.4L357.4,92.9z"/>
</g>
<linearGradient id="SVGID_4_" gradientUnits="userSpaceOnUse" x1="233.3711" y1="192.7739" x2="324.5161" y2="194.674" gradientTransform="matrix(1 0 0 -1 0 252)">
	<stop  offset="0" style="stop-color:#C4DFFF"/>
	<stop  offset="1" style="stop-color:#FBFFFF"/>
</linearGradient>
<path class="st16" d="M314.1,13.8c20.8,12.1,37.8,41.6,37.8,65.7c0,24.2-17,33.9-37.8,21.8c-20.8-12.1-37.8-41.6-37.8-65.7
	C276.3,11.4,293.3,1.7,314.1,13.8z"/>
<linearGradient id="SVGID_5_" gradientUnits="userSpaceOnUse" x1="268.9542" y1="229.2999" x2="354.2582" y2="163.4749" gradientTransform="matrix(1 0 0 -1 0 252)">
	<stop  offset="0" style="stop-color:#D0E4FC"/>
	<stop  offset="1" style="stop-color:#FBFFFF"/>
</linearGradient>
<path class="st17" d="M314.1,13.8c20.8,12.1,37.8,41.6,37.8,65.7c0,24.2-17,33.9-37.8,21.8c-20.8-12.1-37.8-41.6-37.8-65.7
	C276.3,11.4,293.3,1.7,314.1,13.8z"/>
<path class="st4" d="M313.4,22.7c18.9,11,34.4,37.2,35.5,59.6c0-0.6,0-1.3,0-2.2c0-22.8-15.9-50.3-35.5-61.7
	c-19.6-11.4-35.5-2.2-35.5,20.4c0,0.6,0,1.5,0,2.2C279,19.9,294.5,11.7,313.4,22.7z"/>
<path class="st7" d="M300.8,67.5l3.4,2.9l1.9-4.3l7.4,6.3l0.9-1.8l-7.4-6.3l1.8-3.9l8.4,7.2c3.4,2.9,6.4,4.4,8.9,4.7
	c2.4,0.3,4.2-0.8,5.2-3c1-2.3,0.9-4.8-0.4-7.8c-1.3-3-3.7-6.1-7.1-8.9l-11.6-9.9l-5.9,13l-4.7-4.1l-0.9,1.8l4.7,4.1l-1.8,3.9
	l-4.7-4.1l-0.9,1.8l4.7,4.1L300.8,67.5z M317.7,65.4l-8.2-6.8l5-11.3l8.4,7.2c2.2,1.9,3.7,4.1,4.6,6.2c0.9,2.2,0.9,4.1,0.1,5.7
	c-0.9,1.8-2.2,2.7-4,2.4C322.2,68.5,320.1,67.5,317.7,65.4z"/>
<path class="st1" d="M278.6,55.6c22.7,13.2,41.1,45.3,41.1,71.7c0,13.8-5,23.2-13.1,27.3c-0.8,0.4-9.6,5.4-9.6,5.4
	s-8.5-3.1-18.4-8.7c-22.5-13.2-41.1-45.5-41.1-71.9c0-8.7-0.4-19.6-0.4-19.6l4.2-2.5C251.7,51.3,266.1,48.2,278.6,55.6z"/>
<path class="st4" d="M278.6,55.6c22.7,13.2,41.1,45.3,41.1,71.7c0,13.8-5,23.2-13.1,27.3c-0.8,0.4-9.6,5.4-9.6,5.4
	s-8.5-3.1-18.4-8.7c-22.5-13.2-41.1-45.5-41.1-71.9c0-8.7-0.4-19.6-0.4-19.6l4.2-2.5C251.7,51.3,266.1,48.2,278.6,55.6z"/>
<defs>
	<filter id="Adobe_OpacityMaskFilter_3_" filterUnits="userSpaceOnUse" x="239.4" y="52.2" width="80" height="106.9">
		<feColorMatrix  type="matrix" values="1 0 0 0 0  0 1 0 0 0  0 0 1 0 0  0 0 0 1 0"/>
	</filter>
</defs>
<mask maskUnits="userSpaceOnUse" x="239.4" y="52.2" width="80" height="106.9" id="mask4_1_">
	<path class="st18" d="M278.6,55.6c22.7,13.2,41.1,45.3,41.1,71.7c0,13.8-5,23.2-13.1,27.3c-0.8,0.4-9.6,5.4-9.6,5.4
		s-8.5-3.1-18.4-8.7c-22.5-13.2-41.1-45.5-41.1-71.9c0-8.7-0.4-19.6-0.4-19.6l4.2-2.5C251.7,51.3,266.1,48.2,278.6,55.6z"/>
</mask>
<g class="st19">
	<path class="st5" d="M268.4,52.6l-9.8,5.8c-1.6-0.5-3.3-0.9-4.7-1.4l8.4-4.9C264.4,52.2,266.5,52.4,268.4,52.6z"/>
	<path class="st5" d="M258.8,52.4l-7.7,4.2c-0.7,0-1.4,0-1.9-0.2c-1.4,0-2.8,0-4.2,0.2c-0.5,0.2-0.9,0.2-1.4,0.5l4-2.3
		c0.7-0.2,1.4-0.5,2.1-0.7c2.1-0.5,4-1.2,6.1-1.4C256.9,52.7,257.8,52.4,258.8,52.4z"/>
	<path class="st5" d="M259.9,52.2l-8,4.7c-0.2,0-0.5,0-0.9-0.2c-0.7,0-1.4,0-1.9-0.2c-1.4,0-2.8,0-4.2,0.2l4.7-2.6
		c2.1-0.5,4-1.2,6.1-1.4c1.2,0,2.1-0.2,3-0.2C259,52.4,259.5,52.4,259.9,52.2z"/>
	<path class="st5" d="M256,52.7l-6.8,4c-1.4,0-2.8,0-4.2,0.2c-0.5,0-0.9,0-1.4,0.2c-1.6,0.2-2.8,1.4-4.2,2.1
		c2.6-1.4,5.1-3.3,8.2-4.4c0.7-0.2,1.4-0.5,2.1-0.7C251.8,53.6,253.6,53.1,256,52.7z"/>
	<path class="st5" d="M275.8,54.8l-11,6.3c-1.4-0.7-2.6-1.4-4-1.9l10.5-6.1C272.8,53.6,274.2,54.1,275.8,54.8z"/>
	<path class="st5" d="M281.9,58.3l-11.2,6.5c-1.2-0.7-2.1-1.4-3.3-2.1l11.2-6.5C279.8,56.9,281,57.6,281.9,58.3z"/>
	<path class="st5" d="M287.8,63l-11.2,6.5c-0.9-0.9-1.9-1.6-2.8-2.3l11.2-6.5C285.9,61.3,286.8,62,287.8,63z"/>
	<path class="st5" d="M293.1,67.9l-11.5,6.5c-0.9-0.9-1.6-1.6-2.6-2.6l11.5-6.5C291.3,66,292.2,66.9,293.1,67.9z"/>
	<path class="st5" d="M297.8,73l-11.5,6.5c-0.7-0.9-1.4-1.9-2.3-2.8l11.5-6.5C296.2,71.1,297.1,72.1,297.8,73z"/>
	<path class="st5" d="M302,78.4l-11.5,6.8c-0.7-0.9-1.4-1.9-2.1-2.8l11.5-6.8C300.6,76.5,301.3,77.4,302,78.4z"/>
	<path class="st5" d="M305.8,84l-11.7,6.8c-0.7-0.9-1.2-1.9-1.9-3l11.5-6.8C304.6,82.1,305.1,83.1,305.8,84z"/>
	<path class="st5" d="M309.3,90.1l-11.7,6.8c-0.5-0.9-1.2-2.1-1.6-3l11.7-6.8C308.1,88,308.6,88.9,309.3,90.1z"/>
	<path class="st5" d="M312.1,96.2l-11.7,6.8c-0.5-1.2-0.9-2.1-1.4-3.3l11.7-6.8C311.2,94.1,311.6,95.2,312.1,96.2z"/>
	<path class="st5" d="M314.7,102.7l-11.7,6.8c-0.5-1.2-0.7-2.3-1.2-3.3l11.7-6.8C314,100.4,314.4,101.5,314.7,102.7z"/>
	<path class="st5" d="M316.8,109.3l-11.7,6.8c-0.2-1.2-0.7-2.3-0.9-3.5l11.7-6.8C316.3,106.9,316.5,108.1,316.8,109.3z"/>
	<path class="st5" d="M318.4,116.3l-11.9,6.8c-0.2-1.2-0.5-2.3-0.7-3.7l11.9-6.8C317.9,113.9,318.2,115.1,318.4,116.3z"/>
	<path class="st5" d="M319.1,122.6l-11.9,7c0-1.2-0.2-2.6-0.2-4l11.9-6.8C319.1,120.2,319.1,121.4,319.1,122.6z"/>
	<path class="st5" d="M319.3,127.3c0,0.5,0,1.2,0,1.6l-12.2,7c0-0.9,0-1.9,0-2.8c0-0.5,0-0.9,0-1.4l11.9-7
		C319.3,125.6,319.3,126.6,319.3,127.3z"/>
	<path class="st5" d="M319.3,131c0,1.6-0.2,3-0.5,4.4l-12.2,7c0.2-1.4,0.5-2.8,0.7-4.4L319.3,131z"/>
	<path class="st5" d="M318.6,136.4c-0.5,1.6-0.7,3.3-1.4,4.7l-12.6,7.3c0.7-1.6,1.2-3.3,1.6-4.9L318.6,136.4z"/>
	<path class="st5" d="M317,142c-0.7,2.1-1.9,4.2-3,5.8l-13.6,7.7c1.6-1.9,3-4,4.2-6.3L317,142z"/>
	<path class="st5" d="M313.3,148.5c-1.9,2.6-4.2,4.4-6.8,5.6c-0.7,0.5-9.4,4.4-10.3,4.9c1.2-0.7,2.3-1.6,3.3-2.6L313.3,148.5z"/>
</g>
<linearGradient id="SVGID_6_" gradientUnits="userSpaceOnUse" x1="161.5469" y1="201.7355" x2="312.0299" y2="115.6355" gradientTransform="matrix(1 0 0 -1 0 252)">
	<stop  offset="0" style="stop-color:#DBECFF"/>
	<stop  offset="1" style="stop-color:#FBFFFF"/>
</linearGradient>
<path class="st20" d="M266.5,62.5c22.7,13.2,41.1,45.3,41.1,71.7s-18.4,37-41.1,23.8c-22.7-13.2-41.1-45.3-41.1-71.7
	S243.8,49.4,266.5,62.5z"/>
<path class="st13" d="M265.7,71.4c21,12.2,38.1,41.2,39.3,66c0-0.7,0-1.4,0-2.4c0-25.3-17.6-55.8-39.3-68.4
	C244,54,226.4,64.3,226.4,89.3c0,0.7,0,1.7,0,2.4C227.5,68.3,244.7,59.3,265.7,71.4z"/>
<path class="st7" d="M282.7,129.1l-1.3-4.4l-4.9-0.6l-2.8-9.6l-2.1-0.3l2.8,9.6l-4.5-0.4l-3.2-11c-1.4-4.4-3.1-8-5.4-10.6
	c-2.3-2.5-4.6-3.9-7.3-4.2c-2.7-0.3-4.4,0.7-5.2,3.1c-0.8,2.4-0.7,5.8,0.7,10.1l4.5,14.9l15.1,1.8l1.7,6.1l2.1,0.3L271,128l4.6,0.4
	l1.8,6.1l2.1,0.3l-1.8-6.1L282.7,129.1z M264.5,112.7l3.1,10.6l-13.2-1.4l-3.2-11c-0.8-3-0.8-5.1-0.1-6.6c0.7-1.5,2.1-2.3,3.9-2.1
	c2.1,0.3,4.1,1.3,5.6,3.2C262.4,107.2,263.7,109.6,264.5,112.7z"/>
</svg>
