<svg width="428" height="361" viewBox="0 0 428 361" fill="none" xmlns="http://www.w3.org/2000/svg"><path d="M328.376 229.647c78.786 27.863 85.218 76.033 16.079 106.257-69.139 31.169-191.339 33.058-270.93 4.723-78.786-27.863-85.217-76.033-16.078-106.258 70.747-30.696 192.142-33.057 270.929-4.722z" fill="url(#paint0_radial)" opacity=".5"/><path d="M410.931 123.466L251.855 31.731c-2.906-1.64-5.18-.63-5.18 2.145v123.281l169.31 100.316.126-125.931c0-2.776-2.274-6.436-5.18-8.076z" fill="#1A6FB7"/><g filter="url(#filter0_d)"><path d="M244.401 161.446l-102.218 62.587c-1.642-1.388-2.527 1.388-.632 1.766l160.592 92.619c2.779 2.397 6.696 1.261 9.476-.379l104.365-60.568c-59.688-42.566-104.315-58.706-171.583-96.025z" fill="#1A6FB7"/></g><path d="M413.83 255.954l-169.436-97.665V35.134c0-2.902 2.274-3.786 5.18-2.145l159.076 91.735c2.906 1.64 5.18 5.3 5.18 8.076v123.154z" fill="url(#paint1_linear)"/><path d="M407.389 246.746l-156.801-90.347V39.932l156.801 90.347v116.467z" fill="url(#paint2_linear)"/><path d="M408.138 248.822l-157.57-91.573V39.201l157.57 91.574v118.047z" fill="url(#paint3_linear)"/><mask id="a" mask-type="alpha" maskUnits="userSpaceOnUse" x="250" y="39" width="159" height="210"><path d="M408.138 248.822l-157.57-91.573V39.201l157.57 91.574v118.047z" fill="url(#paint4_linear)"/></mask><g mask="url(#a)" fill="white"><path opacity=".03" d="M237.574 174.189l-54.962-85.552L301.887-2.088l54.962 85.678-119.275 90.599zM354.575 236.526l-9.603-15.015 119.401-90.852 9.729 15.015-119.527 90.852z"/></g><path opacity=".25" d="M329.43 83.586c-.632-.379-1.138-1.136-1.138-1.767v-.378c0-.631.506-.883 1.138-.505.631.379 1.137 1.136 1.137 1.766v.379c0 .757-.506.883-1.137.505z" fill="black"/><path d="M244.399 158.289l169.436 97.665-102.217 58.928c-2.78 1.64-7.076 1.766-9.477.378L141.55 222.768c-2.401-1.388-2.148-3.785.632-5.426l102.217-59.053z" fill="url(#paint5_linear)"/><path d="M238.229 182.449l121.229 70.08 5.417-3.091-121.229-70.081-5.417 3.092zM224.818 190.177l114.006 65.701 5.417-3.092-114.007-65.701-5.416 3.092zM216.306 195.073l134.125 77.295 5.417-3.092-134.125-77.295-5.417 3.092zM207.537 200.226l134.125 77.294 5.417-3.091-134.126-77.295-5.416 3.092zM199.024 205.121l134.125 77.295 5.417-3.092-134.126-77.295-5.416 3.092zM366.94 256.911l5.417 3.091 5.417-3.091-5.417-3.091-5.417 3.091zM347.854 261.033l11.091 6.441 5.417-3.092-11.092-6.44-5.416 3.091z" fill="#5A9CDF" fill-opacity=".45"/><g filter="url(#filter1_d)"><path d="M13.117 232.305l64.32 36.331c1.28.715 3.23.805 4.357.179l39.366-22.234c1.127-.626.975-1.729-.305-2.474l-64.32-36.331c-1.28-.715-3.23-.805-4.357-.179l-39.366 22.234c-1.127.656-.975 1.759.305 2.474z" fill="url(#paint6_linear)"/><path d="M267.601 250.788l-94.831 54.758-156.238-90.109 94.83-54.758 156.239 90.109z" fill="#FDFEFF"/></g><g opacity=".55" fill="#73B2F3"><path d="M179.624 246.138l-32.097 18.774-5.382-2.978 32.096-18.774 5.383 2.978zM149.87 195.564l-62.565 36.043-4.372-2.985 62.565-36.043 4.372 2.985zM179.315 213.887l-62.252 35.731-4.685-2.672 62.565-36.044 4.372 2.985zM163.076 203.217l-62.565 36.043-4.372-2.984 62.565-36.044 4.372 2.985zM181.597 228.623l-36.201 20.727-4.798-2.865 36.627-20.847 4.372 2.985zM206.617 245.721l-36.201 20.727-4.798-2.865 36.627-20.847 4.372 2.985z"/></g><path d="M122.838 186.411l-5.331 3.131 3.822 2.222-4.224 2.424-3.822-2.222-3.42 2.02-3.319-1.919 3.419-2.02-1.81-1.01-3.42 2.02-3.319-1.919 3.42-2.02-11.668-6.868 9.254-5.352c2.615-1.515 5.431-2.424 8.449-2.525 2.916-.101 5.632.505 7.845 1.818 2.313 1.313 3.42 2.827 3.219 4.544-.202 1.616-1.61 3.232-4.325 4.747l-5.231 3.03 1.811 1.01 5.331-3.131 3.319 2.02zm-13.78-1.818l5.029-2.929c1.509-.909 2.314-1.717 2.414-2.626.101-.909-.603-1.616-1.911-2.424-1.207-.706-2.615-1.11-4.224-1.11-1.509 0-3.018.404-4.426 1.11l-5.23 3.03 8.348 4.949z" fill="#B1D4F8"/><g filter="url(#filter2_d)"><path d="M95.933 260.484l24.618-14.018c1.128-.626.975-1.729-.304-2.474l-64.32-36.331c-1.28-.715-3.23-.805-4.358-.179L26.95 221.5c15.45 8.17 53.632 29.744 68.983 38.984z" fill="url(#paint7_linear)"/></g><path d="M12.508 232.19l64.32 36.331c1.28.715 3.23.805 4.358.179l39.366-22.234c1.127-.626.975-1.729-.305-2.474l-64.32-36.331c-1.28-.715-3.23-.805-4.357-.179l-39.367 22.234c-1.127.656-.974 1.758.305 2.474z" fill="url(#paint8_linear)"/><path d="M84.13 232.052a.708.708 0 010 .663c-.105.218-.324.429-.638.61s-.68.308-1.066.374a3.468 3.468 0 01-1.15 0 2.987 2.987 0 01-1.025-.362 1.513 1.513 0 01-.48-.41.571.571 0 01-.116-.453l-.408.235-.71-.41 4.411-2.547.743.428-1.62.936c.26-.006.512.018.763.078.25.061.47.151.669.266.313.181.522.374.627.592zm-2.373 1.104c.355 0 .68-.09.982-.265.304-.176.45-.357.46-.568 0-.205-.125-.386-.397-.543a1.716 1.716 0 00-.606-.205c-.23-.036-.45-.03-.68.006-.23.036-.45.114-.648.229-.199.115-.335.242-.397.374a.47.47 0 00-.01.393c.062.132.177.247.355.35.261.151.585.229.94.229zM88.856 234.587l-3.168 1.828-.711-.41.397-.229a2.852 2.852 0 01-.784-.067 2.578 2.578 0 01-.69-.265c-.429-.248-.638-.501-.648-.785-.01-.284.22-.549.68-.815l1.819-1.05.742.428-1.715.99c-.282.163-.439.326-.45.477-.01.151.105.302.346.441.261.151.564.229.888.223a1.9 1.9 0 00.941-.278l1.6-.923.753.435zM86.942 237.079a1.385 1.385 0 01-.334-.483l.846-.163c.053.139.147.278.283.429.136.151.313.277.502.386.439.254.784.32 1.024.181.115-.066.136-.139.063-.229a2.97 2.97 0 00-.418-.387 4.418 4.418 0 01-.502-.446.573.573 0 01-.157-.405c0-.144.126-.277.356-.41.303-.175.669-.241 1.097-.199a3.22 3.22 0 011.286.428c.22.127.418.266.575.417.168.157.283.296.335.422l-.847.163c-.115-.247-.335-.47-.67-.664a1.731 1.731 0 00-.585-.229c-.177-.03-.313-.012-.428.054-.115.067-.136.151-.073.248.073.102.209.229.428.404.21.169.377.314.492.441.115.127.167.253.156.392-.01.139-.115.272-.345.405-.292.169-.658.235-1.097.187a3.39 3.39 0 01-1.328-.453 3.32 3.32 0 01-.659-.489zM93.57 236.56c-.01-.103.053-.187.178-.26a.822.822 0 01.45-.102.99.99 0 01.46.12c.136.079.21.169.21.266.01.103-.053.187-.168.254a.934.934 0 01-.47.114.91.91 0 01-.482-.12c-.094-.079-.167-.169-.177-.272zm-.679.356l.742.429-3.167 1.828-.743-.428 3.168-1.829zM97.052 239.681c.01.272-.209.543-.669.809l-1.819 1.05-.742-.429 1.714-.989c.283-.163.419-.314.429-.477 0-.157-.105-.302-.345-.441a1.711 1.711 0 00-.9-.229c-.323.006-.637.09-.95.271l-1.6.924-.743-.429 3.179-1.835.71.411-.407.235a2.68 2.68 0 01.795.073c.261.066.512.163.742.295.387.236.596.489.606.761zM99.844 243.043l-2.489-1.437c-.188.157-.261.332-.209.519.052.187.199.356.481.519a2.32 2.32 0 001.203.296l-.063.495a3.198 3.198 0 01-.93-.091 3.433 3.433 0 01-.868-.344c-.345-.199-.586-.422-.711-.652a.764.764 0 01-.042-.688c.104-.229.303-.428.617-.609a3.1 3.1 0 011.045-.362 3.375 3.375 0 011.16.006c.387.066.743.187 1.057.368.313.181.512.38.616.597a.698.698 0 01-.01.658c-.115.224-.324.429-.648.616-.021.012-.094.054-.21.109zm-1.14-1.878a1.96 1.96 0 00-.868.151l1.799 1.038c.198-.15.292-.313.26-.488-.02-.181-.156-.332-.396-.471a1.573 1.573 0 00-.795-.23zM99.51 244.334a1.386 1.386 0 01-.335-.483l.847-.163c.052.139.146.278.282.429.136.151.314.277.502.386.439.253.784.32 1.024.181.115-.066.136-.139.063-.229a2.96 2.96 0 00-.418-.387 4.477 4.477 0 01-.502-.446.573.573 0 01-.157-.405c0-.145.126-.277.356-.41.303-.175.669-.242 1.097-.199.429.042.868.187 1.286.428.22.127.419.266.575.417.168.157.283.295.335.422l-.847.163c-.115-.247-.334-.471-.669-.664a1.735 1.735 0 00-.585-.229c-.178-.03-.314-.012-.429.054-.115.067-.136.151-.073.248.073.102.209.229.428.404.209.169.377.314.492.441.115.126.167.253.157.392-.011.139-.115.272-.345.404-.293.169-.659.236-1.098.188a3.393 3.393 0 01-1.328-.453 3.25 3.25 0 01-.659-.489zM102.562 246.097a1.389 1.389 0 01-.334-.483l.847-.163c.052.139.146.277.282.428.136.151.314.278.502.387.439.253.784.32 1.024.181.115-.067.136-.139.063-.23a3.03 3.03 0 00-.418-.386 4.372 4.372 0 01-.502-.447.57.57 0 01-.157-.404c0-.145.126-.278.356-.41.303-.175.669-.242 1.097-.2.429.043.868.188 1.286.429.22.127.419.266.575.416.168.157.283.296.335.423l-.847.163c-.115-.248-.334-.471-.669-.664a1.714 1.714 0 00-.585-.229c-.178-.031-.314-.012-.429.054-.115.066-.136.151-.073.247.073.103.209.23.428.405.209.169.377.314.492.44.115.127.167.254.157.393-.011.139-.115.271-.345.404-.293.169-.659.236-1.098.187a3.374 3.374 0 01-1.328-.452 3.388 3.388 0 01-.659-.489z" fill="white"/><path d="M57.333 247.039l7.852 4.431-3.128 1.772-7.852-4.431 3.128-1.772zM46.332 240.834l7.852 4.432-3.128 1.772-7.852-4.431 3.128-1.773zM35.352 234.631l7.852 4.431-3.128 1.772-7.851-4.431 3.127-1.772zM24.351 228.428l7.852 4.431-3.128 1.772-7.851-4.431 3.127-1.772z" fill="#C4DBFD"/><path d="M33.094 222.798l7.466 4.217c.149.083.375.093.506.021l4.57-2.581c.13-.073.113-.201-.036-.287l-7.466-4.217c-.148-.083-.375-.094-.506-.021l-4.569 2.581c-.13.076-.113.204.035.287z" fill="#EFE8CE"/><path d="M12.508 232.189l13.528 7.451 13.498 7.511L66.5 262.232l6.734 3.785 3.352 1.908c.274.149.579.327.822.476.244.149.549.239.853.298.58.15 1.22.15 1.828.09.61-.09 1.189-.239 1.737-.566l1.676-.954 3.352-1.908 6.733-3.815 13.468-7.6 13.497-7.54-13.345 7.779-13.376 7.719-6.703 3.845-3.352 1.907-1.675.954-.214.119-.244.12c-.152.059-.335.119-.487.178-.335.09-.67.179-1.006.209-.67.089-1.37.06-2.041-.089-.335-.09-.67-.179-.975-.358-.305-.149-.579-.328-.853-.477l-3.382-1.878-6.734-3.785-26.904-15.2-13.345-7.57-13.407-7.69zM57.233 215.062l1.35-.762-2.725-1.548-1.35.761 1.376.762-1.35.761 1.376.762-1.35.762 1.376.761 2.699-1.523-1.402-.736zM53.159 215.823l1.35-.761-1.376-.762 1.35-.761-1.376-.762 1.35-.761-1.376-.762-2.699 1.523 1.376.762-1.35.761-1.375-.761-2.725 1.523 1.376.761 1.349-.761 1.375.761 1.35-.761 1.401.761zM54.534 216.585l-1.375-.761-1.35.761 1.376.762 1.35-.762z" fill="white"/><path d="M51.81 216.585l-1.376-.761-1.35.761 1.376.762 1.35-.762zM54.534 218.108l-1.375-.761-1.35.761 1.376.762 1.35-.762zM90.58 251.347a.935.935 0 01-.184.359 1.035 1.035 0 01-.42.308c-.157.103-.341.18-.551.231-.21.077-.42.103-.63.129-.315.025-.499.179-.472.333.052.18.315.283.63.257.314-.026.656-.077.944-.154.315-.077.604-.205.84-.334.263-.154.446-.308.604-.487.157-.18.262-.36.315-.539.052-.18-.158-.334-.447-.36-.315-.025-.577.103-.63.257zM92.626 251.68c-.183.437-.577.847-1.154 1.181a5.922 5.922 0 01-2.073.667c-.289.052-.473.206-.394.36.079.154.368.256.656.231.945-.129 1.863-.411 2.598-.822.709-.41 1.207-.924 1.417-1.463.079-.154-.105-.334-.393-.359-.29-.052-.578.051-.657.205zM94.752 252.066c-.288.616-.866 1.206-1.706 1.694s-1.89.796-2.991.975c-.289.052-.473.206-.394.385.079.154.367.257.656.231 1.286-.179 2.467-.564 3.49-1.129.998-.565 1.654-1.232 1.995-1.951.079-.154-.105-.334-.394-.385-.288-.077-.577.026-.656.18z" fill="white"/><path d="M96.878 252.451c-.394.796-1.155 1.566-2.283 2.207-1.129.642-2.467 1.053-3.884 1.284-.289.026-.446.205-.368.359.08.154.368.257.656.206 1.601-.257 3.123-.719 4.383-1.438 1.26-.719 2.126-1.566 2.545-2.464.08-.154-.078-.334-.367-.385-.289-.052-.603.051-.682.231z" fill="white"/><path d="M278.326 144.324l48.327 27.993c2.05 1.187 3.776 4.046 3.884 6.473l-.432 49.999c.225 2.731-2.887 5.398-5.854 3.996l-18.453-12.401-4.652 10.747-1.324.628-6.938-20.238c-2.481-1.51-18.927-10.995-18.927-13.853l-1.165-50.631c0-2.751 3.033-3.65 5.534-2.713z" fill="url(#paint9_linear)"/><path d="M277 144.987l48.327 27.993c2.05 1.187 3.776 4.045 3.883 6.473l-.431 49.999c.054 1.833-1.834 4.746-4.8 3.344l-19.507-11.75-4.652 10.748-9.543-18.74-13.223-6.957c-2.481-1.51-4.423-4.908-4.423-7.767v-50.862c0-2.751 1.996-3.883 4.369-2.481z" fill="white"/><path d="M318.764 196.837l.002-4.362-34.625-20.131v4.48l34.623 20.013z" fill="url(#paint10_linear)"/><path d="M309.393 200.865l-.013-4.758-25.099-14.556.016 4.615 25.096 14.699z" fill="url(#paint11_linear)"/><path d="M230.016 1.13l32.565 19.088c1.377.797 2.536 2.716 2.609 4.347l-.29 33.581c.036 1.232-1.871 2.633-3.864 1.691l-16.851-8.455-7.397 7.09-.869-12.534-5.76-3.477c-1.667-1.015-2.971-3.297-2.971-5.217V3.083c0-1.848 1.234-2.894 2.828-1.952z" fill="url(#paint12_linear)"/><path d="M235.646 58.574l1.162-.12.12-1.683-1.282 1.803z" fill="#8BC812"/><path d="M263.974 59.671l-1.481.851.214-1.783 1.267.932z" fill="#84C209"/><path d="M227.157 1.22l1.395-.397.462.964-1.857-.567z" fill="#A3DC33"/><path d="M228.958 1.55l32.458 18.801c1.377.797 2.536 2.717 2.609 4.348l-.29 33.581c.036 1.232-1.232 3.188-3.224 2.246l-17.751-9.6-7.137 7.68-.869-12.534-5.76-3.478c-1.667-1.014-2.971-3.296-2.971-5.216V3.216c0-1.847 1.341-2.608 2.935-1.666z" fill="white"/><path d="M239.49 29.213l3.103 4.817 6.53-4.307" stroke="white" stroke-width="5"/><path d="M253.381 34.497c0-3.049-2.262-6.687-5.064-8.113-2.557-1.278-4.72-.295-5.015 2.213l-.099-.099c-.344-2.851-2.458-5.949-5.015-7.276-2.802-1.426-5.064-.099-5.064 2.95 0 1.475.541 3.048 1.377 4.474.246.442 8.801 12.636 8.801 12.636s6.195-2.655 8.26-3.491c1.032-.394 1.819-1.574 1.819-3.294z" fill="url(#paint13_linear)"/><path d="M179.601 49.278l48.012 28.14c2.029 1.175 3.738 4.006 3.845 6.41l-.427 49.51c.053 1.816-2.758 3.881-5.696 2.492l-24.844-12.464-10.906 10.453-1.282-18.48-8.492-5.127c-2.457-1.496-4.379-4.861-4.379-7.691V52.156c0-2.724 1.819-4.267 4.169-2.878z" fill="url(#paint14_linear)"/><path d="M187.9 133.969l1.714-.177.177-2.482-1.891 2.659z" fill="#8BC812"/><path d="M229.666 135.587l-2.184 1.254.316-2.63 1.868 1.376z" fill="#84C209"/><path d="M175.386 49.41l2.055-.584.682 1.42-2.737-.836z" fill="#A3DC33"/><path d="M178.04 49.896l47.855 27.72c2.029 1.174 3.738 4.005 3.845 6.409l-.427 49.51c.053 1.816-1.816 4.7-4.754 3.311l-26.17-14.153-10.522 11.323-1.282-18.48-8.492-5.127c-2.457-1.496-4.379-4.861-4.379-7.691V52.353c0-2.724 1.976-3.846 4.326-2.457z" fill="white"/><path d="M190.876 84.279L198.9 97.25l12.484-7.033 3.219 3.87-15.703 9.261-11.603-18.294 3.579-.776z" fill="url(#paint15_linear)"/><defs><linearGradient id="paint1_linear" x1="426.11" y1="246.65" x2="229.37" y2="77.87" gradientUnits="userSpaceOnUse"><stop offset=".03" stop-color="#3E6FBF"/><stop offset="1" stop-color="#A7CEFA"/></linearGradient><linearGradient id="paint2_linear" x1="248.11" y1="107.74" x2="478.19" y2="209.26" gradientUnits="userSpaceOnUse"><stop offset="0" stop-color="#C8E3FF"/><stop offset=".97" stop-color="#73B2F3"/></linearGradient><linearGradient id="paint3_linear" x1="185.97" y1="8" x2="420.17" y2="244.83" gradientUnits="userSpaceOnUse"><stop stop-color="#4971D0"/><stop offset=".97" stop-color="#263D78"/></linearGradient><linearGradient id="paint4_linear" x1="248.57" y1="65.66" x2="419.75" y2="245.29" gradientUnits="userSpaceOnUse"><stop stop-color="#4971D0"/><stop offset=".97" stop-color="#263D78"/></linearGradient><linearGradient id="paint5_linear" x1="81.97" y1="147.67" x2="318.34" y2="258.12" gradientUnits="userSpaceOnUse"><stop offset="0" stop-color="#C0DEFE"/><stop offset=".97" stop-color="#81B6F4"/></linearGradient><linearGradient id="paint6_linear" x1="49.07" y1="257.9" x2="39.51" y2="119.85" gradientUnits="userSpaceOnUse"><stop offset=".03" stop-color="#4971D0"/><stop offset="1" stop-color="#9CC4FC"/></linearGradient><linearGradient id="paint7_linear" x1="48.46" y1="257.78" x2="38.91" y2="119.73" gradientUnits="userSpaceOnUse"><stop offset=".03" stop-color="#4971D0"/><stop offset="1" stop-color="#9CC4FC"/></linearGradient><linearGradient id="paint8_linear" x1="48.46" y1="257.78" x2="38.91" y2="119.73" gradientUnits="userSpaceOnUse"><stop offset=".03" stop-color="#4971D0"/><stop offset="1" stop-color="#9CC4FC"/></linearGradient><linearGradient id="paint9_linear" x1="287.23" y1="149.94" x2="338.4" y2="207.31" gradientUnits="userSpaceOnUse"><stop stop-color="#A3DB33"/><stop offset="1" stop-color="#84C209"/></linearGradient><linearGradient id="paint10_linear" x1="292.8" y1="173.98" x2="302.7" y2="198.23" gradientUnits="userSpaceOnUse"><stop stop-color="#A3DB33"/><stop offset="1" stop-color="#84C209"/></linearGradient><linearGradient id="paint11_linear" x1="290.56" y1="182.84" x2="298.83" y2="201.47" gradientUnits="userSpaceOnUse"><stop stop-color="#A3DB33"/><stop offset="1" stop-color="#84C209"/></linearGradient><linearGradient id="paint12_linear" x1="236.69" y1="4.75" x2="270.79" y2="42.56" gradientUnits="userSpaceOnUse"><stop stop-color="#A3DB33"/><stop offset="1" stop-color="#84C209"/></linearGradient><linearGradient id="paint13_linear" x1="238.19" y1="22.03" x2="248.6" y2="39.73" gradientUnits="userSpaceOnUse"><stop stop-color="#A3DB33"/><stop offset="1" stop-color="#84C209"/></linearGradient><linearGradient id="paint14_linear" x1="189.44" y1="54.62" x2="239.71" y2="110.35" gradientUnits="userSpaceOnUse"><stop stop-color="#A3DB33"/><stop offset="1" stop-color="#84C209"/></linearGradient><linearGradient id="paint15_linear" x1="194.12" y1="85.55" x2="201.76" y2="104.5" gradientUnits="userSpaceOnUse"><stop stop-color="#A3DB33"/><stop offset="1" stop-color="#84C209"/></linearGradient><filter id="filter0_d" x="128.48" y="161.45" width="299.5" height="186.35" filterUnits="userSpaceOnUse" color-interpolation-filters="sRGB"><feFlood flood-opacity="0" result="BackgroundImageFix"/><feColorMatrix in="SourceAlpha" type="matrix" values="0 0 0 0 0 0 0 0 0 0 0 0 0 0 0 0 0 0 127 0"/><feOffset dy="16"/><feGaussianBlur stdDeviation="6"/><feColorMatrix type="matrix" values="0 0 0 0 0.160784 0 0 0 0 0.254902 0 0 0 0 0.501961 0 0 0 0.5 0"/><feBlend mode="normal" in2="BackgroundImageFix" result="effect1_dropShadow"/><feBlend mode="normal" in="SourceGraphic" in2="effect1_dropShadow" result="shape"/></filter><filter id="filter1_d" x=".05" y="160.68" width="279.55" height="172.87" filterUnits="userSpaceOnUse" color-interpolation-filters="sRGB"><feFlood flood-opacity="0" result="BackgroundImageFix"/><feColorMatrix in="SourceAlpha" type="matrix" values="0 0 0 0 0 0 0 0 0 0 0 0 0 0 0 0 0 0 127 0"/><feOffset dy="16"/><feGaussianBlur stdDeviation="6"/><feColorMatrix type="matrix" values="0 0 0 0 0.160784 0 0 0 0 0.254902 0 0 0 0 0.501961 0 0 0 0.5 0"/><feBlend mode="normal" in2="BackgroundImageFix" result="effect1_dropShadow"/><feBlend mode="normal" in="SourceGraphic" in2="effect1_dropShadow" result="shape"/></filter><filter id="filter2_d" x="14.95" y="201.06" width="118.36" height="77.42" filterUnits="userSpaceOnUse" color-interpolation-filters="sRGB"><feFlood flood-opacity="0" result="BackgroundImageFix"/><feColorMatrix in="SourceAlpha" type="matrix" values="0 0 0 0 0 0 0 0 0 0 0 0 0 0 0 0 0 0 127 0"/><feOffset dy="6"/><feGaussianBlur stdDeviation="6"/><feColorMatrix type="matrix" values="0 0 0 0 0.160784 0 0 0 0 0.254902 0 0 0 0 0.501961 0 0 0 0.5 0"/><feBlend mode="normal" in2="BackgroundImageFix" result="effect1_dropShadow"/><feBlend mode="normal" in="SourceGraphic" in2="effect1_dropShadow" result="shape"/></filter><radialGradient id="paint0_radial" cx="0" cy="0" r="1" gradientUnits="userSpaceOnUse" gradientTransform="matrix(0 75.4285 -191.258 0 200.951 285.22)"><stop stop-color="#253C77"/><stop offset=".95" stop-color="#253C77" stop-opacity="0"/></radialGradient></defs></svg>