<?xml version="1.0" encoding="utf-8"?>
<!-- Generator: Adobe Illustrator 22.1.0, SVG Export Plug-In . SVG Version: 6.00 Build 0)  -->
<svg version="1.1" id="Capa_1" xmlns="http://www.w3.org/2000/svg" xmlns:xlink="http://www.w3.org/1999/xlink" x="0px" y="0px"
	 viewBox="0 0 512 512" style="enable-background:new 0 0 512 512;" xml:space="preserve">
<style type="text/css">
	.st0{fill:#222425;}
</style>
<g>
	<g>
		<path class="st0" d="M488.5,181.8h-50.4l-25.5-99.8c-3.2-12.5-16-20.1-28.6-17l-58,14.8c-3.9,1-6.3,5-5.3,8.9c1,3.9,5,6.3,8.9,5.3
			l58-14.8c4.7-1.2,9.6,1.7,10.8,6.4l2.8,11.1L17.7,194.4l-2.8-11.1c-0.6-2.3-0.2-4.7,1-6.7c1.2-2,3.1-3.5,5.4-4.1l263.9-67.3
			c3.9-1,6.3-5,5.3-8.9c-1-3.9-5-6.3-8.9-5.3L17.7,158.4c-12.5,3.2-20.1,16-17,28.6l54.1,212.2c2.7,10.6,12.3,17.7,22.8,17.7
			c1.9,0,3.9-0.2,5.8-0.7l3.5-0.9v9c0,12.9,10.5,23.5,23.5,23.5h378.2c12.9,0,23.5-10.5,23.5-23.5v-219
			C512,192.3,501.5,181.8,488.5,181.8z M86.9,400.2l-7.1,1.8c-4.7,1.2-9.6-1.7-10.8-6.4L35.9,265.7l51-13
			C86.9,252.7,86.9,400.2,86.9,400.2z M86.9,205.3v32.3l-54.6,13.9l-10.9-42.9l70.7-18C88.8,194.6,86.9,199.7,86.9,205.3z
			 M423.1,181.8h-58.2l54.6-13.9L423.1,181.8z M405,110.8l10.9,42.9l-110.2,28.1H126.5L405,110.8z M488.5,433.1H110.3
			c-4.9,0-8.8-4-8.8-8.8v-18.4V205.3c0-4.9,4-8.8,8.8-8.8h378.2c4.9,0,8.8,4,8.8,8.8v219l0,0C497.4,429.1,493.4,433.1,488.5,433.1z"
			/>
	</g>
</g>
<g>
	<g>
		<path class="st0" d="M291.3,361.9H131.9c-4,0-7.3,3.3-7.3,7.3s3.3,7.3,7.3,7.3h159.4c4,0,7.3-3.3,7.3-7.3
			C298.7,365.2,295.4,361.9,291.3,361.9z"/>
	</g>
</g>
<g>
	<g>
		<path class="st0" d="M413.3,233.2c-10.5,0-20.2,3.4-28.2,9.1c-8.2-5.9-18-9.1-28.2-9.1c-26.6,0-48.2,21.6-48.2,48.2
			c0,26.6,21.6,48.2,48.2,48.2c10.2,0,20-3.2,28.2-9.1c7.9,5.7,17.7,9.1,28.2,9.1c26.6,0,48.2-21.6,48.2-48.2
			C461.4,254.9,439.8,233.2,413.3,233.2z M365.2,283.7c0,0.2,0,0.4,0,0.6c0,0.6,0.1,1.2,0.1,1.8c0,0.1,0,0.3,0,0.4
			c0.9,8.6,4,16.6,9.1,23.5c-5.2,3.2-11.3,5-17.6,5c-18.5,0-33.5-15-33.5-33.5c0-18.5,15-33.5,33.5-33.5c6.3,0,12.3,1.7,17.6,5
			c-5.1,6.9-8.2,14.9-9.1,23.5c0,0.1,0,0.3,0,0.4c-0.1,0.6-0.1,1.2-0.1,1.8c0,0.2,0,0.4,0,0.6c0,0.8-0.1,1.5-0.1,2.3
			S365.1,282.9,365.2,283.7z M413.3,314.9c-9.2,0-17.5-3.7-23.5-9.7c-0.1-0.1-0.2-0.2-0.4-0.4c-0.3-0.3-0.6-0.6-0.8-0.9
			c-0.1-0.1-0.1-0.2-0.2-0.2c-0.3-0.4-0.6-0.7-0.9-1.1c0,0,0,0,0,0c-4.8-5.8-7.7-13.2-7.7-21.3c0-8.1,2.9-15.5,7.7-21.3c0,0,0,0,0,0
			c0.3-0.4,0.6-0.7,0.9-1.1c0.1-0.1,0.1-0.2,0.2-0.2c0.3-0.3,0.5-0.6,0.8-0.9c0.1-0.1,0.2-0.2,0.4-0.4c6.1-6,14.4-9.7,23.5-9.7
			c18.5,0,33.5,15,33.5,33.5C446.8,299.9,431.7,314.9,413.3,314.9z"/>
	</g>
</g>
<g>
	<g>
		<path class="st0" d="M184.1,238H152c-15.1,0-27.4,12.3-27.4,27.4v32.1c0,15.1,12.3,27.4,27.4,27.4h32.1
			c15.1,0,27.4-12.3,27.4-27.4v-32.1C211.4,250.3,199.2,238,184.1,238z M196.8,285.3h-15.6c-4,0-7.3,3.3-7.3,7.3s3.3,7.3,7.3,7.3
			h15.4c-1.2,5.8-6.3,10.2-12.5,10.2H152c-6.2,0-11.3-4.4-12.5-10.2h15.4c4,0,7.3-3.3,7.3-7.3s-3.3-7.3-7.3-7.3h-15.6V279h15.6
			c4,0,7.3-3.3,7.3-7.3c0-4-3.3-7.3-7.3-7.3h-15.6c0.5-6.6,6-11.7,12.7-11.7h32.1c6.7,0,12.2,5.2,12.7,11.7h-15.6
			c-4,0-7.3,3.3-7.3,7.3c0,4,3.3,7.3,7.3,7.3h15.6V285.3z"/>
	</g>
</g>
<g>
	<g>
		<path class="st0" d="M463.1,394.1H208.4c-4,0-7.3,3.3-7.3,7.3s3.3,7.3,7.3,7.3h254.7c4,0,7.3-3.3,7.3-7.3S467.2,394.1,463.1,394.1
			z"/>
	</g>
</g>
<g>
	<g>
		<path class="st0" d="M161.7,394.1h-29.8c-4,0-7.3,3.3-7.3,7.3s3.3,7.3,7.3,7.3h29.8c4,0,7.3-3.3,7.3-7.3S165.8,394.1,161.7,394.1z
			"/>
	</g>
</g>
</svg>
