<?xml version="1.0" encoding="utf-8"?>
<!-- Generator: Adobe Illustrator 22.1.0, SVG Export Plug-In . SVG Version: 6.00 Build 0)  -->
<svg version="1.1" id="Слой_1" xmlns="http://www.w3.org/2000/svg" xmlns:xlink="http://www.w3.org/1999/xlink" x="0px" y="0px"
	 viewBox="0 0 80 80" style="enable-background:new 0 0 80 80;" xml:space="preserve">
<style type="text/css">
	.st0{fill:#1D1F22;}
	.st1{fill:#10D54C;}
</style>
<g>
	<g>
		<path class="st0" d="M76.3,29.3h-7.9l0,0c-1.8,0.1-3.6,0.3-3.8,0h-7.1c-0.7,0-1.3,0-2,0c-0.8,0-1.7,0-2.5,0c0.1,0-0.7,0-1,0
			c-0.5,0-0.9,0-1,0c-0.2,0-2.9,0.1-3.4,0H19.8l0.3-0.1c-0.6,0-1.2,0-1.8,0c-0.6,0-1.2,0-1.8,0c-0.8,0.4-1.6,0.8-2.2,1.5l0.2-0.1
			c-0.5,0.6-0.8,1.4-0.8,2.2v4.3h0.1c-0.1,0.9-0.1,1.9-0.2,2.8V40h0.1v22.3l0,0c0,0.8,0,1.5,0,2.3h0.1V66c0,2,1.6,3.6,3.7,3.6h59.1
			c2,0,3.7-1.6,3.7-3.6V32.9C80,30.9,78.4,29.3,76.3,29.3z M77.7,66c0,0.7-0.6,1.3-1.4,1.3H17.2c-0.8,0-1.4-0.6-1.4-1.3V32.9
			c0-0.7,0.6-1.3,1.4-1.3h59.1c0.8,0,1.4,0.6,1.4,1.3C77.7,32.9,77.7,66,77.7,66z"/>
	</g>
</g>
<g>
	<g>
		<path class="st0" d="M45.5,56.6H20.6c-0.6,0-1.1,0.5-1.1,1.1s0.5,1.1,1.1,1.1h24.9c0.6,0,1.1-0.5,1.1-1.1
			C46.7,57.1,46.2,56.6,45.5,56.6z"/>
	</g>
</g>
<g>
	<g>
		<path class="st0" d="M64.6,37.1c-1.6,0-3.2,0.5-4.4,1.4c-1.3-0.9-2.8-1.4-4.4-1.4c-4.1,0-7.5,3.3-7.5,7.3s3.4,7.3,7.5,7.3
			c1.6,0,3.1-0.5,4.4-1.4c1.2,0.9,2.8,1.4,4.4,1.4c4.1,0,7.5-3.3,7.5-7.3S68.7,37.1,64.6,37.1z M57.1,44.8L57.1,44.8
			c0,0.2,0,0.3,0,0.4c0,0,0,0,0,0.1c0.1,1.3,0.6,2.5,1.4,3.6c-0.8,0.5-1.8,0.8-2.7,0.8c-2.9,0-5.2-2.3-5.2-5.1s2.4-5.1,5.2-5.1
			c1,0,1.9,0.3,2.7,0.8c-0.8,1-1.3,2.3-1.4,3.6c0,0,0,0,0,0.1s0,0.2,0,0.3v0.1c0,0.1,0,0.2,0,0.3S57,44.6,57.1,44.8z M64.6,49.5
			c-1.4,0-2.7-0.6-3.7-1.5c0,0,0,0-0.1-0.1l-0.1-0.1l0,0c0-0.1-0.1-0.1-0.1-0.2l0,0c-0.7-0.9-1.2-2-1.2-3.2s0.4-2.3,1.2-3.2l0,0
			c0-0.1,0.1-0.1,0.1-0.2l0,0l0.1-0.1c0,0,0,0,0.1-0.1c0.9-0.9,2.2-1.5,3.7-1.5c2.9,0,5.2,2.3,5.2,5.1
			C69.8,47.2,67.5,49.5,64.6,49.5z"/>
	</g>
</g>
<g>
	<g>
		<path class="st0" d="M28.8,37.8h-5c-2.4,0-4.3,1.9-4.3,4.1v4.9c0,2.3,1.9,4.1,4.3,4.1h5c2.4,0,4.3-1.9,4.3-4.1V42
			C33,39.7,31.1,37.8,28.8,37.8z M30.8,45h-2.4c-0.6,0-1.1,0.5-1.1,1.1s0.5,1.1,1.1,1.1h2.4c-0.2,0.9-1,1.5-1.9,1.5h-5
			c-1,0-1.8-0.7-1.9-1.5h2.4c0.6,0,1.1-0.5,1.1-1.1S24.8,45,24.2,45h-2.4v-1h2.4c0.6,0,1.1-0.5,1.1-1.1s-0.5-1.1-1.1-1.1h-2.4
			c0.1-1,0.9-1.8,2-1.8h5c1,0,1.9,0.8,2,1.8h-2.4c-0.6,0-1.1,0.5-1.1,1.1s0.5,1.1,1.1,1.1h2.4C30.8,44,30.8,45,30.8,45z"/>
	</g>
</g>
<g>
	<g>
		<path class="st0" d="M72.4,61.5H32.6c-0.6,0-1.1,0.5-1.1,1.1s0.5,1.1,1.1,1.1h39.8c0.6,0,1.1-0.5,1.1-1.1S73,61.5,72.4,61.5z"/>
	</g>
</g>
<g>
	<g>
		<path class="st0" d="M25.3,61.5h-4.7c-0.6,0-1.1,0.5-1.1,1.1s0.5,1.1,1.1,1.1h4.7c0.6,0,1.1-0.5,1.1-1.1S25.9,61.5,25.3,61.5z"/>
	</g>
</g>
<g>
	<g>
		<path class="st1" d="M64.5,14.2c-0.5-1.9-2.5-3-4.5-2.6l-9,2.3c-0.6,0.2-1,0.8-0.8,1.3c0.2,0.6,0.8,1,1.4,0.8l9.1-2.2
			c0.7-0.2,1.5,0.3,1.7,1l0.4,1.7L19.4,27.2c0.1,0,0.1,0,0.1,0c0,0.2,0,0.4,0,0.6c0.8,0,1.6,0,2.4,0c0.3,0,3.5,0.1,3.5,0l0,0
			c0.1,0,0.3,0,0.4,0l37.5-9.3L65,25l-7.9,2c1.4,0,3.3,0,4.4,0l0,0c0,0,4.6-0.1,6.3,0L64.5,14.2z"/>
		<path class="st1" d="M45.4,16.4c-0.2-0.6-0.8-1-1.4-0.8L2.8,25.8c-2,0.5-3.1,2.4-2.6,4.3l8.5,32.1c0.4,1.6,1.8,2.6,3.4,2.7
			c0-0.7,0-1.5,0-2.2c-0.5-0.1-1-0.4-1.2-1L5.6,42l6.1-1.5c0-0.8,0-1.5,0-2.3L5,39.9l-1.7-6.5l8.3-2.1c0-0.8,0-1.5,0-2.3l-8.9,2.2
			l-0.4-1.7c-0.1-0.3,0-0.7,0.2-1C2.7,28.3,3,28,3.3,28l41.2-10.2C45.2,17.6,45.5,17,45.4,16.4z"/>
	</g>
</g>
</svg>
