<?xml version="1.0" encoding="utf-8"?>
<!-- Generator: Adobe Illustrator 22.1.0, SVG Export Plug-In . SVG Version: 6.00 Build 0)  -->
<svg version="1.1" id="Слой_1" xmlns="http://www.w3.org/2000/svg" xmlns:xlink="http://www.w3.org/1999/xlink" x="0px" y="0px"
	 viewBox="0 0 80 80" style="enable-background:new 0 0 80 80;" xml:space="preserve">
<style type="text/css">
	.st0{fill:#1D1F22;}
	.st1{fill:#06A8F2;}
</style>
<path class="st0" d="M32.8,9.6c-0.3,0-0.6,0-0.8,0.1c-1.3,0.3-2.1,1.2-2.8,2l0,0L21,24h-6.4c-0.6,0-1,0.3-1.3,0.7
	c-0.3,0.4-0.3,1,0,1.4s0.7,0.7,1.3,0.7h48.2c1.6,0,2.8,1.3,2.8,2.9v2.9c0,0.6,0.3,1,0.7,1.3c0.4,0.3,1,0.3,1.4,0s0.7-0.7,0.7-1.3
	v-2.9c0-3.2-2.6-5.8-5.7-5.8h-2.8c0-3.2-2.5-5.8-5.7-5.8H52c-0.6,0-1,0.3-1.3,0.7s-0.3,1,0,1.4s0.7,0.7,1.3,0.7h2.1
	c1.6,0,2.8,1.3,2.8,2.9h-5.1L35.3,10.5l0,0C34.6,9.9,33.6,9.6,32.8,9.6z M33.1,12.5c0.1,0,0.3,0.1,0.6,0.3l13.7,11.3H24.3l7.2-10.7
	l0,0l0,0c0.3-0.4,0.7-0.7,1-0.7C32.8,12.5,32.9,12.5,33.1,12.5z M11.7,18.3c-3.1,0-5.7,2.6-5.7,5.8v40.6c0,3.2,2.6,5.8,5.7,5.8h51
	c3.1,0,5.7-2.6,5.7-5.8v-2.9c0-0.6-0.3-1-0.7-1.3c-0.4-0.3-1-0.3-1.4,0s-0.7,0.7-0.7,1.3v2.9c0,1.6-1.3,2.9-2.8,2.9h-51
	c-1.6,0-2.8-1.3-2.8-2.9V24.1c0-1.6,1.3-2.9,2.8-2.9h7.1c0.6,0,1-0.3,1.3-0.7s0.3-1,0-1.4s-0.7-0.7-1.3-0.7h-7.2V18.3z M51.3,37.1
	c-3.5,0-6.8,1.9-8.6,5.1s-1.7,7,0,10.1s5.1,5.1,8.6,5.1h17c3.1,0,5.7-2.6,5.7-5.8v-8.7c0-3.2-2.5-5.8-5.7-5.8
	C68.3,37.1,51.3,37.1,51.3,37.1z M51.3,40h17c1.6,0,2.8,1.3,2.8,2.9v8.7c0,1.6-1.3,2.9-2.8,2.9h-17c-2.5,0-4.8-1.4-6.1-3.6
	c-1.3-2.2-1.3-5.1,0-7.2C46.5,41.4,48.8,40,51.3,40z M51.3,42.9c-2.3,0-4.3,2-4.3,4.3s2,4.3,4.3,4.3s4.3-2,4.3-4.3
	S53.6,42.9,51.3,42.9z M51.3,45.8c0.8,0,1.4,0.6,1.4,1.4c0,0.9-0.6,1.4-1.4,1.4s-1.4-0.6-1.4-1.4C49.9,46.4,50.5,45.8,51.3,45.8z"/>
<path class="st1" d="M51.7,23.9L35.3,10.5c-0.7-0.6-1.7-0.9-2.5-0.9c-0.3,0-0.6,0-0.9,0.1c-1.3,0.3-2.1,1.2-2.8,2L21,23.9
	c1.1,0,2.4,0,3.4,0l7.1-10.5c0.3-0.4,0.7-0.7,1-0.7c0.3-0.1,0.4-0.1,0.6-0.1c0.1,0,0.3,0.1,0.6,0.3L47.2,24
	C48.5,23.9,50.3,23.9,51.7,23.9z"/>
<path class="st0" d="M68.3,37.1h-17c-3.5,0-6.8,1.9-8.6,5.1c-1.8,3.2-1.7,7,0,10.1c1.7,3.2,5.1,5.1,8.6,5.1h17
	c3.1,0,5.7-2.6,5.7-5.8v-8.7C74,39.7,71.5,37.1,68.3,37.1z M71.2,51.6c0,1.6-1.3,2.9-2.8,2.9h-17c-2.5,0-4.8-1.4-6.1-3.6
	c-1.3-2.2-1.3-5.1,0-7.2c1.3-2.2,3.5-3.6,6.1-3.6h17c1.6,0,2.8,1.3,2.8,2.9V51.6z"/>
</svg>
