<?xml version="1.0" encoding="utf-8"?>
<!-- Generator: Adobe Illustrator 22.1.0, SVG Export Plug-In . SVG Version: 6.00 Build 0)  -->
<svg version="1.1" id="Слой_1" xmlns="http://www.w3.org/2000/svg" xmlns:xlink="http://www.w3.org/1999/xlink" x="0px" y="0px"
	 viewBox="0 0 202.1 36.8" style="enable-background:new 0 0 202.1 36.8;" xml:space="preserve">
<style type="text/css">
	.st0{fill:#1D1F22;}
	.st1{fill:#10D54C;}
	.st2{fill:#06A8F2;}
</style>
<g>
	<path class="st0" d="M7.4,6.2c3.7,0,6.6,0.7,8.6,2c2,1.3,3,3.4,3,6.2c0,1.8-0.4,3.2-1.2,4.3c-0.8,1.1-2,1.9-3.5,2.6
		c0.5,0.6,1,1.3,1.6,2.1c0.6,0.8,1.1,1.6,1.6,2.5c0.5,0.9,1.1,1.8,1.6,2.7c0.5,0.9,1,1.9,1.4,2.8h-6.3c-0.5-0.8-0.9-1.6-1.4-2.5
		c-0.5-0.8-1-1.7-1.4-2.4s-1-1.5-1.5-2.3c-0.5-0.7-1-1.4-1.4-1.9H5.7v9.1H0.1V6.8c1.2-0.2,2.5-0.4,3.8-0.5C5.2,6.2,6.4,6.2,7.4,6.2z
		 M7.8,11c-0.4,0-0.8,0-1.1,0c-0.3,0-0.6,0-0.9,0.1v6.8h1.6c2.1,0,3.6-0.3,4.5-0.8c0.9-0.5,1.4-1.4,1.4-2.7c0-1.2-0.5-2.1-1.4-2.6
		C10.9,11.2,9.6,11,7.8,11z"/>
	<path class="st0" d="M29.7,12c1.6,0,2.9,0.2,4,0.5c1.1,0.4,1.9,0.9,2.5,1.5c0.6,0.7,1.1,1.5,1.4,2.4s0.4,2,0.4,3.2v11.2
		c-0.8,0.2-1.8,0.4-3.2,0.6c-1.4,0.2-3,0.3-5,0.3c-1.2,0-2.3-0.1-3.3-0.3c-1-0.2-1.9-0.6-2.6-1.1c-0.7-0.5-1.3-1.1-1.7-1.9
		c-0.4-0.8-0.6-1.8-0.6-2.9c0-1.1,0.2-2,0.7-2.8c0.4-0.8,1-1.4,1.8-1.8c0.7-0.5,1.6-0.8,2.6-1c1-0.2,2-0.3,3-0.3
		c0.7,0,1.3,0,1.9,0.1s1,0.1,1.3,0.2v-0.5c0-0.9-0.3-1.6-0.8-2.2c-0.6-0.6-1.5-0.8-2.9-0.8c-0.9,0-1.8,0.1-2.7,0.2
		c-0.9,0.1-1.7,0.3-2.3,0.6l-0.7-4.3c0.3-0.1,0.7-0.2,1.2-0.3c0.5-0.1,1-0.2,1.5-0.3c0.6-0.1,1.1-0.2,1.7-0.2
		C28.4,12,29.1,12,29.7,12z M30.1,27.7c0.5,0,1,0,1.5,0c0.5,0,0.9-0.1,1.2-0.1v-4.1c-0.2,0-0.5-0.1-1-0.1c-0.4,0-0.8-0.1-1.2-0.1
		c-0.5,0-1,0-1.4,0.1c-0.4,0.1-0.8,0.2-1.2,0.3c-0.3,0.2-0.6,0.4-0.8,0.7c-0.2,0.3-0.3,0.6-0.3,1.1c0,0.8,0.3,1.4,0.8,1.7
		C28.4,27.5,29.1,27.7,30.1,27.7z"/>
	<path class="st0" d="M59.5,30.8c-0.5,0.1-1,0.3-1.7,0.4c-0.6,0.1-1.3,0.2-2,0.3s-1.4,0.2-2.1,0.2c-0.7,0.1-1.4,0.1-2,0.1
		c-1.6,0-3-0.2-4.2-0.7c-1.2-0.5-2.3-1.1-3.1-2c-0.8-0.9-1.5-1.9-1.9-3.1c-0.4-1.2-0.7-2.6-0.7-4.1c0-1.5,0.2-2.9,0.6-4.2
		c0.4-1.2,0.9-2.3,1.7-3.1c0.7-0.9,1.6-1.5,2.6-2c1-0.5,2.2-0.7,3.6-0.7c0.7,0,1.4,0.1,2,0.2c0.6,0.1,1.2,0.3,1.8,0.6V4.4l5.4-0.9
		V30.8z M47.4,21.8c0,1.7,0.4,3,1.1,4c0.7,1,1.8,1.5,3.3,1.5c0.5,0,0.9,0,1.3-0.1c0.4,0,0.7-0.1,1-0.1v-9.8
		c-0.3-0.2-0.8-0.4-1.3-0.5s-1.1-0.2-1.6-0.2C48.6,16.6,47.4,18.4,47.4,21.8z"/>
	<path class="st0" d="M70.4,7c0,1-0.3,1.8-1,2.3c-0.6,0.6-1.4,0.8-2.3,0.8c-0.9,0-1.6-0.3-2.3-0.8C64.3,8.8,64,8,64,7
		c0-1,0.3-1.8,1-2.3c0.6-0.6,1.4-0.8,2.3-0.8c0.9,0,1.6,0.3,2.3,0.8C70.1,5.3,70.4,6,70.4,7z M69.9,31.4h-5.4V12.5h5.4V31.4z"/>
	<path class="st0" d="M85.3,21.4c0-1.7-0.2-3-0.7-3.7c-0.4-0.7-1.2-1.1-2.3-1.1c-0.3,0-0.7,0-1,0.1c-0.4,0-0.7,0.1-1,0.1v14.6h-5.4
		V13.1c0.5-0.1,1-0.2,1.6-0.4c0.6-0.1,1.3-0.3,1.9-0.4s1.4-0.2,2.1-0.3c0.7-0.1,1.4-0.1,2.1-0.1c1.4,0,2.5,0.2,3.3,0.5
		c0.9,0.3,1.6,0.8,2.1,1.2c0.8-0.6,1.6-1,2.6-1.3c1-0.3,1.9-0.5,2.8-0.5c1.5,0,2.8,0.2,3.7,0.6c1,0.4,1.7,1,2.3,1.8
		c0.6,0.8,1,1.7,1.2,2.7c0.2,1.1,0.3,2.2,0.3,3.5v10.7h-5.4v-10c0-1.7-0.2-3-0.7-3.7c-0.4-0.7-1.2-1.1-2.3-1.1
		c-0.3,0-0.7,0.1-1.2,0.2s-0.9,0.3-1.3,0.5c0.2,0.6,0.3,1.1,0.3,1.7c0,0.6,0.1,1.3,0.1,2v10.3h-5.4V21.4z"/>
	<path class="st0" d="M111.8,7c0,1-0.3,1.8-1,2.3c-0.6,0.6-1.4,0.8-2.3,0.8c-0.9,0-1.6-0.3-2.3-0.8c-0.6-0.6-1-1.3-1-2.3
		c0-1,0.3-1.8,1-2.3c0.6-0.6,1.4-0.8,2.3-0.8c0.9,0,1.6,0.3,2.3,0.8C111.5,5.3,111.8,6,111.8,7z M111.3,31.4H106V12.5h5.4V31.4z"/>
	<path class="st0" d="M133.1,30.8c-0.5,0.1-1,0.3-1.7,0.4c-0.6,0.1-1.3,0.2-2,0.3c-0.7,0.1-1.4,0.2-2.1,0.2c-0.7,0.1-1.4,0.1-2,0.1
		c-1.6,0-3-0.2-4.2-0.7c-1.2-0.5-2.3-1.1-3.1-2s-1.5-1.9-1.9-3.1c-0.4-1.2-0.7-2.6-0.7-4.1c0-1.5,0.2-2.9,0.6-4.2
		c0.4-1.2,0.9-2.3,1.7-3.1c0.7-0.9,1.6-1.5,2.6-2c1-0.5,2.2-0.7,3.6-0.7c0.7,0,1.4,0.1,2,0.2c0.6,0.1,1.2,0.3,1.8,0.6V4.4l5.4-0.9
		V30.8z M120.9,21.8c0,1.7,0.4,3,1.1,4c0.7,1,1.8,1.5,3.3,1.5c0.5,0,0.9,0,1.3-0.1s0.7-0.1,1-0.1v-9.8c-0.3-0.2-0.8-0.4-1.3-0.5
		s-1.1-0.2-1.6-0.2C122.2,16.6,120.9,18.4,120.9,21.8z"/>
	<path class="st1" d="M143.4,28.6c0,1.1-0.3,1.9-1,2.5s-1.5,0.8-2.3,0.8c-0.9,0-1.6-0.3-2.3-0.8c-0.7-0.6-1-1.4-1-2.5s0.3-1.9,1-2.5
		c0.7-0.6,1.5-0.8,2.3-0.8c0.9,0,1.6,0.3,2.3,0.8C143,26.7,143.4,27.5,143.4,28.6z"/>
	<path class="st2" d="M158.4,17.3c-0.5-0.1-1-0.2-1.7-0.4c-0.6-0.1-1.3-0.2-2.1-0.2c-0.3,0-0.7,0-1.2,0.1c-0.5,0.1-0.8,0.1-1.1,0.2
		v14.5H147V13.5c1-0.3,2.1-0.7,3.4-1c1.3-0.3,2.8-0.5,4.4-0.5c0.3,0,0.6,0,1,0.1c0.4,0,0.8,0.1,1.2,0.1c0.4,0.1,0.8,0.1,1.2,0.2
		c0.4,0.1,0.8,0.2,1,0.3L158.4,17.3z"/>
	<path class="st2" d="M178.3,30.8c-0.9,0.3-2.1,0.5-3.5,0.7c-1.4,0.2-3,0.3-4.5,0.3c-1.6,0-2.9-0.2-4-0.6c-1.1-0.4-1.9-1-2.5-1.8
		c-0.6-0.8-1.1-1.7-1.3-2.8c-0.3-1.1-0.4-2.3-0.4-3.6V12.5h5.4v9.9c0,1.7,0.2,3,0.7,3.7c0.5,0.8,1.3,1.2,2.6,1.2
		c0.4,0,0.8,0,1.2-0.1s0.8-0.1,1.2-0.1V12.5h5.4V30.8z"/>
</g>
</svg>
