<svg viewBox="0 0 116.1 18.7"  version="1.1" xmlns="http://www.w3.org/2000/svg">
    <defs>
        <style>
            .star {
            fill: #0dd149;
            }

            .border {
            fill: #bebebe;
            }
        </style>
    </defs>
    <g id="stars-2">
        <path class="border" d="M10,2.3l2.3,4,0.3,0.5,0.5,0.1,4.6,0.9-3.1,3.4-0.4.5,0.1,0.5,0.5,4.6-4.3-1.9L10,14.7l-0.5.2L5.2,16.8l0.5-4.6,0.1-.5-0.4-.4L2.3,7.9,6.9,7l0.5-.1,0.3-.5L10,2.3M10,0L6.6,5.8,0,7.1,4.6,12,3.8,18.7,10,16l6.2,2.7-0.7-6.6L20,7.2,13.4,5.8,10,0h0Z"/>
        <path class="border" d="M34,2.3l2.3,4,0.3,0.5,0.5,0.1,4.6,0.9-3.1,3.4-0.4.5,0.1,0.5,0.5,4.6-4.3-1.9L34,14.7l-0.5.2-4.3,1.9,0.5-4.6,0.1-.5-0.4-.4L26.3,7.9,30.9,7l0.5-.1,0.3-.5L34,2.3M33.9,0L30.5,5.8,23.9,7.1,28.5,12l-0.8,6.7L33.9,16l6.2,2.7-0.7-6.6L44,7.2,37.4,5.8,33.9,0h0Z"/>
        <path class="border" d="M82,2.3l2.3,4,0.3,0.5,0.5,0.1,4.6,0.9-3.1,3.4-0.4.5,0.1,0.5,0.5,4.6-4.3-1.9L82,14.7l-0.5.2-4.3,1.9,0.5-4.6,0.1-.5-0.4-.4L74.3,7.9,78.9,7l0.5-.1,0.3-.5L82,2.3M82,0L78.6,5.8,72,7.1,76.6,12l-0.8,6.7L82,16l6.2,2.7-0.7-6.6,4.6-4.9L85.5,5.8,82,0h0Z"/>
        <path class="border" d="M106,2.3l2.3,4,0.3,0.5,0.5,0.1,4.6,0.9-3.1,3.4-0.4.4,0.1,0.5,0.5,4.6-4.3-1.9-0.5-.1-0.5.2-4.3,1.9,0.5-4.6,0.1-.5-0.4-.4L98.3,7.9l4.6-.9,0.5-.1,0.3-.5L106,2.3M106,0l-3.4,5.8L96,7.1l4.6,4.9-0.8,6.7L106,16l6.2,2.7-0.7-6.6,4.6-4.9-6.6-1.4L106,0h0Z"/>
        <path class="border" d="M58,2.3l2.3,4,0.3,0.5,0.5,0.1,4.6,0.9-3.1,3.4-0.4.5,0.1,0.5,0.5,4.6-4.3-1.9L58,14.7l-0.5.2-4.3,1.9,0.5-4.6,0.1-.5-0.4-.4L50.3,7.9,54.9,7l0.5-.1,0.3-.5L58,2.3M57.9,0L54.5,5.8,47.9,7.1,52.5,12l-0.8,6.7L57.9,16l6.2,2.7-0.7-6.6L68,7.2,61.4,5.8,57.9,0h0Z"/>
        <polygon class="star" points="10 0 13.4 5.8 20 7.2 15.4 12.1 16.2 18.8 10 16 3.8 18.8 4.6 12.1 0 7.2 6.6 5.8 10 0"/>
        <polygon class="star" points="34 0 37.4 5.8 44 7.2 39.4 12.1 40.2 18.8 34 16 27.8 18.8 28.6 12.1 24 7.2 30.6 5.8 34 0"/>
    </g>
</svg>
