<?xml version="1.0" encoding="utf-8"?>
<!-- Generator: Adobe Illustrator 22.1.0, SVG Export Plug-In . SVG Version: 6.00 Build 0)  -->
<svg version="1.1" id="Слой_1" xmlns="http://www.w3.org/2000/svg" xmlns:xlink="http://www.w3.org/1999/xlink" x="0px" y="0px"
	 viewBox="0 0 80 80" style="enable-background:new 0 0 80 80;" xml:space="preserve">
<style type="text/css">
	.st0{fill:#1D1F22;}
	.st1{fill:#10D54C;}
	.st2{fill:#06A8F2;}
</style>
<g>
	<g>
		<path class="st0" d="M40.2,74c-18.8,0-34-15.2-34-34s15.2-34,34-34s34,15.2,34,34S59,74,40.2,74z M40.2,8.9
			C23,8.9,9.1,22.8,9.1,40S23,71.1,40.2,71.1S71.4,57.2,71.4,40S57.5,8.9,40.2,8.9z"/>
		<path class="st0" d="M65.1,51.7c-0.2,0-0.3,0-0.5-0.1l-5.2-2.2c-0.7-0.3-1.1-1.2-0.7-1.8c0.3-0.7,1.2-1.1,1.8-0.7l5.2,2.2
			c0.7,0.3,1.1,1.2,0.7,1.8C66.2,51.4,65.7,51.7,65.1,51.7z M15.4,51.7c-0.5,0-1.1-0.3-1.3-0.9c-0.3-0.7,0.1-1.6,0.7-1.8l5.2-2.2
			c0.7-0.3,1.6,0.1,1.8,0.7c0.3,0.7-0.1,1.6-0.7,1.8l-5.2,2.2C15.8,51.7,15.6,51.7,15.4,51.7z M18.8,42h-5.6c-0.8,0-1.4-0.6-1.4-1.4
			c0-0.8,0.6-1.4,1.4-1.4h5.6c0.8,0,1.4,0.6,1.4,1.4C20.3,41.3,19.6,42,18.8,42z M67.2,41.4L67.2,41.4h-5.6c-0.8,0-1.4-0.6-1.4-1.4
			c0-0.7,0.6-1.4,1.4-1.4l0,0h5.6c0.8,0,1.4,0.6,1.4,1.4C68.6,40.8,67.9,41.4,67.2,41.4z M43.2,38.4c-0.3,0-0.7-0.1-1-0.4
			c-0.5-0.5-0.5-1.4,0-2l14-14c0.5-0.5,1.4-0.5,2,0s0.5,1.4,0,2L44.3,38C44,38.3,43.6,38.4,43.2,38.4z M20.6,33.3
			c-0.2,0-0.3-0.1-0.5-0.1L14.8,31c-0.7-0.3-1.1-1.2-0.7-1.8c0.3-0.7,1.2-1.1,1.8-0.7l5.2,2.2c0.7,0.3,1.1,1.2,0.7,1.8
			C21.7,32.9,21.1,33.3,20.6,33.3z M59.9,33.3c-0.5,0-1.1-0.3-1.3-0.9c-0.3-0.7,0.1-1.6,0.7-1.8l5.2-2.2c0.7-0.3,1.6,0.1,1.8,0.7
			c0.3,0.7-0.1,1.6-0.7,1.8l-5.2,2.2C60.2,33.3,60,33.3,59.9,33.3z M25.2,26.4c-0.3,0-0.7-0.1-1-0.4l-4-4c-0.5-0.5-0.5-1.4,0-2
			c0.5-0.5,1.4-0.5,2,0l4,4c0.5,0.5,0.5,1.4,0,2C26,26.3,25.6,26.4,25.2,26.4z M32.1,21.8c-0.5,0-1.1-0.3-1.3-0.9l-2.2-5.2
			c-0.3-0.7,0.1-1.6,0.7-1.8c0.7-0.3,1.6,0.1,1.8,0.7l2.2,5.2c0.3,0.7-0.1,1.6-0.7,1.8C32.5,21.8,32.3,21.8,32.1,21.8z M48.4,21.8
			c-0.2,0-0.3-0.1-0.5-0.1c-0.7-0.3-1.1-1.2-0.7-1.8l2.2-5.2c0.3-0.7,1.2-1.1,1.8-0.7c0.7,0.3,1.1,1.2,0.7,1.8L49.7,21
			C49.4,21.4,49,21.8,48.4,21.8z M40.1,20.7c-0.8,0-1.4-0.6-1.4-1.4v-5.6c0-0.8,0.6-1.4,1.4-1.4c0.7,0,1.4,0.6,1.4,1.4v5.6
			C41.5,20.1,40.9,20.7,40.1,20.7z"/>
		<path class="st1" d="M40.2,45.6c-3.1,0-5.6-2.5-5.6-5.6s2.5-5.6,5.6-5.6s5.6,2.5,5.6,5.6S43.4,45.6,40.2,45.6z M40.2,37.1
			c-1.6,0-2.9,1.3-2.9,2.9s1.3,2.9,2.9,2.9s2.9-1.3,2.9-2.9S41.8,37.1,40.2,37.1z"/>
		<path class="st2" d="M53,62.6H27.5c-0.8,0-1.4-0.6-1.4-1.4v-8.5c0-0.8,0.6-1.4,1.4-1.4H53c0.8,0,1.4,0.6,1.4,1.4v8.5
			C54.4,62,53.8,62.6,53,62.6z M28.9,59.9h22.6v-5.6H28.9V59.9z"/>
	</g>
</g>
</svg>
