<svg width="100%" height="100%" viewBox="0 0 191 53" fill="none" xmlns="http://www.w3.org/2000/svg" preserveAspectRatio="none"><rect width="190.8" height="53" rx="4.24" fill="white" data-color-group="0"/><path d="M54.2542 20.1509C51.2788 20.1509 49.4004 22.2998 49.4004 25.7109C49.4004 29.1221 51.2788 31.2709 54.2542 31.2709C57.2295 31.2709 59.1079 29.1221 59.1079 25.7109C59.1079 22.2998 57.2295 20.1509 54.2542 20.1509ZM54.2542 21.4132C56.3429 21.4132 57.6653 23.0812 57.6653 25.7109C57.6653 28.3406 56.3429 30.0087 54.2542 30.0087C52.1504 30.0087 50.843 28.3406 50.843 25.7109C50.843 23.0812 52.1504 21.4132 54.2542 21.4132ZM66.4764 24.4787V23.4418L59.9096 23.4268V24.4787H62.5243V31.0605H63.8768V24.4787H66.4764ZM74.0422 31.0605L70.2103 26.883L73.6365 23.4268H71.9985L68.918 26.5975H68.8879V23.4268H67.5655V31.0605H68.8879V27.2437H68.918L72.2991 31.0605H74.0422ZM78.9951 23.2314C77.9733 23.2314 77.0717 23.7273 76.666 24.5238H76.6359V23.4268H75.3285V33.8406H76.6509V29.9786H76.681C77.1017 30.745 77.9883 31.2409 79.0102 31.2409C80.9487 31.2409 82.1959 29.663 82.1959 27.2286C82.1959 24.7943 80.9487 23.2314 78.9951 23.2314ZM78.6646 24.2984C79.9719 24.2984 80.8134 25.4404 80.8134 27.2286C80.8134 29.0169 79.9719 30.174 78.6646 30.174C77.4023 30.174 76.5908 29.0469 76.5908 27.2286C76.5908 25.4254 77.4023 24.2984 78.6646 24.2984ZM85.3091 26.2519V23.4268H83.9867V31.0605H87.1725C89.0659 31.0605 90.1027 30.174 90.1027 28.6562C90.1027 27.1535 89.0659 26.2519 87.1725 26.2519H85.3091ZM92.5822 31.0605V23.4268H91.2598V31.0605H92.5822ZM85.3091 27.2737H87.0973C88.2093 27.2737 88.7653 27.7245 88.7653 28.6562C88.7653 29.5879 88.2093 30.0387 87.0973 30.0387H85.3091V27.2737ZM100.229 24.4787V23.4418L93.6618 23.4268V24.4787H96.2765V31.0605H97.6289V24.4787H100.229ZM102.64 26.2519V23.4268H101.318V31.0605H104.503C106.397 31.0605 107.434 30.174 107.434 28.6562C107.434 27.1535 106.397 26.2519 104.503 26.2519H102.64ZM102.64 27.2737H104.428C105.54 27.2737 106.096 27.7245 106.096 28.6562C106.096 29.5879 105.54 30.0387 104.428 30.0387H102.64V27.2737ZM115.623 23.2164C113.415 23.2164 112.032 24.7642 112.032 27.2437C112.032 29.7231 113.415 31.2709 115.623 31.2709C117.487 31.2709 118.734 29.9936 118.884 28.2505H117.502C117.412 29.3475 116.66 30.189 115.608 30.189C114.256 30.189 113.43 29.077 113.43 27.2437C113.43 25.4254 114.256 24.2984 115.608 24.2984C116.66 24.2984 117.412 25.0497 117.502 26.1317H118.884C118.734 24.4186 117.457 23.2164 115.623 23.2164ZM126.1 31.0605V23.4268H124.778V26.9882C124.282 27.1535 123.651 27.2737 123.004 27.2737C121.847 27.2737 121.246 26.7177 121.246 25.741V23.4268H119.924V25.9363C119.924 27.439 120.886 28.3106 122.689 28.3106C123.47 28.3106 124.147 28.2054 124.778 28.0251V31.0605H126.1ZM131.487 30.2491C130.24 30.2491 129.278 29.3925 129.218 27.5142H134.928C134.928 26.853 134.883 26.312 134.778 25.8762C134.387 24.2383 133.17 23.2164 131.442 23.2164C129.218 23.2164 127.896 24.8844 127.896 27.1385C127.896 29.633 129.233 31.2709 131.487 31.2709C133.441 31.2709 134.598 30.1138 134.853 28.7764H133.501C133.32 29.633 132.599 30.2491 131.487 30.2491ZM131.442 24.2383C132.614 24.2383 133.486 25.0197 133.621 26.5073H129.233C129.368 25.0497 130.225 24.2383 131.442 24.2383ZM141.935 24.4787V23.4418L135.368 23.4268V24.4787H137.982V31.0605H139.335V24.4787H141.935Z" fill="black" data-color-group="1"/></svg>