<svg width="28" height="16" viewBox="0 0 28 16" xmlns="http://www.w3.org/2000/svg"><path d="M3.6 11.512h2.448V4.008l-.064-.016q-.32.704-.928 1.104-.608.4-1.328.4V4.168Q4.736 4.104 5.4 3.6q.664-.504.936-1.208H7.44v9.12h2.416v1.248H3.6v-1.248zM16.272 7.32v.144q.88.288 1.424.96.544.672.544 1.696 0 .704-.304 1.224t-.792.872q-.488.352-1.12.528-.632.176-1.288.176-.672 0-1.296-.176t-1.088-.528q-.464-.352-.744-.872-.28-.52-.28-1.224 0-1.024.544-1.696.544-.672 1.424-.96V7.32q-.784-.32-1.272-.856t-.488-1.528q0-.672.248-1.176.248-.504.688-.856.44-.352 1.032-.528.592-.176 1.28-.176.688 0 1.28.176.592.176 1.032.528.44.352.688.856.248.504.248 1.176 0 .992-.488 1.528t-1.272.856zm-1.488-3.968q-.336 0-.672.096t-.592.312q-.256.216-.416.552-.16.336-.16.8t.16.8q.16.336.4.544.24.208.52.304t.536.096h.448q.256 0 .536-.104t.52-.312q.24-.208.4-.536.16-.328.16-.792t-.16-.8q-.16-.336-.416-.552-.256-.216-.592-.312-.336-.096-.672-.096zm.032 8.416q.352 0 .712-.104t.632-.32q.272-.216.448-.56.176-.344.176-.84t-.176-.856q-.176-.36-.44-.584-.264-.224-.552-.336-.288-.112-.528-.112h-.608q-.24 0-.528.112-.288.112-.552.336-.264.224-.44.584t-.176.856q0 .496.176.84t.456.56q.28.216.648.32.368.104.752.104zm9.344-7.504V7.4h2.928v1.36H24.16v2.976h-1.392V8.76h-2.912V7.4h2.912V4.264h1.392z"/></svg>