<svg width="240.76" height="73" viewBox="0 0 240.76 73" xmlns="http://www.w3.org/2000/svg"><path d="M8.162 8.112c-.704 1.738-1.32 3.718-1.496 4.84h-.22c-.176-1.122-.836-3.19-2.024-5.984L3.344 4.394H.22L4.972 15.46l-1.386 3.19h2.97l5.918-14.256H9.658zm13.024 6.204h-2.42c.22 2.2-.858 2.728-1.892 2.728-1.54 0-2.42-1.078-2.42-3.96 0-2.728.814-3.938 2.376-3.938 1.166 0 2.178.726 1.892 2.618h2.442c.308-2.816-1.408-4.554-4.334-4.554-3.454 0-5.236 2.376-5.236 5.874 0 3.74 1.782 5.874 5.236 5.874 3.212 0 4.598-1.958 4.356-4.642zm6.666 4.334V9.586h3.014v-2.09H22.11v2.09h3.014v9.064zm4.4-7.722h2.42c-.22-1.056.352-1.87 1.738-1.87 1.232 0 1.848.616 1.848 1.936v.616c-2.794.132-6.512.506-6.512 4.114 0 1.54 1.078 3.146 3.278 3.146 1.958 0 2.904-1.078 3.388-2.332l.242.066c-.242.836-.374 1.518-.374 1.848v.198h2.684v-7.48c0-2.42-.924-3.894-4.268-3.894-3.322 0-4.708 1.606-4.444 3.652zM36.058 17c-1.1 0-1.76-.704-1.76-1.716 0-1.254.924-2.156 3.96-2.266v.946c0 1.562-.66 3.036-2.2 3.036zm10.186 1.65v-4.598h3.916v4.598h2.75V7.496h-2.75v4.488h-3.916V7.496h-2.75V18.65zm13.97.308c3.322 0 5.214-2.112 5.214-5.852 0-3.762-1.892-5.874-5.214-5.874-3.322 0-5.214 2.112-5.214 5.874 0 3.74 1.892 5.852 5.214 5.852zm0-1.914c-1.628 0-2.354-1.122-2.354-3.938 0-2.794.726-3.96 2.354-3.96 1.606 0 2.354 1.166 2.354 3.96 0 2.816-.748 3.938-2.354 3.938zm7.304 1.606h4.928c2.288 0 4.422-.616 4.422-3.124 0-1.078-.704-2.398-2.816-2.53v-.22c1.694-.33 2.398-1.518 2.398-2.508 0-2.002-1.562-2.772-3.806-2.772h-5.126zm2.75-1.958V14.03h2.244c.836 0 1.606.286 1.606 1.32 0 .968-.638 1.342-1.672 1.342zm0-4.62V9.454h1.914c.924 0 1.54.308 1.54 1.254 0 .968-.748 1.364-1.518 1.364zM82.17 18.65l2.068-4.29c.726-1.496 1.518-3.85 1.76-4.774l.264.066c-.242.968-.44 3.476-.44 5.06v3.938h2.728V7.496h-3.344l-2.068 4.29c-.682 1.43-1.518 3.85-1.76 4.774l-.264-.066c.242-.968.44-3.476.44-5.06V7.496h-2.706V18.65zm13.662 0V9.586h3.014v-2.09H90.09v2.09h3.014v9.064zm13.442-3.718h-2.42c.11 1.562-.836 2.178-2.002 2.178-1.518 0-2.398-1.32-2.398-3.652h6.798c.066-.44.088-1.078.088-1.474 0-2.596-1.342-4.774-4.554-4.774-3.586 0-5.17 2.64-5.17 5.874 0 3.3 1.54 5.874 5.126 5.874 2.926 0 4.73-1.54 4.532-4.026zm-4.488-5.896c1.364 0 2.068.88 2.068 2.662v.132h-4.378c.044-1.76.858-2.794 2.31-2.794zm13.904 9.614V9.586h3.652v9.064h2.75V7.496h-9.152V18.65zm14.3-1.562c-1.628 0-2.354-1.122-2.354-3.938 0-2.794.726-3.96 2.354-3.96 1.606 0 2.354 1.166 2.354 3.96 0 2.816-.748 3.938-2.354 3.938zm-2.398-9.592h-2.86v15.07h2.86v-3.454c0-1.012-.176-1.694-.484-2.53l.264-.044c.352 1.034 1.276 2.42 3.388 2.42 2.486 0 4.444-1.826 4.444-5.808 0-3.85-1.672-5.874-4.378-5.874-2.156 0-3.036 1.43-3.388 2.42l-.264-.044c.22-.594.418-1.276.418-2.046zm13.024 11.154l2.068-4.29c.726-1.496 1.518-3.85 1.76-4.774l.264.066c-.242.968-.44 3.476-.44 5.06v3.938h2.728V7.496h-3.344l-2.068 4.29c-.682 1.43-1.518 3.85-1.76 4.774l-.264-.066c.242-.968.44-3.476.44-5.06V7.496h-2.706V18.65zm7.964-2.178v2.156c.506.066.968.11 1.386.11 2.772 0 3.146-1.716 3.234-7.854l.022-1.298h2.574v9.064h2.706V7.496h-7.832l-.044 2.904c-.088 5.038-.22 6.116-1.518 6.116-.154 0-.33-.022-.528-.044zm17.226 2.486c3.322 0 5.214-2.112 5.214-5.852 0-3.762-1.892-5.874-5.214-5.874-3.322 0-5.214 2.112-5.214 5.874 0 3.74 1.892 5.852 5.214 5.852zm0-1.914c-1.628 0-2.354-1.122-2.354-3.938 0-2.794.726-3.96 2.354-3.96 1.606 0 2.354 1.166 2.354 3.96 0 2.816-.748 3.938-2.354 3.938zm12.034 1.606h2.75v-4.62h.44c1.122 0 1.496.44 1.804 1.43.396 1.298.814 2.596 1.298 3.19h3.058c-.88-1.144-1.364-2.574-1.826-3.784-.418-1.122-.924-1.606-2.244-1.782v-.22c1.166-.198 1.606-.66 2.068-1.694.572-1.232.858-2.64 1.87-3.674h-2.926c-.572.726-.968 2.112-1.386 3.388-.264.792-.726 1.188-1.54 1.188h-.616V7.496h-2.75v4.576h-.616c-.814 0-1.276-.396-1.54-1.188-.418-1.276-.814-2.662-1.386-3.388h-2.926c1.012 1.034 1.298 2.442 1.87 3.674.462 1.034.902 1.496 2.068 1.694v.22c-1.32.176-1.826.66-2.244 1.782-.462 1.21-.946 2.64-1.826 3.784h3.058c.484-.594.902-1.892 1.298-3.19.308-.99.682-1.43 1.804-1.43h.44zm19.228-3.718h-2.42c.11 1.562-.836 2.178-2.002 2.178-1.518 0-2.398-1.32-2.398-3.652h6.798c.066-.44.088-1.078.088-1.474 0-2.596-1.342-4.774-4.554-4.774-3.586 0-5.17 2.64-5.17 5.874 0 3.3 1.54 5.874 5.126 5.874 2.926 0 4.73-1.54 4.532-4.026zm-4.488-5.896c1.364 0 2.068.88 2.068 2.662v.132h-4.378c.044-1.76.858-2.794 2.31-2.794zm9.504 9.614v-4.598H209v4.598h2.75V7.496H209v4.488h-3.916V7.496h-2.75V18.65zm12.628 0l2.068-4.29c.726-1.496 1.518-3.85 1.76-4.774l.264.066c-.242.968-.44 3.476-.44 5.06v3.938h2.728V7.496h-3.344l-2.068 4.29c-.682 1.43-1.518 3.85-1.76 4.774l-.264-.066c.242-.968.44-3.476.44-5.06V7.496h-2.706V18.65zm18.128-3.718h-2.42c.11 1.562-.836 2.178-2.002 2.178-1.518 0-2.398-1.32-2.398-3.652h6.798c.066-.44.088-1.078.088-1.474 0-2.596-1.342-4.774-4.554-4.774-3.586 0-5.17 2.64-5.17 5.874 0 3.3 1.54 5.874 5.126 5.874 2.926 0 4.73-1.54 4.532-4.026zm-4.488-5.896c1.364 0 2.068.88 2.068 2.662v.132h-4.378c.044-1.76.858-2.794 2.31-2.794zM4.642 42.86l2.068-4.29c.726-1.496 1.518-3.85 1.76-4.774l.264.066c-.242.968-.44 3.476-.44 5.06v3.938h2.728V31.706H7.678l-2.068 4.29c-.682 1.43-1.518 3.85-1.76 4.774l-.264-.066c.242-.968.44-3.476.44-5.06v-3.938H1.32V42.86zm18.084.308c3.322 0 5.214-2.112 5.214-5.852 0-3.762-1.892-5.874-5.214-5.874-3.322 0-5.214 2.112-5.214 5.874 0 3.74 1.892 5.852 5.214 5.852zm0-1.914c-1.628 0-2.354-1.122-2.354-3.938 0-2.794.726-3.96 2.354-3.96 1.606 0 2.354 1.166 2.354 3.96 0 2.816-.748 3.938-2.354 3.938zm11.726 1.606v-9.064h3.014v-2.09H28.71v2.09h3.014v9.064zm7.304 0v-4.62h.77c1.122 0 1.474.44 1.804 1.43.418 1.298.924 2.596 1.408 3.19h3.058c-.88-1.144-1.474-2.574-1.936-3.784-.418-1.122-.924-1.606-2.244-1.782v-.22c1.166-.198 1.606-.66 2.068-1.694.572-1.232.968-2.64 1.98-3.674h-2.926c-.572.726-1.078 2.112-1.496 3.388-.264.792-.726 1.188-1.54 1.188h-.946v-4.576h-2.75V42.86zm13.728-1.562c-1.628 0-2.354-1.122-2.354-3.938 0-2.794.726-3.96 2.354-3.96 1.606 0 2.354 1.166 2.354 3.96 0 2.816-.748 3.938-2.354 3.938zm-2.398-9.592h-2.86v15.07h2.86v-3.454c0-1.012-.176-1.694-.484-2.53l.264-.044c.352 1.034 1.276 2.42 3.388 2.42 2.486 0 4.444-1.826 4.444-5.808 0-3.85-1.672-5.874-4.378-5.874-2.156 0-3.036 1.43-3.388 2.42l-.264-.044c.22-.594.418-1.276.418-2.046zm14.476 11.462c3.322 0 5.214-2.112 5.214-5.852 0-3.762-1.892-5.874-5.214-5.874-3.322 0-5.214 2.112-5.214 5.874 0 3.74 1.892 5.852 5.214 5.852zm0-1.914c-1.628 0-2.354-1.122-2.354-3.938 0-2.794.726-3.96 2.354-3.96 1.606 0 2.354 1.166 2.354 3.96 0 2.816-.748 3.938-2.354 3.938zm8.976-13.002v1.914c1.056.22 2.134.352 3.19.352 1.034 0 2.09-.132 3.168-.352v-1.914a15.82 15.82 0 0 1-3.168.33c-1.056 0-2.134-.11-3.19-.33zm1.65 14.608l2.068-4.29c.726-1.496 1.518-3.85 1.76-4.774l.264.066c-.242.968-.44 3.476-.44 5.06v3.938h2.728V31.706h-3.344l-2.068 4.29c-.682 1.43-1.518 3.85-1.76 4.774l-.264-.066c.242-.968.44-3.476.44-5.06v-3.938h-2.706V42.86zm13.662 0v-9.064h3.014v-2.09h-8.756v2.09h3.014v9.064zm13.442-3.718h-2.42c.11 1.562-.836 2.178-2.002 2.178-1.518 0-2.398-1.32-2.398-3.652h6.798c.066-.44.088-1.078.088-1.474 0-2.596-1.342-4.774-4.554-4.774-3.586 0-5.17 2.64-5.17 5.874 0 3.3 1.54 5.874 5.126 5.874 2.926 0 4.73-1.54 4.532-4.026zm-4.488-5.896c1.364 0 2.068.88 2.068 2.662v.132h-4.378c.044-1.76.858-2.794 2.31-2.794zM121 38.526h-2.42c.22 2.2-.858 2.728-1.892 2.728-1.54 0-2.42-1.078-2.42-3.96 0-2.728.814-3.938 2.376-3.938 1.166 0 2.178.726 1.892 2.618h2.442c.308-2.816-1.408-4.554-4.334-4.554-3.454 0-5.236 2.376-5.236 5.874 0 3.74 1.782 5.874 5.236 5.874 3.212 0 4.598-1.958 4.356-4.642zm7.986-6.82v5.104a4.975 4.975 0 0 1-1.738.308c-1.012 0-1.804-.242-1.804-1.408v-4.004h-2.75v4.246c0 2.574 1.826 3.234 3.74 3.234.902 0 1.804-.154 2.552-.374v4.048h2.75V31.706zm14.498 7.436h-2.42c.11 1.562-.836 2.178-2.002 2.178-1.518 0-2.398-1.32-2.398-3.652h6.798c.066-.44.088-1.078.088-1.474 0-2.596-1.342-4.774-4.554-4.774-3.586 0-5.17 2.64-5.17 5.874 0 3.3 1.54 5.874 5.126 5.874 2.926 0 4.73-1.54 4.532-4.026zm-4.488-5.896c1.364 0 2.068.88 2.068 2.662v.132h-4.378c.044-1.76.858-2.794 2.31-2.794zm11.176 9.614v-9.064h3.014v-2.09h-8.756v2.09h3.014v9.064zM2.926 63.638H.616a5.06 5.06 0 0 0-.044.616c0 2.09 1.716 3.124 4.356 3.124 2.794 0 4.774-1.056 4.774-3.366 0-1.276-.924-2.398-2.442-2.552v-.286c1.232-.176 2.156-1.144 2.156-2.508 0-2.112-2.002-3.014-4.4-3.014-2.464 0-4.312.924-4.312 3.146 0 .176.022.396.044.594h2.244c-.022-.11-.022-.198-.022-.286 0-1.188.88-1.518 1.936-1.518 1.144 0 1.848.44 1.848 1.474 0 .968-.704 1.43-1.672 1.43h-1.54v1.958h1.606c1.078 0 1.826.374 1.826 1.43 0 1.034-.792 1.584-1.958 1.584-1.122 0-2.112-.44-2.112-1.54 0-.088 0-.198.022-.286zm8.712-4.29h2.42c-.22-1.056.352-1.87 1.738-1.87 1.232 0 1.848.616 1.848 1.936v.616c-2.794.132-6.512.506-6.512 4.114 0 1.54 1.078 3.146 3.278 3.146 1.958 0 2.904-1.078 3.388-2.332l.242.066c-.242.836-.374 1.518-.374 1.848v.198h2.684v-7.48c0-2.42-.924-3.894-4.268-3.894-3.322 0-4.708 1.606-4.444 3.652zm3.806 6.072c-1.1 0-1.76-.704-1.76-1.716 0-1.254.924-2.156 3.96-2.266v.946c0 1.562-.66 3.036-2.2 3.036zm14.058-6.424l-.198-.132c.176-.638.308-1.364.352-2.002l.11-1.518h5.676v-2.53h-7.766l-.616 7.656 2.618.506c.352-.726.924-1.144 1.738-1.144 1.056 0 2.09.704 2.09 2.618 0 1.87-.968 2.662-2.134 2.662-1.188 0-1.914-.77-1.914-1.782 0-.198.022-.396.088-.616h-2.684a4.44 4.44 0 0 0-.132 1.034c0 2.354 2.156 3.63 4.554 3.63 3.036 0 5.104-1.628 5.104-4.972 0-3.212-1.98-4.598-4.048-4.598-1.276 0-2.002.308-2.838 1.188zm25.894-3.08h-3.85l-1.32 5.236c-.374 1.496-.616 2.816-.66 3.476h-.264c-.066-.638-.308-2.024-.638-3.476l-1.21-5.236H43.56l-.902 11.154h2.596c.154-1.958.33-4.048.418-5.896.044-1.056.088-2.398.044-3.19h.264c.088.836.22 1.518.924 4.378.33 1.364.616 2.75.968 4.114h3.036l1.188-4.664c.352-1.386.638-2.794.77-3.828h.264c-.044.814 0 2.068.044 3.168.066 1.848.242 3.938.418 5.918h2.684zm6.622 11.154l2.068-4.29c.726-1.496 1.518-3.85 1.76-4.774l.264.066c-.242.968-.44 3.476-.44 5.06v3.938h2.728V55.916h-3.344l-2.068 4.29c-.682 1.43-1.518 3.85-1.76 4.774l-.264-.066c.242-.968.44-3.476.44-5.06v-3.938h-2.706V67.07zm11.77 0v-4.598h3.916v4.598h2.75V55.916h-2.75v4.488h-3.916v-4.488h-2.75V67.07zm13.486-2.09h-.264c-.088-.836-.308-2.31-1.254-5.588l-.99-3.476H81.95l3.74 12.166-.968 2.904h2.838l4.598-15.07H89.43l-.968 3.608c-.792 2.882-1.056 4.378-1.188 5.456zm11.022 2.09v-9.064h3.014v-2.09h-8.756v2.09h3.014v9.064z"/></svg>