<svg width="100%" height="100%" viewBox="0 0 97 76" fill="none" xmlns="http://www.w3.org/2000/svg" preserveAspectRatio="none"><path d="M8.63858 0.674454L87.9347 0.830677C89.4442 0.833651 90.5428 0.836364 91.4081 0.927646C92.2641 1.01796 92.849 1.19161 93.341 1.51053C94.2604 2.10653 95.0244 3.06846 95.5068 4.27477C95.7722 4.93852 95.9122 5.72363 95.9817 6.83525C96.0514 7.94968 96.0489 9.3585 96.0451 11.2649L96.021 23.4822C96.0173 25.3887 96.0143 26.7975 95.9402 27.9116C95.8663 29.023 95.7232 29.8075 95.4552 30.4702C94.968 31.6746 94.2002 32.6335 93.2785 33.2259C92.7853 33.5429 92.1997 33.7142 91.3433 33.8012C90.4777 33.889 89.3791 33.8874 87.8696 33.8844L8.57346 33.7282C7.06392 33.7253 5.96536 33.7225 5.10008 33.6313C4.244 33.5409 3.65912 33.3673 3.16715 33.0484C2.24779 32.4524 1.48378 31.4904 1.00135 30.2841C0.735904 29.6204 0.595901 28.8353 0.526406 27.7237C0.456735 26.6092 0.459296 25.2004 0.463052 23.294L0.487122 11.0767C0.490878 9.17024 0.493868 7.76142 0.567929 6.64727C0.641803 5.53593 0.784899 4.75138 1.05296 4.08868C1.54014 2.88428 2.30793 1.92537 3.22964 1.333C3.72285 1.01602 4.30842 0.844674 5.16484 0.757737C6.03048 0.669864 7.12904 0.67148 8.63858 0.674454Z" fill="black" stroke="white" stroke-width="0.883247" data-color-group="0"/><mask id="mask0_717_19054" style="mask-type:alpha" maskUnits="userSpaceOnUse" x="9" y="4" width="78" height="27"><rect width="77.1532" height="25.7717" transform="matrix(0.999998 0.00197427 -0.00196597 0.999998 9.70508 4.53406)" fill="#C4C4C4" data-color-group="1"/></mask><g mask="url(#mask0_717_19054)"><path fill-rule="evenodd" clip-rule="evenodd" d="M33.1181 11.0541L33.6435 11.0515C33.734 11.0623 33.8257 11.0542 33.913 11.0278C34.0002 11.0014 34.081 10.9572 34.1503 10.8981C34.2196 10.8389 34.2759 10.7661 34.3156 10.6841C34.3554 10.6021 34.3777 10.5128 34.3811 10.4218C34.3793 10.0596 34.1054 9.82712 33.6431 9.82947C33.5503 9.817 33.4561 9.82323 33.3658 9.84778C33.2755 9.87233 33.1911 9.91471 33.1174 9.97241C33.0438 10.0301 32.9825 10.102 32.9371 10.1837C32.8918 10.2655 32.8633 10.3555 32.8533 10.4485L32.2764 10.4515C32.2855 10.2827 32.3292 10.1177 32.4049 9.96661C32.4806 9.81552 32.5865 9.68161 32.7162 9.57322C32.8459 9.46483 32.9966 9.38427 33.1588 9.33658C33.3209 9.28889 33.4912 9.27507 33.659 9.29599C34.4326 9.29205 34.9795 9.72208 34.9827 10.3451C34.9856 10.5538 34.9167 10.7572 34.7876 10.9213C34.6586 11.0854 34.4771 11.2003 34.2734 11.2468L34.2737 11.2931C34.5154 11.3026 34.7435 11.4073 34.9082 11.5844C35.0729 11.7615 35.1607 11.9966 35.1524 12.2382C35.1354 12.4119 35.0839 12.5805 35.0008 12.7341C34.9178 12.8877 34.8049 13.0232 34.6688 13.1326C34.5326 13.242 34.376 13.3232 34.2081 13.3713C34.0402 13.4195 33.8643 13.4336 33.6909 13.413C33.5173 13.4375 33.3405 13.4269 33.1711 13.3817C33.0017 13.3366 32.8431 13.2578 32.7048 13.15C32.5666 13.0423 32.4514 12.9079 32.3662 12.7547C32.2811 12.6016 32.2276 12.4328 32.2091 12.2586L32.7949 12.2556C32.8322 12.6311 33.1788 12.8716 33.6881 12.869C34.1974 12.8664 34.5285 12.5926 34.5266 12.2089C34.5246 11.8198 34.2102 11.5817 33.6629 11.5845L33.1208 11.5872L33.1181 11.0541ZM24.1612 9.43284C24.2292 10.2645 23.9701 11.0898 23.4389 11.7336C23.1846 12.053 22.8612 12.3105 22.4929 12.4868C22.1245 12.6632 21.721 12.7537 21.3126 12.7516C21.2845 12.3516 21.3356 11.9501 21.4629 11.5699C21.5902 11.1897 21.7912 10.8382 22.0545 10.5357C22.593 9.91648 23.3452 9.5227 24.1612 9.43284ZM25.6822 15.4807C25.4133 15.9599 25.2701 16.4991 25.2658 17.0484C25.2696 17.6663 25.4553 18.2693 25.7998 18.7824C26.1442 19.2954 26.6322 19.6958 27.2028 19.9336C26.9827 20.6615 26.6487 21.35 26.2133 21.9737C25.6288 22.8571 25.0157 23.7204 24.0356 23.7413C23.5696 23.7544 23.2542 23.6221 22.9256 23.4842C22.5829 23.3403 22.2257 23.1904 21.6681 23.1933C21.0766 23.1963 20.7051 23.3548 20.3468 23.5076C20.0371 23.6397 19.7373 23.7676 19.314 23.7873C18.3807 23.8266 17.6624 22.856 17.0476 21.987C15.8186 20.2121 14.8522 16.9786 16.1146 14.7686C16.4059 14.2392 16.8295 13.7941 17.3441 13.4769C17.8587 13.1597 18.4467 12.9811 19.0509 12.9585C19.5803 12.9449 20.0893 13.1462 20.5356 13.3227C20.8768 13.4577 21.1814 13.5782 21.4304 13.5769C21.6492 13.5758 21.9441 13.4571 22.2877 13.3188C22.8291 13.1009 23.4915 12.8342 24.1683 12.9017C24.6868 12.9153 25.1949 13.0495 25.6524 13.2936C26.1099 13.5378 26.5041 13.8852 26.8037 14.3082C26.3369 14.5983 25.9511 15.0016 25.6822 15.4807ZM36.8332 21.4895L33.7163 21.5054L32.9789 23.718L31.6587 23.7247L34.5696 15.5379L35.9412 15.5309L38.9351 23.6876L37.5923 23.6945L36.8332 21.4895ZM34.0339 20.4845L36.5046 20.472L35.2684 16.8935L35.2343 16.8937L34.0339 20.4845ZM42.8239 23.7309C44.3203 23.7232 45.3059 22.5287 45.2965 20.6772C45.2871 18.8309 44.2836 17.6407 42.7705 17.6484C42.3883 17.6381 42.0104 17.7314 41.6771 17.9186C41.3437 18.1058 41.0674 18.3797 40.8775 18.7114L40.855 18.7115L40.8499 17.7205L39.6654 17.7266L39.7056 25.6554L40.9294 25.6492L40.9144 22.6982L40.9427 22.6981C41.1276 23.0294 41.4021 23.302 41.7348 23.4846C42.0675 23.6673 42.4449 23.7526 42.8239 23.7309ZM42.4529 18.6924C43.4047 18.6876 44.0325 19.4774 44.0386 20.6836C44.0448 21.9008 43.425 22.6912 42.4733 22.6961C41.5382 22.7008 40.9052 21.9001 40.8991 20.6996C40.8931 19.5101 41.5179 18.6972 42.4529 18.6924ZM51.8585 20.6438C51.8679 22.4953 50.8823 23.6898 49.3859 23.6974C49.0069 23.7192 48.6295 23.6338 48.2968 23.4512C47.9641 23.2685 47.6896 22.9959 47.5047 22.6646L47.4764 22.6648L47.4914 25.6158L46.2676 25.622L46.2274 17.6932L47.4119 17.6871L47.4169 18.6781L47.4394 18.6779C47.6294 18.3463 47.9057 18.0723 48.239 17.8852C48.5724 17.698 48.9502 17.6046 49.3324 17.615C50.8456 17.6073 51.8491 18.7975 51.8585 20.6438ZM50.6006 20.6502C50.5945 19.444 49.9667 18.6542 49.0149 18.659C48.0799 18.6638 47.4551 19.4767 47.4611 20.6662C47.4672 21.8667 48.1002 22.6674 49.0353 22.6626C49.987 22.6578 50.6068 21.8674 50.6006 20.6502ZM58.1609 22.6558C57.0844 22.6613 56.2939 22.1332 56.1991 21.3233L54.9464 21.3296C55.033 22.8073 56.2622 23.7361 58.0756 23.7268C60.0139 23.717 61.2276 22.7532 61.2199 21.2244C61.2138 20.0291 60.5133 19.3592 58.8335 18.9712L57.9314 18.7547C56.8761 18.4999 56.4435 18.1621 56.4406 17.5844C56.4369 16.8595 57.1089 16.358 58.0948 16.353C59.0806 16.3479 59.7577 16.8368 59.8358 17.6519L61.0712 17.6456C61.0241 16.2359 59.8346 15.2734 58.1067 15.2822C56.3608 15.2911 55.1361 16.2658 55.1433 17.6758C55.1491 18.8145 55.8497 19.5128 57.3532 19.8676L58.4142 20.1173C59.4753 20.3722 59.9249 20.7497 59.9281 21.384C59.9318 22.1146 59.1924 22.6505 58.1609 22.6558ZM63.8355 16.1934L63.8426 17.6033L64.9764 17.5975L64.9813 18.566L63.8475 18.5718L63.8642 21.8563C63.8668 22.3665 64.095 22.6032 64.5934 22.6006C64.728 22.5976 64.8623 22.5875 64.9958 22.5703L65.0007 23.5329C64.7769 23.5759 64.5492 23.596 64.3213 23.593C63.1142 23.5991 62.6412 23.1484 62.6353 21.993L62.618 18.578L61.7511 18.5824L61.7462 17.614L62.613 17.6096L62.6059 16.1996L63.8355 16.1934ZM68.4619 17.5063C66.7391 17.5151 65.6403 18.6986 65.6498 20.5732C65.6593 22.4529 66.7591 23.6202 68.4929 23.6113C70.2273 23.6025 71.3152 22.4241 71.3056 20.5444C71.2961 18.6698 70.1905 17.4975 68.4619 17.5063ZM68.467 18.5139C69.4586 18.5089 70.0522 19.2648 70.0587 20.5508C70.0652 21.8418 69.4794 22.598 68.4878 22.603C67.4961 22.6081 66.9033 21.8579 66.8967 20.5669C66.8902 19.2867 67.4754 18.519 68.467 18.5139ZM72.2981 17.5603L73.4653 17.5544L73.4704 18.5684L73.4987 18.5683C73.5761 18.2512 73.7603 17.9703 74.0205 17.773C74.2807 17.5756 74.6009 17.4738 74.9273 17.4846C75.0684 17.4834 75.2091 17.498 75.3468 17.5281L75.3526 18.672C75.1743 18.6185 74.9885 18.5945 74.8024 18.6009C74.6246 18.5946 74.4475 18.6268 74.2833 18.6953C74.1192 18.7639 73.9718 18.8671 73.8513 18.998C73.7308 19.1288 73.6401 19.2841 73.5853 19.4533C73.5306 19.6225 73.5131 19.8015 73.5342 19.9781L73.5521 23.512L72.3283 23.5182L72.2981 17.5603ZM78.4509 23.5606C79.7994 23.5537 80.8497 22.8061 81.0088 21.7237L79.8468 21.7296C79.7395 21.9994 79.548 22.2274 79.3007 22.3796C79.0534 22.5319 78.7635 22.6003 78.4742 22.5747C78.2541 22.5839 78.0346 22.5462 77.8302 22.4641C77.6258 22.382 77.4412 22.2574 77.2887 22.0986C77.1362 21.9398 77.0193 21.7503 76.9457 21.5429C76.8721 21.3354 76.8435 21.1146 76.8618 20.8953L76.8614 20.8214L81.0723 20.7999L81.0702 20.3809C81.061 18.5745 80.0179 17.4474 78.3685 17.4558C76.6913 17.4644 75.6152 18.6819 75.6247 20.5507C75.6341 22.4137 76.7165 23.5694 78.4509 23.5606ZM79.8435 19.9514L76.8629 19.9666C76.8613 19.7675 76.8993 19.57 76.9745 19.3856C77.0498 19.2012 77.1608 19.0335 77.3013 18.8922C77.4417 18.7509 77.6088 18.6388 77.7928 18.5623C77.9768 18.4859 78.1742 18.4466 78.3735 18.4468C78.571 18.4415 78.7675 18.4771 78.9506 18.5514C79.1337 18.6256 79.2995 18.7368 79.4375 18.8781C79.5755 19.0194 79.6828 19.1877 79.7527 19.3724C79.8226 19.5571 79.8535 19.7542 79.8435 19.9514ZM36.9173 11.5789C36.2127 11.6262 35.8162 11.9357 35.8189 12.4691C35.82 12.5942 35.8474 12.7176 35.8991 12.8315C35.9509 12.9453 36.026 13.0471 36.1196 13.1302C36.2131 13.2133 36.3231 13.2758 36.4423 13.3138C36.5615 13.3519 36.6874 13.3645 36.8118 13.3509C36.9882 13.3582 37.1634 13.3185 37.3195 13.236C37.4755 13.1534 37.6069 13.031 37.7001 12.8811L37.7464 12.8809L37.7485 13.2973L38.3125 13.2945L38.3022 11.2698C38.299 10.6439 37.8779 10.2762 37.1345 10.28C36.4618 10.2834 35.9837 10.6123 35.9265 11.1216L36.4931 11.1187C36.5576 10.9089 36.7827 10.7879 37.1094 10.7862C37.51 10.7842 37.7174 10.9598 37.7189 11.2728L37.7202 11.5286L36.9173 11.5789ZM37.7224 11.9585L37.7237 12.2062C37.7178 12.2997 37.6932 12.3911 37.6513 12.4749C37.6094 12.5587 37.551 12.6332 37.4797 12.694C37.4083 12.7548 37.3255 12.8007 37.2361 12.8288C37.1466 12.857 37.0525 12.8669 36.9591 12.8579C36.6408 12.8595 36.4085 12.7055 36.4071 12.4388C36.4058 12.1776 36.5903 12.0378 36.9985 12.0084L37.7224 11.9585ZM39.8528 10.8158L39.8654 13.2867L39.2802 13.2897L39.2652 10.3265L41.2176 10.3166L41.2201 10.8088L39.8528 10.8158ZM43.5528 13.3164C44.3014 13.3126 44.7749 12.7199 44.7701 11.7785C44.7653 10.8367 44.2858 10.2514 43.5315 10.2553C43.3416 10.2516 43.1544 10.3004 42.9906 10.3963C42.8267 10.4923 42.6926 10.6316 42.603 10.7989L42.5593 10.7991L42.5568 10.3094L41.9935 10.3123L42.0135 14.2606L42.5987 14.2577L42.5915 12.8236L42.6378 12.8234C42.7274 12.9841 42.8612 13.116 43.0233 13.2033C43.1854 13.2907 43.3691 13.3299 43.5528 13.3164ZM43.3708 10.7815C43.8666 10.7789 44.165 11.1556 44.1682 11.7815C44.1714 12.41 43.8768 12.7897 43.3784 12.7923C42.8884 12.7948 42.5784 12.4098 42.5753 11.7922C42.5721 11.1718 42.8782 10.784 43.3708 10.7815ZM45.5634 14.3191L45.5608 13.8156C45.6242 13.8233 45.688 13.8266 45.7518 13.8255C45.8766 13.8341 46.0001 13.7964 46.0987 13.7195C46.1973 13.6427 46.264 13.5322 46.2861 13.4092L46.3291 13.2647L45.2407 10.2961L45.878 10.2928L46.6333 12.6427L46.6796 12.6425L47.4085 10.285L48.0291 10.2819L46.9393 13.3731C46.6896 14.0955 46.4104 14.3282 45.8059 14.3313C45.757 14.3316 45.6181 14.3268 45.5634 14.3191ZM49.0789 12.3988L48.4963 12.4018C48.5534 13.0001 49.0809 13.294 49.7285 13.2907C50.4609 13.287 50.9388 12.9119 50.9359 12.3486C50.9369 12.1857 50.8781 12.0282 50.7705 11.9058C50.663 11.7834 50.5142 11.7048 50.3525 11.6848L50.3522 11.6385C50.4878 11.6056 50.608 11.5271 50.6927 11.4163C50.7773 11.3054 50.8213 11.1689 50.8173 11.0295C50.8148 10.5289 50.4099 10.2125 49.7051 10.2161C49.4352 10.1803 49.1621 10.2518 48.9444 10.4152C48.7267 10.5786 48.5819 10.8209 48.5411 11.0899L49.105 11.087C49.1418 10.8529 49.3803 10.7129 49.7077 10.7112C50.0671 10.7094 50.2423 10.8746 50.2434 11.0922C50.2446 11.3399 50.0652 11.4767 49.7116 11.4785L49.2755 11.4807L49.2779 11.9351L49.7216 11.9328C50.1357 11.9307 50.3512 12.0659 50.3526 12.3515C50.354 12.6182 50.1157 12.791 49.7259 12.793C49.3832 12.7947 49.1375 12.6598 49.0789 12.3988ZM51.7827 13.226L51.7677 10.2628L52.3477 10.2599L52.3581 12.298L52.4044 12.2978L53.7606 10.2527L54.3406 10.2497L54.3557 13.2129L53.7756 13.2159L53.7652 11.1669L53.7215 11.1671L52.3628 13.2231L51.7827 13.226ZM56.6058 10.7304L57.5395 10.7257L57.537 10.2335L55.0837 10.246L55.0862 10.7382L56.0199 10.7334L56.0325 13.2044L56.6183 13.2014L56.6058 10.7304ZM60.6996 12.3804C60.6212 12.6516 60.45 12.8867 60.2158 13.0446C59.9817 13.2025 59.6994 13.2731 59.4184 13.2442C59.2231 13.2504 59.0288 13.214 58.8489 13.1375C58.6691 13.0611 58.5081 12.9465 58.377 12.8016C58.2459 12.6568 58.148 12.4851 58.0899 12.2987C58.0319 12.1122 58.0152 11.9153 58.0409 11.7217C58.0139 11.5278 58.0289 11.3303 58.0849 11.1427C58.1409 10.9551 58.2366 10.7817 58.3655 10.6342C58.4944 10.4868 58.6535 10.3687 58.832 10.288C59.0105 10.2074 59.2043 10.166 59.4002 10.1666C60.2253 10.1624 60.7265 10.7232 60.7313 11.6537L60.7323 11.8578L58.6384 11.8684L58.6386 11.9012C58.6299 12.01 58.6441 12.1194 58.6802 12.2225C58.7163 12.3255 58.7736 12.4198 58.8484 12.4994C58.9231 12.5789 59.0138 12.642 59.1144 12.6845C59.215 12.727 59.3234 12.7479 59.4326 12.7461C59.5726 12.7621 59.7142 12.7361 59.8393 12.6715C59.9645 12.6069 60.0676 12.5066 60.1356 12.3832L60.6996 12.3804ZM58.6362 11.4359L60.1333 11.4283C60.1402 11.3289 60.1262 11.2291 60.0922 11.1354C60.0582 11.0417 60.005 10.9561 59.936 10.8841C59.8669 10.8122 59.7836 10.7555 59.6913 10.7176C59.599 10.6798 59.4999 10.6617 59.4002 10.6644C59.2989 10.6635 59.1985 10.6829 59.1049 10.7215C59.0113 10.7601 58.9264 10.817 58.8552 10.8889C58.784 10.9609 58.7279 11.0463 58.6903 11.1403C58.6527 11.2342 58.6343 11.3348 58.6362 11.4359ZM64.5065 10.198L63.1695 10.2048L63.1846 13.168L64.5351 13.1611C65.1858 13.1578 65.5732 12.8184 65.5706 12.3014C65.5718 12.128 65.5063 11.9608 65.3876 11.8342C65.269 11.7077 65.1062 11.6316 64.933 11.6215L64.9328 11.5752C65.0753 11.5433 65.2024 11.4635 65.293 11.3491C65.3837 11.2347 65.4322 11.0927 65.4306 10.9468C65.4282 10.487 65.0865 10.195 64.5065 10.198ZM63.7558 11.418L63.7519 10.6507L64.3969 10.6474C64.7075 10.6458 64.8555 10.7948 64.8567 11.0258C64.858 11.2765 64.6895 11.4132 64.3358 11.415L63.7558 11.418ZM63.7624 12.7161L63.758 11.8479L64.3785 11.8448C64.7734 11.8428 64.9837 11.9805 64.9853 12.2771C64.9867 12.5573 64.8022 12.7108 64.4563 12.7126L63.7624 12.7161Z" fill="white" data-color-group="2"/></g><path d="M8.63906 41.4585L87.9352 41.6147C89.4448 41.6177 90.5431 41.6204 91.4082 41.7124C92.2639 41.8034 92.8484 41.9783 93.3401 42.2996C94.2595 42.9003 95.024 43.8701 95.5068 45.087C95.7726 45.7568 95.9126 46.5489 95.9821 47.6697C96.0518 48.7932 96.0492 50.2134 96.0454 52.1348L96.0212 64.4486C96.0174 66.37 96.0144 67.7902 95.9403 68.9134C95.8663 70.0339 95.7232 70.8254 95.4548 71.4942C94.9671 72.7091 94.1989 73.676 93.2771 74.2731C92.7841 74.5924 92.1989 74.765 91.3429 74.8526C90.4775 74.9412 89.3791 74.9396 87.8695 74.9366L8.57342 74.7804C7.06381 74.7774 5.96546 74.7747 5.1004 74.6827C4.24471 74.5917 3.66022 74.4168 3.16846 74.0955C2.24911 73.4949 1.48463 72.525 1.00182 71.3081C0.736044 70.6383 0.595979 69.8462 0.52648 68.7254C0.456809 67.6019 0.459396 66.1817 0.463181 64.2603L0.487441 51.9465C0.491226 50.0251 0.494236 48.6049 0.568332 47.4817C0.642247 46.3612 0.785432 45.5697 1.05384 44.9009C1.54145 43.686 2.30974 42.7191 3.23145 42.122C3.72447 41.8027 4.30965 41.6301 5.16569 41.5425C6.0311 41.4539 7.12945 41.4555 8.63906 41.4585Z" fill="black" stroke="white" stroke-width="0.883247" data-color-group="0"/><mask id="mask1_717_19054" style="mask-type:alpha" maskUnits="userSpaceOnUse" x="9" y="45" width="78" height="27"><rect width="77.1532" height="25.7717" transform="matrix(0.999998 0.00197427 -0.00196597 0.999998 9.70142 45.5863)" fill="#C4C4C4" data-color-group="1"/></mask><g mask="url(#mask1_717_19054)"><path d="M12.8738 50.7019C12.6956 50.8935 12.5911 51.1901 12.593 51.5738L12.6627 65.277C12.6646 65.6609 12.7721 65.9562 12.9523 66.146L12.9981 66.1904L20.5935 58.4754L20.593 58.3849L20.5925 58.2943L12.9192 50.6566L12.8738 50.7019Z" fill="url(#paint0_linear_717_19054)"/><path d="M23.1508 61.0209L20.5932 58.4741L20.5928 58.3835L20.5923 58.293L23.1246 55.7208L23.1821 55.7534L26.2059 57.4606C27.0696 57.9481 27.0737 58.7531 26.2149 59.2498L23.2087 60.9877L23.1508 61.0209Z" fill="url(#paint1_linear_717_19054)"/><path d="M23.2089 60.9864L20.593 58.3826L12.9523 66.1438C13.2377 66.4445 13.7065 66.4795 14.233 66.1753L23.2089 60.9864Z" fill="url(#paint2_linear_717_19054)"/><path d="M23.1833 55.7537L14.1552 50.6566C13.6256 50.3577 13.1572 50.3975 12.8748 50.7011L20.594 58.3842L23.1833 55.7537Z" fill="url(#paint3_linear_717_19054)"/><path opacity="0.2" d="M23.1522 60.9314L14.2335 66.0869C13.7346 66.3753 13.2872 66.3585 12.9989 66.0998L12.9532 66.1462L12.999 66.1907L12.9993 66.1904C13.2876 66.4491 13.735 66.4661 14.234 66.1774L23.2099 60.9887L23.1522 60.9314Z" fill="black" data-color-group="0"/><path opacity="0.12" d="M12.9517 66.0549C12.7715 65.8651 12.6641 65.5695 12.6621 65.1859L12.6626 65.2764C12.6645 65.6601 12.772 65.9556 12.9521 66.1455L12.9978 66.0991L12.9517 66.0549Z" fill="black" data-color-group="0"/><path opacity="0.12" d="M26.2144 59.1586L23.1509 60.9297L23.2086 60.9871L26.2149 59.2491C26.6441 59.001 26.858 58.6757 26.8563 58.3515C26.8215 58.6448 26.6039 58.9336 26.2144 59.1586Z" fill="black" data-color-group="0"/><path opacity="0.25" d="M14.1578 50.7466L26.2097 57.5506C26.6014 57.7717 26.822 58.0579 26.8598 58.3514C26.8585 58.0272 26.6413 57.7038 26.2093 57.4601L14.1574 50.656C13.2937 50.1684 12.5912 50.5807 12.5963 51.5725L12.5967 51.6631C12.5917 50.6713 13.2941 50.259 14.1578 50.7466Z" fill="white" data-color-group="2"/><path fill-rule="evenodd" clip-rule="evenodd" d="M39.3717 53.4676C39.0101 53.8452 38.5591 54.0351 38.0188 54.0378C37.4784 54.0406 37.0255 53.8553 36.6607 53.4814C36.2953 53.1078 36.1118 52.6491 36.109 52.1057C36.1063 51.5623 36.2851 51.1019 36.6466 50.7246C37.0076 50.347 37.4586 50.1568 37.999 50.1541C38.5363 50.1513 38.988 50.3378 39.3552 50.7133C39.7218 51.0887 39.9065 51.5464 39.9092 52.0864C39.912 52.6298 39.7326 53.0903 39.3717 53.4676ZM37.01 53.1683C37.2852 53.4455 37.6205 53.583 38.0164 53.581C38.4124 53.579 38.7469 53.4381 39.0186 53.1581C39.291 52.8781 39.4264 52.5215 39.4242 52.0889C39.422 51.6563 39.283 51.3012 39.0077 51.0239C38.7332 50.7467 38.3972 50.6092 38.0013 50.6112C37.6053 50.6132 37.2714 50.7541 36.9991 51.0341C36.7273 51.3141 36.5919 51.6707 36.5941 52.1033C36.5963 52.5359 36.7353 52.891 37.01 53.1683ZM31.962 54.7756L32.4164 54.7733L32.4123 53.9843L35.2166 53.97L35.2206 54.7591L35.6749 54.7567L35.6686 53.5109L35.2557 53.513L35.2391 50.2522L32.7707 50.2647L32.7801 52.103C32.7901 52.7743 32.636 53.2492 32.3173 53.5279L31.9557 53.5298L31.962 54.7756ZM32.9112 53.5249C33.1502 53.1636 33.2651 52.6887 33.2549 52.1006L33.2479 50.7192L34.7661 50.7114L34.7803 53.5154L32.9112 53.5249ZM45.8564 61.9739C45.8486 60.4465 47.0243 59.3325 48.4738 59.3251C49.9232 59.3178 51.1102 60.4198 51.118 61.9471C51.1257 63.4644 49.95 64.5885 48.5006 64.5959C47.0511 64.6033 45.8641 63.4912 45.8564 61.9739ZM47.0079 61.968C47.0127 62.9064 47.7011 63.5617 48.4953 63.5577C49.2895 63.5536 49.9711 62.8913 49.9663 61.9529C49.9615 61.0046 49.2732 60.3593 48.4791 60.3633C47.6849 60.3674 47.0031 61.0197 47.0079 61.968ZM40.1173 62.0031C40.1095 60.4757 41.2853 59.3617 42.7347 59.3543C44.1841 59.347 45.3711 60.449 45.3789 61.9763C45.3866 63.4936 44.2109 64.6177 42.7615 64.6251C41.312 64.6325 40.125 63.5204 40.1173 62.0031ZM41.2689 61.9972C41.2737 62.9356 41.962 63.5909 42.7562 63.5869C43.5504 63.5829 44.232 62.9205 44.2273 61.9822C44.2225 61.0338 43.5342 60.3885 42.74 60.3925C41.9458 60.3966 41.2641 61.0489 41.2689 61.9972ZM35.9176 61.3157L35.9119 60.1977L39.6545 60.1787C39.6954 60.3781 39.7164 60.6175 39.7177 60.8771C39.722 61.7156 39.4989 62.7549 38.768 63.4974C38.0571 64.2497 37.1457 64.6537 35.9346 64.6598C33.6909 64.6712 31.7954 62.8441 31.7839 60.588C31.7724 58.332 33.6493 56.4856 35.893 56.4742C37.134 56.4679 38.02 56.9526 38.6884 57.588L37.9081 58.3806C37.4293 57.9339 36.7822 57.5877 35.8986 57.5922C34.2606 57.6006 32.9868 58.9348 32.9951 60.5818C33.0035 62.2289 34.2909 63.5501 35.9289 63.5418C36.9911 63.5364 37.5946 63.1041 37.9797 62.7128C38.2958 62.3917 38.5019 61.9315 38.5782 61.3022L35.9176 61.3157ZM61.5838 59.2584C62.9439 59.2515 63.6146 60.3362 63.836 60.924L63.9567 61.2229L60.4596 62.6982C60.7304 63.2259 61.1487 63.4933 61.7345 63.4903C62.3202 63.4873 62.7257 63.1958 63.0213 62.7551L63.9178 63.3495C63.6321 63.7801 62.9409 64.5224 61.7397 64.5285C60.2506 64.5361 59.1329 63.3838 59.1253 61.9063C59.1174 60.3391 60.2337 59.2653 61.5838 59.2584ZM61.6287 60.2765C61.043 60.2794 60.2316 60.8026 60.2666 61.8207L62.6045 60.8305C62.4738 60.5017 62.0854 60.2741 61.6287 60.2765ZM58.5819 64.3848L57.4303 64.3907L57.391 56.6444L58.5425 56.6385L58.5819 64.3848ZM55.4814 59.8784L55.5211 59.8782L55.5189 59.449L56.611 59.4434L56.635 64.1751C56.6449 66.1218 55.5073 66.9261 54.1571 66.933C52.8864 66.9395 52.1177 66.0849 51.8262 65.3876L52.8268 64.9632C53.0076 65.3915 53.4471 65.8984 54.1519 65.8948C55.0156 65.8904 55.5489 65.3487 55.5438 64.3404L55.5419 63.9611L55.5022 63.9613C55.2457 64.282 54.7507 64.5641 54.1253 64.5673C52.8149 64.5739 51.6078 63.432 51.6003 61.9546C51.5927 60.4673 52.7881 59.3032 54.0985 59.2965C54.7239 59.2933 55.2217 59.5703 55.4814 59.8784ZM52.7519 61.9487C52.7565 62.8672 53.4251 63.5326 54.2193 63.5286C55.0036 63.5246 55.6157 62.8526 55.611 61.9342C55.6063 61.0059 54.9873 60.3302 54.2031 60.3342C53.4089 60.3382 52.7472 61.0204 52.7519 61.9487ZM66.4531 56.5984L69.2084 56.5843C70.483 56.5778 71.7403 57.4992 71.7478 58.9772C71.7553 60.4551 70.5074 61.3893 69.2328 61.3957L67.6273 61.4039L67.6422 64.3387L66.4925 64.3446L66.4531 56.5984ZM67.6218 60.3259L69.2571 60.3176C70.1167 60.3132 70.6012 59.5834 70.5982 58.983C70.595 58.3711 70.1032 57.6579 69.2436 57.6623L67.6083 57.6706L67.6218 60.3259ZM74.3119 60.3653C74.6645 59.5463 75.5249 59.1732 76.3574 59.169C77.6755 59.1623 78.7002 59.9244 78.7072 61.2997L78.7223 64.2694L77.6123 64.2751L77.6093 63.6772L77.5697 63.6774C77.3041 64.0873 76.8797 64.4383 76.1067 64.4422C75.0958 64.4473 74.1905 63.7842 74.1853 62.7478C74.1795 61.6117 75.2963 60.9981 76.3964 60.9925C76.9415 60.9897 77.3884 61.1669 77.5971 61.2854L77.5967 61.2056C77.5836 60.5679 76.9772 60.2122 76.3825 60.2152C75.9563 60.2174 75.5507 60.359 75.3349 60.7887L74.3119 60.3653ZM75.335 62.7619C75.3374 63.2303 75.8636 63.4169 76.2402 63.415C76.9043 63.4116 77.5161 62.9003 77.6017 62.1823C77.2937 62.0344 77.0553 61.9259 76.5499 61.9285C75.9849 61.9314 75.332 62.164 75.335 62.7619ZM81.4397 62.671L82.7408 59.3059L84.0193 59.2994L80.8948 66.6203L79.6957 66.6264L80.8519 64.0094L78.7765 59.3261L80.0153 59.3198L81.4 62.6712L81.4397 62.671ZM73.5589 64.3086L72.4093 64.3145L72.3699 56.5682L73.5195 56.5624L73.5589 64.3086ZM40.9403 53.468C41.3105 53.8365 41.7676 54.0193 42.3115 54.0166C42.6107 54.015 42.8877 53.954 43.1417 53.8332C43.3962 53.7127 43.6066 53.5498 43.7747 53.3447L43.4426 53.0142C43.1309 53.3758 42.7533 53.5575 42.3092 53.5597C41.906 53.5618 41.5653 53.4268 41.2871 53.1547C41.0083 52.8829 40.8681 52.525 40.8658 52.0821C40.8636 51.6392 41.0001 51.2803 41.2762 51.0054C41.5516 50.7305 41.8909 50.592 42.2941 50.5899C42.7274 50.5877 43.0712 50.7433 43.3237 51.0573L43.653 50.7334C43.3031 50.3301 42.849 50.13 42.2918 50.1328C41.7478 50.1356 41.2926 50.3233 40.9262 50.6955C40.5592 51.0678 40.378 51.5309 40.3808 52.0846C40.3836 52.6383 40.5695 53.0996 40.9403 53.468ZM45.6981 53.9161L45.2228 53.9185L45.2062 50.6577L44.1735 50.6629L44.1712 50.2061L46.7118 50.1932L46.7142 50.65L45.6815 50.6553L45.6981 53.9161ZM48.5914 53.3201L49.9746 50.1768L49.4167 50.1797L48.5346 52.3183L48.5141 52.3184L47.5895 50.1889L47.0316 50.1918L48.29 52.9319L48.1574 53.2288C48.1062 53.3431 48.0507 53.4224 47.9907 53.466C47.9307 53.5095 47.8454 53.5314 47.7353 53.532C47.6492 53.5324 47.5666 53.5105 47.487 53.4658L47.3652 53.9078C47.4967 53.9626 47.619 53.9894 47.7328 53.9889C48.1149 53.9869 48.4005 53.764 48.5914 53.3201ZM50.5317 53.891L50.5127 50.1734L53.1876 50.1598L53.2066 53.8774L52.7312 53.8799L52.7146 50.619L50.9899 50.6278L51.0065 53.8886L50.5317 53.891ZM54.0333 50.1563L54.0523 53.8739L54.5271 53.8715L54.5185 52.1943L56.3672 52.1849L56.3757 53.8621L56.8511 53.8597L56.8322 50.1421L56.3568 50.1445L56.3649 51.7383L54.5163 51.7477L54.5081 50.1539L54.0333 50.1563ZM60.7211 53.3598C60.3595 53.7375 59.9085 53.9273 59.3681 53.9301C58.8278 53.9328 58.3749 53.7476 58.0101 53.3736C57.6447 53 57.4612 52.5414 57.4585 51.998C57.4557 51.4546 57.6345 50.9941 57.996 50.6169C58.357 50.2392 58.808 50.0491 59.3483 50.0463C59.8857 50.0436 60.3374 50.2301 60.7046 50.6055C61.0712 50.9809 61.2559 51.4387 61.2586 51.9787C61.2614 52.5221 61.082 52.9826 60.7211 53.3598ZM58.3593 53.0605C58.6346 53.3378 58.9698 53.4753 59.3658 53.4732C59.7618 53.4712 60.0962 53.3304 60.368 53.0503C60.6404 52.7703 60.7758 52.4138 60.7736 51.9812C60.7714 51.5486 60.6324 51.1934 60.3572 50.9162C60.0825 50.6389 59.7467 50.5015 59.3507 50.5035C58.9547 50.5055 58.6209 50.6463 58.3484 50.9264C58.0767 51.2064 57.9413 51.5629 57.9435 51.9955C57.9457 52.4281 58.0847 52.7833 58.3593 53.0605ZM63.1903 50.11L63.2092 53.8277L64.6186 53.8205C64.9218 53.819 65.1837 53.7172 65.4047 53.5152C65.6257 53.3134 65.7358 53.0603 65.7343 52.7556C65.7332 52.555 65.6734 52.3786 65.5558 52.2267C65.4377 52.0751 65.2873 51.9685 65.1047 51.9071L65.1045 51.8866C65.2558 51.8165 65.3769 51.7139 65.4671 51.5782C65.5579 51.4428 65.6028 51.2868 65.6019 51.1101C65.6004 50.8196 65.4932 50.5788 65.2805 50.3874C65.0676 50.1967 64.8169 50.1018 64.5274 50.1032L63.1903 50.11ZM64.5355 51.697L63.6732 51.7014L63.6674 50.5644L64.5508 50.56C64.7229 50.5591 64.8616 50.6174 64.9669 50.7346C65.0728 50.8514 65.1258 50.9812 65.1265 51.1231C65.1273 51.265 65.0738 51.396 64.9661 51.5157C64.8584 51.6361 64.7149 51.6961 64.5355 51.697ZM64.6373 53.3636L63.6817 53.3684L63.6755 52.148L64.61 52.1432C64.7996 52.1423 64.9533 52.205 65.0708 52.3306C65.1887 52.4564 65.2478 52.5953 65.2486 52.7475C65.2493 52.9 65.1935 53.0406 65.0804 53.1689C64.9673 53.2978 64.8196 53.3626 64.6373 53.3636Z" fill="white" data-color-group="2"/></g><defs><linearGradient id="paint0_linear_717_19054" x1="19.8804" y1="51.3922" x2="9.53473" y2="61.7866" gradientUnits="userSpaceOnUse"><stop stop-color="#00A0FF"/><stop offset="0.0065745" stop-color="#00A1FF"/><stop offset="0.2601" stop-color="#00BEFF"/><stop offset="0.5122" stop-color="#00D2FF"/><stop offset="0.7604" stop-color="#00DFFF"/><stop offset="1" stop-color="#00E3FF"/></linearGradient><linearGradient id="paint1_linear_717_19054" x1="27.3317" y1="58.3495" x2="12.4212" y2="58.4251" gradientUnits="userSpaceOnUse"><stop stop-color="#FFE000"/><stop offset="0.4087" stop-color="#FFBD00"/><stop offset="0.7754" stop-color="#FFA500"/><stop offset="1" stop-color="#FF9C00"/></linearGradient><linearGradient id="paint2_linear_717_19054" x1="21.7886" y1="59.7986" x2="7.75893" y2="73.8943" gradientUnits="userSpaceOnUse"><stop stop-color="#FF3A44"/><stop offset="1" stop-color="#C31162"/></linearGradient><linearGradient id="paint3_linear_717_19054" x1="10.9179" y1="46.1496" x2="17.2463" y2="52.3798" gradientUnits="userSpaceOnUse"><stop stop-color="#32A071"/><stop offset="0.0685" stop-color="#2DA771"/><stop offset="0.4762" stop-color="#15CF74"/><stop offset="0.8009" stop-color="#06E775"/><stop offset="1" stop-color="#00F076"/></linearGradient></defs></svg>