<svg width="100%" height="100%" viewBox="0 0 340 95" fill="none" xmlns="http://www.w3.org/2000/svg" preserveAspectRatio="none"><mask id="mask0_1130_20168" style="mask-type:alpha" maskUnits="userSpaceOnUse" x="0" y="0" width="340" height="95"><rect width="340" height="94.0667" fill="#C4C4C4" data-color-group="0"/></mask><g mask="url(#mask0_1130_20168)"><path d="M121.448 43.7391V28.0764H130.666V22.3769H105.518V28.0764H114.736V43.7391H121.448ZM139.841 34.8083V22.3769H133.352V43.7391H139.08L150.267 31.3077V43.7391H156.756V22.3769H151.028L139.841 34.8083ZM178.585 35.7956V43.7391H185.073V22.3769H178.585V30.1856H168.158V22.3769H161.67V43.7391H168.158V35.7956H178.585ZM203.143 43.7391C204.62 43.7391 205.962 43.6046 207.215 43.2454C210.573 42.3032 212.763 39.5653 212.763 35.8404C212.763 32.295 210.886 29.8267 207.887 28.7046C206.453 28.1662 204.754 28.1212 203.143 28.1212H196.476V22.3769H189.987V43.7391H203.143ZM202.024 33.1478C202.92 33.1478 203.77 33.1478 204.53 33.4171C205.604 33.776 206.231 34.6735 206.231 35.7506C206.231 36.8727 205.604 37.8152 204.575 38.2639C203.859 38.578 203.143 38.578 202.024 38.578H196.476V33.1478H202.024ZM224.398 35.6611L232.139 43.7391H240.775L229.992 32.6091L240.373 22.3769H232.229L224.398 30.4101H222.608V22.3769H216.121V43.7391H222.608V35.6611H224.398ZM254.126 21.7934C245.4 21.7934 240.165 26.73 240.165 33.1027C240.165 39.4758 245.4 44.4123 254.126 44.4123C262.809 44.4123 268.044 39.4758 268.044 33.1027C268.044 26.73 262.809 21.7934 254.126 21.7934ZM254.126 39.2064C249.786 39.2064 247.013 36.6033 247.013 33.1027C247.013 29.6024 249.786 27.0441 254.126 27.0441C258.422 27.0441 261.241 29.6024 261.241 33.1027C261.241 36.6033 258.422 39.2064 254.126 39.2064ZM289.654 21.165H283.164V23.3192C275.02 23.4987 270.142 26.9543 270.142 33.058C270.142 39.1614 275.02 42.3479 283.164 42.5275V44.6816H289.654V42.5275C297.841 42.3479 302.72 39.1614 302.72 33.058C302.72 26.9543 297.841 23.4987 289.654 23.3192V21.165ZM283.164 37.9498C278.688 37.7702 276.721 35.9301 276.721 33.058C276.721 30.1856 278.688 28.1212 283.164 27.9419V37.9498ZM289.654 27.9419C294.173 28.1212 296.097 30.1856 296.097 33.058C296.097 35.9301 294.173 37.7702 289.654 37.9498V27.9419ZM324.306 21.165H317.817V23.3192C309.673 23.4987 304.797 26.9543 304.797 33.058C304.797 39.1614 309.673 42.3479 317.817 42.5275V44.6816H324.306V42.5275C332.496 42.3479 337.372 39.1614 337.372 33.058C337.372 26.9543 332.496 23.4987 324.306 23.3192V21.165ZM317.817 37.9498C313.344 37.7702 311.374 35.9301 311.374 33.058C311.374 30.1856 313.344 28.1212 317.817 27.9419V37.9498ZM324.306 27.9419C328.826 28.1212 330.75 30.1856 330.75 33.058C330.75 35.9301 328.826 37.7702 324.306 37.9498V27.9419Z" fill="black" data-color-group="1"/><path d="M118.484 56.8689L110.278 65.9887V56.8689H105.518V72.5404H109.72L117.926 63.4206V72.5404H122.686V56.8689H118.484Z" fill="black" data-color-group="1"/><path d="M131.051 66.713H138.7V72.5404H143.46V56.8689H138.7V62.5975H131.051V56.8689H126.291V72.5404H131.051V66.713Z" fill="black" data-color-group="1"/><path d="M164.398 60.8855C164.398 59.2064 163.479 57.8237 161.673 57.231C160.885 56.9677 159.868 56.8689 158.423 56.8689H147.065V72.5404H158.653C160.032 72.5404 161.05 72.4416 161.903 72.1124C163.643 71.4539 164.726 69.9065 164.726 68.0628C164.726 66.5154 163.84 64.968 161.87 64.4083C163.282 63.7828 164.398 62.5976 164.398 60.8855ZM157.964 68.9188H151.595V66.252H157.964C158.489 66.252 158.85 66.285 159.113 66.3837C159.638 66.5813 159.901 67.0093 159.901 67.536C159.901 68.0957 159.638 68.5567 159.047 68.7871C158.784 68.8859 158.423 68.9188 157.964 68.9188ZM157.8 63.0585H151.595V60.3588H157.8C158.259 60.3588 158.62 60.3917 158.883 60.4905C159.441 60.688 159.704 61.1489 159.704 61.6757C159.704 62.2025 159.441 62.6634 158.85 62.9268C158.62 63.0256 158.259 63.0585 157.8 63.0585Z" fill="black" data-color-group="1"/><path d="M183.503 60.4575V56.8689H167.614V72.5404H183.503V68.9517H172.374V66.1862H182.846V63.0585H172.374V60.4575H183.503Z" fill="black" data-color-group="1"/><path d="M199.862 63.0914H204.95C204.261 59.2064 200.814 56.4409 195.365 56.4409C189.127 56.375 185.287 59.9966 185.287 64.7376C185.287 69.4127 189.127 73.0342 195.365 73.0342C200.88 73.0013 204.195 70.2687 204.917 66.3508H199.895C199.402 68.1287 197.663 69.3468 195.233 69.3468C192.18 69.3468 190.309 67.3056 190.309 64.7376C190.309 62.1695 192.18 60.1612 195.233 60.1612C197.663 60.1612 199.37 61.3465 199.862 63.0914Z" fill="black" data-color-group="1"/><path d="M212.688 72.5404H217.612V61.0502H224.374V56.8689H205.925V61.0502H212.688V72.5404Z" fill="black" data-color-group="1"/><path d="M239.312 56.8689L231.105 65.9887V56.8689H226.345V72.5404H230.547L238.754 63.4206V72.5404H243.514V56.8689H239.312Z" fill="black" data-color-group="1"/><path d="M247.119 72.5404H262.121V75.3389H265.994V68.4579H263.631V56.8689H258.871V68.425H251.879V56.8689H247.119V72.5404Z" fill="black" data-color-group="1"/><path d="M281.597 56.8689L273.39 65.9887V56.8689H268.63V72.5404H272.832L281.038 63.4206V72.5404H285.798V56.8689H281.597Z" fill="black" data-color-group="1"/><path d="M302.37 56.8689L294.163 65.9887V56.8689H289.403V72.5404H293.605L301.812 63.4206V72.5404H306.572V56.8689H302.37Z" fill="black" data-color-group="1"/><mask id="mask1_1130_20168" style="mask-type:alpha" maskUnits="userSpaceOnUse" x="0" y="0" width="94" height="95"><rect width="93.7931" height="94.0667" fill="#C4C4C4" data-color-group="0"/></mask><g mask="url(#mask1_1130_20168)"><path d="M92.5755 43.8158L93.7931 39.925L89.7651 40.051C89.4248 40.051 86.9512 39.981 84.5514 38.2439C84.7302 38.2614 84.9091 38.2858 85.0916 38.2858C87.5618 38.2858 89.951 36.801 90.909 34.6786L92.6423 30.8437C90.4704 30.8718 88.4845 30.5987 88.4845 30.5987C88.4668 30.595 86.9021 30.3955 85.0916 28.5497C83.7933 27.2261 82.1864 26.5255 80.4461 26.5255C79.6848 26.5255 79.004 26.662 78.4182 26.8477C78.5095 26.5361 78.597 26.2208 78.6463 25.8951C79.2005 22.3053 76.8849 19.5666 76.8849 19.5703L73.8571 15.8264L71.9798 20.2251C71.9727 20.2391 71.4992 21.2689 70.6501 21.7731C70.394 20.4807 69.766 19.0274 68.4221 17.637C65.8888 15.0173 62.8048 14.6285 61.1908 14.6285C60.4433 14.6285 59.9102 14.7091 59.7802 14.7301L56.1243 15.4482C56.3348 14.6322 56.784 13.2137 57.6049 11.9354L59.6224 8.79753L54.5454 9.3754L52.9279 5.94664L49.7983 7.55772L46.9037 4.70337L44.0159 7.55772L40.8757 5.94664L39.2617 9.3754L34.1883 8.79753L36.2091 11.9354C37.0302 13.2137 37.4794 14.6285 37.6865 15.4446L34.1987 14.7582L34.0794 14.7372C33.904 14.7091 33.3743 14.6285 32.6234 14.6285C31.0094 14.6285 27.9254 15.0208 25.399 17.637C24.0517 19.024 23.4236 20.4807 23.1641 21.7731C22.3221 21.2758 21.8518 20.2601 21.8518 20.2601L19.9711 15.8368L16.8942 19.6053C16.5186 20.092 14.6627 22.6662 15.1679 25.9022C15.2206 26.2244 15.3047 26.5395 15.396 26.8514C14.8136 26.6657 14.1328 26.5292 13.3716 26.5292C11.6312 26.5292 10.0243 27.2296 8.72261 28.5534C6.91898 30.3921 5.36114 30.5987 5.37536 30.5987C5.37536 30.5987 3.72971 30.8928 1.18247 30.8472L2.90517 34.6822C3.86316 36.8081 6.25585 38.2895 8.72261 38.2895C8.90857 38.2895 9.08742 38.2649 9.26994 38.2474C6.87701 39.9844 4.40338 40.0544 4.10507 40.0579L0 39.925L1.24209 43.8123C1.86669 45.8157 3.95419 49.1357 7.95424 49.4929C7.51904 51.3141 6.55417 53.3524 4.43502 54.2313L1.37898 55.4886L3.0455 58.3849C3.98583 59.9469 6.1928 61.775 9.33643 61.775C10.0172 61.7715 10.6732 61.705 11.3049 61.5721C11.4664 62.2865 11.6697 63.001 11.9084 63.7083C12.8451 66.4889 12.0382 68.4291 12.0277 68.4503L10.5189 71.6057L13.8873 72.4918C13.9294 72.5058 14.9468 72.7824 16.2206 72.7824C16.7995 72.7824 17.3503 72.723 17.8696 72.6005C18.2624 72.5093 18.638 72.3867 18.9994 72.2396C19.4344 73.0206 19.9643 73.7316 20.5817 74.3689C22.7396 76.5788 25.7957 77.6995 29.6692 77.6995H29.6832L32.448 77.6645L26.7358 80.032L31.0727 82.1228C32.6479 82.8898 34.5181 83.7968 36.4198 84.4903L35.8794 85.9682L37.3742 86.6477C37.5074 86.7071 40.3809 87.9925 45.1599 88.2657C45.1599 88.2657 46.3141 88.3182 46.9491 88.3182C47.5842 88.3182 48.7245 88.2622 48.7245 88.2622C53.4718 87.9819 56.3242 86.7108 56.4577 86.6477L57.9557 85.9648L57.4083 84.4833C59.3663 83.7689 61.3029 82.8267 62.8117 82.0912L67.0676 80.0285L61.3731 77.6576L64.1485 77.6926C68.0256 77.6926 71.0851 76.5719 73.2393 74.3585C73.8534 73.7246 74.3833 73.0137 74.8219 72.2326C75.1833 72.3798 75.5621 72.5023 75.9551 72.5933C76.4708 72.7159 77.0218 72.7755 77.6008 72.7755C78.8532 72.7755 79.8813 72.4989 79.9093 72.4918L83.2916 71.5988L81.8179 68.5029C81.7829 68.4222 80.976 66.4855 81.9129 63.7014C82.1513 62.9904 82.3513 62.2759 82.5127 61.5649C83.1479 61.698 83.811 61.7681 84.4952 61.7681C88.4985 61.7681 90.4177 58.9559 90.7896 58.3464L92.4387 55.4817L89.3826 54.2279C87.26 53.3487 86.2986 51.3069 85.8671 49.4895C89.8107 49.1532 91.9299 45.8332 92.5755 43.8158ZM37.9529 16.7859L37.9109 16.7965L37.946 16.7509L37.9529 16.7859Z" fill="white" data-color-group="2"/><path fill-rule="evenodd" clip-rule="evenodd" d="M54.6373 55.2507H32.9925V42.7724C32.9925 41.5642 32.6382 40.3488 32.2207 39.2283H41.9747C42.901 40.1459 43.8097 40.7201 44.6728 41.0354C44.5641 41.4801 44.4167 42.3942 44.8308 43.3082C45.1711 44.0472 45.7851 44.6145 46.6761 44.9927C46.7745 45.9034 47.3535 47.2761 48.9464 47.8786C48.2482 48.5825 47.5674 49.2479 47.2939 49.5141L40.8167 49.4125C40.6695 49.3425 40.4203 49.1744 40.3082 48.9432C40.3005 48.9244 40.291 48.9106 40.2816 48.8971C40.2735 48.8854 40.2655 48.8738 40.2589 48.8593L41.315 49.0309C41.3361 49.0344 41.3606 49.0344 41.3817 49.0344H41.3817C41.5888 49.0344 41.7642 48.8906 41.7993 48.684C41.8344 48.4494 41.6764 48.2358 41.4485 48.2008L40.1502 47.9977L41.5922 43.0246L40.2275 40.1562L38.0379 42.4677L37.9047 47.637L36.4345 47.4058C36.2065 47.3602 35.9889 47.5248 35.9504 47.7561C35.9153 47.9836 36.0697 48.1974 36.3012 48.2393L36.9187 48.334C36.7011 48.4599 36.5539 48.5581 36.5363 48.5721L36.4134 48.6596L36.3783 48.8137C36.0206 50.2636 36.8275 51.64 37.7047 52.2563L37.6731 52.4385C37.6346 52.6626 37.6871 52.8798 37.8205 53.0617C37.9503 53.2474 38.1432 53.3595 38.3642 53.398C38.4098 53.4086 38.4589 53.4121 38.5011 53.4121C38.8801 53.4121 39.2098 53.1495 39.3011 52.7676C39.6274 52.8061 39.9257 52.8132 40.1291 52.8132H40.3011L48.7955 54.3472L48.9393 54.249C49.613 53.7799 52.1953 51.9025 53.0409 51.2793C53.2725 51.4753 53.5321 51.6575 53.8478 51.8081C53.5708 52.7257 53.5566 54.1371 54.6373 55.2507ZM32.9915 56.0901H60.8256L60.8222 66.5443C60.8222 70.0044 58.7835 72.4244 55.5732 73.2123L56.11 70.4176C56.1416 70.2531 56.1732 70.0603 56.1978 69.8994C56.3521 69.9622 56.5101 70.015 56.6855 70.0463C56.8854 70.085 57.0714 70.1025 57.2397 70.1025C58.0608 70.1025 58.538 69.6716 58.8571 69.304L59.2712 68.8242L58.9344 68.2989C58.932 68.2952 58.9257 68.2852 58.9157 68.2695C58.7919 68.0753 58.1127 67.0094 57.5836 66.264C57.4713 66.1065 57.3626 65.9452 57.2539 65.7773L57.2477 65.768C56.5959 64.7958 55.7819 63.5815 54.1486 63.5815L54.0014 63.5849C53.7347 63.6024 53.5031 63.6549 53.3135 63.7249C52.8012 63.4868 52.2681 63.3608 51.7171 63.3608C51.04 63.3608 50.4682 63.5464 50.0891 63.6759C50.0547 63.6859 50.0213 63.6962 49.9893 63.7061C49.9203 63.7275 49.8577 63.7469 49.805 63.7565L46.7453 63.4552C46.7068 63.4483 46.5804 63.3746 46.4296 63.1961V63.1786L47.0927 62.9124C46.9067 60.7096 44.791 59.3542 43.6086 58.8954C43.5561 58.6747 43.4508 58.4541 43.2648 58.2756L42.6086 57.6521L42.0299 58.3421L41.7455 58.6959L37.458 56.9376L40.2473 60.433L39.1456 62.0964C38.7422 62.5236 39.1878 62.9511 39.1878 62.9511L40.3246 63.7355L41.5034 63.2977C41.5266 63.2977 41.5497 63.3015 41.5728 63.3053C41.5882 63.3078 41.6037 63.3104 41.6192 63.3118C41.5858 63.4118 41.548 63.6757 41.5126 63.9229C41.4848 64.1169 41.4585 64.3006 41.4369 64.3869L39.3914 63.9841L37.2406 65.1958C36.1351 66.0049 35.9845 67.3463 36.3949 68.2639L36.6334 68.7855L36.9739 69.5212L37.7283 69.2093C37.7386 69.2093 37.7492 69.2059 37.7563 69.1989C37.4862 70.0603 37.5983 70.8835 38.0791 71.4192L38.5352 71.9902L39.1421 72.7572L39.8089 72.0427C40.0017 71.8465 40.6403 71.1355 40.8368 70.5263L40.9806 70.0604L40.6543 69.7031L40.5981 69.6402L40.9632 69.0377L43.6333 69.6647L44.2332 69.8012L44.5526 69.2759L44.728 68.9887C44.7596 68.9292 44.7699 68.9187 44.8928 68.9187C44.9875 68.9187 45.0822 68.9258 45.184 68.9502C46.1911 69.1393 47.1209 69.234 47.9454 69.234C48.7489 69.234 49.2261 69.2024 49.7945 69.0133C49.7945 69.0133 51.2294 70.6417 51.2785 70.7013L50.4014 73.4085L50.3629 73.5695C48.6998 73.7061 47.8893 74.0704 46.9104 75.044C45.4892 73.6361 44.4824 73.4891 40.6614 73.4891C36.0898 73.4891 32.9915 70.8133 32.9915 66.5406V56.0901Z" fill="#FFDD2D" data-color-group="3"/><path fill-rule="evenodd" clip-rule="evenodd" d="M54.2226 15.8263C52.7806 14.674 50.1703 13.5952 46.9072 13.5952C43.6475 13.5952 41.0441 14.674 39.5986 15.8263C39.5986 15.8263 39.1705 13.252 37.7074 10.9792L40.3356 11.2768L41.7074 8.35955L44.3528 9.71844L46.9072 7.18976L49.4684 9.71844L52.1106 8.35955L53.4859 11.2768L56.1138 10.9792C54.6507 13.252 54.2226 15.8263 54.2226 15.8263ZM40.946 12.3766L40.2161 12.2994L39.5179 12.2153C39.8373 12.9298 40.0689 13.6127 40.2407 14.1767C42.0863 13.1541 44.4757 12.5726 46.9037 12.5726C49.3421 12.5726 51.735 13.1541 53.5735 14.1767C53.742 13.6127 53.977 12.9335 54.2964 12.2153L53.6017 12.2994L52.8718 12.3766L52.5632 11.7146L51.6334 9.75345L49.9387 10.6323L49.279 10.9686L48.7528 10.4504L46.9106 8.62926L45.0721 10.4504L44.5459 10.9686L43.8862 10.6323L42.1809 9.75345L41.2617 11.7146L40.946 12.3766ZM41.9088 60.6282C41.7506 60.6142 41.6171 60.7367 41.6066 60.8908C41.596 61.0519 41.7154 61.1885 41.8771 61.1919C42.0317 61.206 42.1688 61.0869 42.1828 60.9293C42.1828 60.7752 42.0705 60.6317 41.9088 60.6282ZM60.7877 79.5757L59.1843 78.9628L59.6264 77.3098L60.1141 75.5061C60.1141 75.5061 57.272 77.0438 53.2687 78.1995C52.1319 78.5252 51.2722 78.6721 51.2722 78.6721V79.8979C51.2722 79.8979 49.132 80.2692 46.9672 80.2692H46.9424H46.911H46.8688H46.8443C44.6795 80.2692 42.5393 79.8979 42.5393 79.8979V78.6721C42.5393 78.6721 41.676 78.5252 40.5428 78.1995C36.5393 77.0438 33.7009 75.5061 33.7009 75.5061L34.1815 77.3098L34.6341 78.9628L33.0272 79.5757L31.2449 80.2411C31.4572 80.3432 31.6779 80.4502 31.9059 80.5607C33.8755 81.5154 36.3909 82.7347 38.7149 83.3686L38.1043 85.0356C38.1043 85.0356 41.3919 86.5311 46.8688 86.5451V86.5486H46.8865H46.911H46.9321H46.9461V86.5451C52.4302 86.5311 55.7141 85.0356 55.7141 85.0356L55.1001 83.3686C57.4568 82.7257 60.0167 81.4807 61.9915 80.5203L61.9936 80.5192L62.1907 80.4234L62.3541 80.344L62.5666 80.2411L60.7877 79.5757ZM33.1465 80.3532L35.785 79.4778L35.006 76.9385C36.1674 77.597 38.7745 78.5846 40.283 79.0434L39.0095 82.535C36.6797 81.8943 34.7394 81.1483 33.1465 80.3532ZM46.911 85.6695C43.8479 85.6695 40.3498 84.9656 39.3218 84.6015L40.8865 80.3742C42.1848 80.7526 44.8866 81.1552 46.8477 81.1412H46.8514H46.911H46.9635H46.9707C48.932 81.1552 51.6265 80.7526 52.9319 80.3742L54.4931 84.6015C53.4652 84.9691 49.9705 85.6695 46.911 85.6695ZM54.8054 82.535L53.5354 79.0434C55.0476 78.5846 57.6473 77.597 58.8124 76.9385L58.0369 79.4778L60.6719 80.3532C59.0754 81.1483 57.1456 81.8943 54.8054 82.535ZM85.1897 47.7534C89.4108 47.7534 90.8212 43.4669 90.8808 43.2847L91.3508 41.7752L89.7685 41.8243H89.7616C89.2037 41.8243 84.5477 41.7017 81.246 37.5131L80.9337 37.1244L80.923 37.1107C78.7693 34.377 76.7245 31.7815 73.0744 30.5962C73.1797 30.5017 73.3306 30.3827 73.5376 30.2495C75.4779 28.9747 76.6076 27.4267 76.8917 25.6302C77.3058 22.9265 75.5797 20.7726 75.5024 20.6851L74.3271 19.2352L73.5938 20.9548L73.5932 20.956C73.536 21.0827 72.3003 23.816 69.7132 23.816H69.5201C69.4657 23.8128 69.4123 23.8099 69.3595 23.8071C69.2388 23.8006 69.1216 23.7942 69.0044 23.7845C69.0957 22.5552 68.871 20.6535 67.1449 18.8708C65.0711 16.724 62.5239 16.4018 61.1908 16.4018C60.5361 16.4018 60.0832 16.4757 59.9758 16.4932L59.9555 16.4965L58.1803 16.8465L59.275 18.286C60.1346 19.3962 60.9135 21.4451 59.9906 22.5168C59.7114 22.8388 59.1516 23.1041 58.598 23.3664L58.5066 23.4097C57.3102 23.9595 55.6785 24.723 55.6785 26.6704C55.6785 27.9311 56.6576 29.2479 58.4328 30.3686C63.6889 33.6677 66.9307 37.1103 68.3308 40.9101C70.4955 46.7554 67.6711 50.0895 64.9273 51.8441L63.6958 52.6355L64.773 53.6231L64.7733 53.6233C64.9184 53.7506 66.2373 54.9086 68.1833 55.0766C68.5518 55.101 68.9061 55.122 69.236 55.122C70.485 55.122 71.5482 54.926 72.4113 54.6632C72.1726 55.0801 71.8814 55.5039 71.5132 55.9311C69.9448 57.7451 68.015 58.5717 65.2397 58.6139L64.2081 58.6314L64.1273 59.6644C64.1168 59.871 64.0397 61.7868 65.8571 63.4154C66.1344 63.6673 66.4712 63.8741 66.822 64.0457C65.5905 65.1524 64.3378 67.0786 64.0959 70.3811C63.8923 73.1374 63.2326 74.1565 63.2257 74.1669L62.0855 75.904L64.145 75.9321C67.5484 75.9321 70.1553 74.9935 71.9621 73.1374C73.0288 72.0376 73.6394 70.7978 74.0008 69.6982C74.5937 70.2024 75.3587 70.6437 76.3549 70.8784C76.734 70.9659 77.1481 71.015 77.5936 71.015C78.5049 71.015 79.2743 70.8325 79.4298 70.7956L79.4497 70.7909L80.7654 70.4406L80.183 69.2148L80.1813 69.2107C80.117 69.0629 79.0557 66.6198 80.225 63.1491C80.7338 61.6327 80.9934 60.2738 81.1197 59.2162C81.9477 59.6469 83.0566 60.0041 84.4915 60.0075C87.656 60.0075 89.1005 57.7151 89.2405 57.4931L89.2493 57.4791L89.8914 56.3653L88.702 55.8751C84.8214 54.2675 83.9618 49.9492 83.7898 47.6099C84.1407 47.6764 84.5408 47.7396 84.9932 47.7534H85.1897ZM88.2668 56.9081C88.2668 56.9081 87.13 58.8799 84.5231 58.8799H84.4915C81.3618 58.8624 80.0986 56.9572 80.0986 56.9572C80.0986 56.9572 80.2812 59.4368 79.1514 62.7813C77.7935 66.8123 79.162 69.6948 79.162 69.6948C79.162 69.6948 78.4321 69.8908 77.5902 69.8908C77.2673 69.8908 76.9305 69.8592 76.6147 69.7752C74.0008 69.1554 73.3482 66.7808 73.3482 66.7808C73.3482 66.7808 73.5901 74.8044 64.2186 74.8044H64.145C64.145 74.8044 64.9695 73.6837 65.2151 70.4581C65.6606 64.5045 69.6992 63.6885 69.6992 63.6885C69.6992 63.6885 67.5447 63.4188 66.6115 62.5818C65.1518 61.2614 65.2536 59.7344 65.2536 59.7344C68.5518 59.689 70.7097 58.5683 72.3551 56.6665C74.1377 54.6072 74.4323 52.3904 74.4323 52.3904C74.4323 52.3904 72.6603 53.9944 69.2326 53.9944C68.9308 53.9944 68.608 53.9803 68.278 53.9487C66.6572 53.8193 65.5343 52.7896 65.5343 52.7896C69.1026 50.5062 71.6079 46.5207 69.3869 40.5179C67.608 35.7095 63.3344 32.1163 59.0329 29.4091C57.6014 28.5159 56.8048 27.5249 56.8048 26.6704C56.8048 25.439 57.8792 24.9382 58.9819 24.4243C59.6793 24.0992 60.388 23.7689 60.8434 23.2451C62.1976 21.6761 61.3485 19.1302 60.1731 17.5997C60.1731 17.5997 60.5696 17.5191 61.1942 17.5191C62.4326 17.5191 64.5765 17.8307 66.3377 19.6518C68.6782 22.0684 67.7062 24.6986 67.7062 24.6986L68.3342 24.8211C68.6944 24.8985 69.0513 24.9145 69.4203 24.9312L69.4204 24.9312L69.4676 24.9333C69.5097 24.9333 69.5518 24.9342 69.5938 24.935C69.6359 24.9359 69.678 24.9368 69.7201 24.9368C73.12 24.9368 74.6394 21.3889 74.6394 21.3889C74.6394 21.3889 78.2533 25.8262 72.9341 29.3004C72.0183 29.8958 71.6147 30.4455 71.7202 31.034L71.8044 31.4193L72.1832 31.4859C75.8708 32.4839 77.816 34.9553 80.0625 37.8096L80.0646 37.8122C80.1665 37.9417 80.2691 38.072 80.3724 38.2029C83.9898 42.7944 89.109 42.9415 89.7405 42.9415H89.8072C89.8072 42.9415 88.6387 46.6223 85.1968 46.6223H85.1966C85.1405 46.6223 85.0915 46.6223 85.0319 46.6188C83.4496 46.5626 82.639 45.9569 82.639 45.9569C82.639 45.9569 82.0181 54.3166 88.2668 56.9081ZM81.0706 34.0081C80.2672 33.0136 79.3514 31.8929 77.7761 31.0559L76.155 30.1839L77.6567 29.1297L77.682 29.1139C77.8935 28.9805 78.9904 28.2891 80.446 28.2891C81.6987 28.2891 82.86 28.8041 83.8215 29.7811C86.1582 32.166 88.2563 32.3551 88.3335 32.3586L89.965 32.4567L89.2913 33.9487C88.6213 35.437 86.8528 36.5124 85.0915 36.5124C84.6423 36.5124 84.2003 36.4458 83.7827 36.3021C82.6245 35.9178 81.8774 34.9997 81.0978 34.0416L81.0978 34.0415L81.0706 34.0081ZM83.018 30.5761C82.1513 29.683 81.2355 29.4169 80.4497 29.4169C79.2287 29.4169 78.3092 30.0611 78.3092 30.0611C80.085 31.0032 81.0971 32.2539 81.9472 33.3043C82.6709 34.1986 83.2772 34.9477 84.1372 35.2376C84.4564 35.3461 84.7758 35.3951 85.095 35.3951C86.474 35.3951 87.8073 34.5019 88.2668 33.4865C88.2668 33.4865 85.737 33.3324 83.018 30.5761ZM78.5127 45.9371V45.9933C77.5655 38.3656 72.0147 32.8566 65.8395 29.505C65.2677 29.2003 64.7415 28.9412 64.2292 28.6924C66.1097 28.9831 69.1377 29.0181 71.4745 26.9938C71.4745 26.9938 67.8991 29.6206 60.5731 27.2356C61.161 27.6163 61.9096 28.0424 62.7639 28.5285L62.7639 28.5286C64.8567 29.7196 67.5839 31.2716 70.1377 33.4029C79.1304 41.2898 72.6955 48.984 72.6955 48.984C75.9269 45.6186 76.0601 42.0113 75.1095 39.066C76.8111 41.8923 77.8989 45.3243 77.7303 49.555C77.4813 55.6173 74.1446 60.86 70.6323 65.0732C68.9447 67.1185 68.5659 69.6294 68.5659 69.6294C68.5659 69.6294 69.2464 67.4126 71.2007 65.1327C74.9655 60.734 78.183 56.1636 78.6039 49.5794C78.9935 50.7739 80.597 54.0974 83.1408 55.3475L83.1398 55.3469C83.0766 55.3074 79.9352 53.345 78.5127 45.9371ZM30.584 74.1583L30.5878 74.1651L31.7317 75.8987L29.6685 75.9266C26.2651 75.9266 23.6617 74.988 21.8514 73.1319C20.7882 72.0321 20.1741 70.7923 19.8162 69.6927C19.2303 70.1971 18.4585 70.6382 17.4586 70.8729C17.0867 70.9604 16.6726 71.0095 16.2234 71.0095C15.2943 71.0095 14.5038 70.8183 14.3773 70.7877L14.3675 70.7854L13.0481 70.4353L13.6305 69.2095L13.6326 69.2048C13.6996 69.0505 14.7598 66.6094 13.592 63.1436C13.0832 61.6272 12.8236 60.2683 12.6973 59.2106C11.8656 59.6413 10.757 59.9986 9.33237 60.0023C6.11865 60.0023 4.67466 57.6477 4.57164 57.4797L4.56785 57.4736L3.9256 56.36L5.11151 55.8696C8.99554 54.2585 9.85517 49.9403 10.0308 47.6044C9.67288 47.6744 9.27276 47.734 8.82724 47.7481L8.62362 47.755C4.39932 47.755 2.99237 43.4683 2.93619 43.2861L2.45215 41.7768L4.04139 41.8259C4.59927 41.8259 9.26588 41.7031 12.5638 37.5145L12.8761 37.1257L12.9027 37.092C15.0508 34.3659 17.0911 31.7765 20.7286 30.5943C20.6233 30.4997 20.4759 30.3806 20.2654 30.2475C18.3251 28.9727 17.1954 27.4247 16.9147 25.6282C16.5038 22.9925 18.1453 20.8742 18.2859 20.6928L18.2934 20.683L19.4794 19.2331L20.2129 20.9527L20.2135 20.954C20.2713 21.0823 21.5034 23.814 24.0969 23.814H24.2863C24.3375 23.8109 24.3881 23.8082 24.4382 23.8055C24.56 23.7988 24.6793 23.7924 24.7985 23.7824C24.711 22.5566 24.9389 20.6551 26.6687 18.869C28.7459 16.7222 31.286 16.4 32.6193 16.4C33.2621 16.4 33.704 16.4705 33.8255 16.4899C33.8393 16.4921 33.849 16.4937 33.8543 16.4944L35.6369 16.8447L34.5351 18.284C33.6789 19.3944 32.8966 21.4465 33.8229 22.5147C34.1022 22.8367 34.662 23.102 35.2156 23.3643L35.3069 23.4077C36.5034 23.9542 38.1314 24.7212 38.1314 26.6683C38.1314 27.9291 37.1596 29.2458 35.3842 30.3666C30.1212 33.6656 26.8826 37.1082 25.4828 40.9083C23.3214 46.7499 26.1353 50.084 28.8896 51.842L30.1212 52.6336L29.0439 53.6212C28.8967 53.7507 27.5774 54.9064 25.6302 55.0746C25.2617 55.099 24.9143 55.1202 24.5775 55.1202C23.3249 55.1202 22.2687 54.9239 21.4057 54.6614C21.6444 55.078 21.939 55.5018 22.3038 55.929C23.8722 57.7398 25.8056 58.5662 28.5739 58.6118L29.6124 58.6293L29.6825 59.6625C29.6931 59.8691 29.7704 61.7847 27.9564 63.4133C27.6792 63.6689 27.3495 63.8755 26.9915 64.0437C28.2265 65.1504 29.4757 67.0765 29.7213 70.3791C29.9229 73.0187 30.5299 74.0651 30.584 74.1583ZM20.4585 66.7824C20.4585 66.7824 20.2198 74.8058 29.5913 74.8058H29.658C29.658 74.8058 28.8406 73.6851 28.5984 70.4597C28.1563 64.5059 24.1143 63.6899 24.1143 63.6899C24.1143 63.6899 26.2688 63.4167 27.2055 62.5832C28.6651 61.263 28.5599 59.736 28.5599 59.736C25.2617 59.6904 23.1038 58.5697 21.4479 56.6681C19.6759 54.6089 19.3812 52.3918 19.3812 52.3918C19.3812 52.3918 21.153 53.996 24.5775 53.996C24.8864 53.996 25.2055 53.9819 25.5355 53.9504C27.1598 53.8207 28.2827 52.7912 28.2827 52.7912C24.7073 50.5041 22.2057 46.5223 24.4232 40.5195C26.1986 35.7109 30.472 32.1177 34.7772 29.4105C36.2087 28.5175 37.0051 27.5228 37.0051 26.6718C37.0051 25.4394 35.9304 24.9375 34.8287 24.423C34.1333 24.0982 33.4271 23.7684 32.9736 23.2467C31.6194 21.6777 32.4685 19.135 33.6404 17.6011C33.6404 17.6011 33.2508 17.5207 32.6228 17.5207C31.3878 17.5207 29.2441 17.8289 27.4827 19.6535C25.1388 22.07 26.1108 24.7 26.1108 24.7L25.4828 24.8228C25.1449 24.8958 24.8012 24.9141 24.4544 24.9325L24.3494 24.9381C24.3051 24.9381 24.2635 24.9391 24.2223 24.94C24.182 24.9409 24.142 24.9418 24.1003 24.9418C20.6935 24.9418 19.1813 21.3974 19.1813 21.3974C19.1813 21.3974 15.5674 25.8313 20.8865 29.3089C21.8021 29.9043 22.2022 30.4541 22.097 31.0425L22.0126 31.4279L21.6267 31.4944C17.9397 32.4974 15.9913 34.9724 13.7398 37.8324C13.6409 37.958 13.5414 38.0844 13.4411 38.2115C9.82375 42.8029 4.71162 42.9501 4.07647 42.9501H4.00631C4.00631 42.9501 5.17113 46.6308 8.61674 46.6308H8.61693C8.67304 46.6308 8.72549 46.6308 8.78161 46.6274C10.3676 46.5677 11.178 45.9654 11.178 45.9654C11.178 45.9654 11.792 54.3216 5.54671 56.9097C5.54671 56.9097 6.68356 58.8815 9.29041 58.8815H9.32205C12.4551 58.864 13.7149 56.9588 13.7149 56.9588C13.7149 56.9588 13.5324 59.4382 14.655 62.7829C16.0129 66.814 14.6516 69.6962 14.6516 69.6962C14.6516 69.6962 15.378 69.8924 16.2199 69.8924C16.5462 69.8924 16.8796 69.8609 17.1919 69.7768C19.8059 69.1568 20.4585 66.7824 20.4585 66.7824ZM8.7199 36.5189C9.17253 36.5189 9.61461 36.4523 10.0319 36.3086C11.1928 35.9258 11.9351 35.0134 12.7113 34.0594L12.7477 34.0146L12.75 34.0118C13.5565 33.018 14.465 31.8986 16.0388 31.0624L17.6599 30.1938L16.1546 29.1397L16.1405 29.1306C15.9599 29.0141 14.8526 28.2992 13.3723 28.2992C12.1162 28.2992 10.9514 28.8105 9.99341 29.791C7.65666 32.1725 5.56205 32.3651 5.48478 32.3687L3.85335 32.4632L4.52358 33.9586C5.19702 35.4401 6.9619 36.5189 8.7199 36.5189ZM10.7969 30.5826C11.667 29.6894 12.5828 29.4234 13.3723 29.4234C14.5862 29.4234 15.5054 30.0676 15.5054 30.0676C13.7356 31.0095 12.7239 32.2566 11.8734 33.305C11.1458 34.2019 10.5361 34.9534 9.67056 35.2441C9.36193 35.3525 9.03908 35.4016 8.7199 35.4016C7.34092 35.4016 6.00757 34.5121 5.55151 33.4929L5.55348 33.4926L5.5611 33.4919L5.56118 33.4919C5.73329 33.475 8.17535 33.2363 10.7969 30.5826ZM18.7017 39.0693C16.9967 41.8955 15.9089 45.3277 16.0843 49.5585C16.3299 55.6207 19.6666 60.8669 23.1718 65.073C24.8665 67.1183 25.249 69.6295 25.249 69.6295C25.249 69.6295 24.5611 67.4124 22.6068 65.1327C18.842 60.7338 15.6248 56.1636 15.2002 49.5794C14.8108 50.7771 13.2108 54.0972 10.6704 55.3476C10.6704 55.3476 13.8634 53.4249 15.2983 45.9337V45.9931C16.2492 38.3654 21.7965 32.8564 27.9785 29.5048C28.5185 29.2135 29.0297 28.9639 29.5181 28.7255L29.5183 28.7253L29.5857 28.6924C27.705 28.9866 24.6769 29.0216 22.3402 26.9973C22.3402 26.9973 25.9156 29.6238 33.2381 27.2389C32.6492 27.6209 31.8985 28.0486 31.0413 28.5369C28.9518 29.7273 26.2297 31.278 23.677 33.4064C14.6808 41.2932 21.1157 48.9875 21.1157 48.9875C17.8808 45.6219 17.7508 42.0146 18.7017 39.0693ZM44.7912 34.1262V35.6394C45.314 35.0054 46.3245 35.1351 46.3245 35.1351V37.3173C46.3245 37.3173 46.2894 38.3892 45.9069 38.855H47.0016H48.0928C47.7174 38.3926 47.6787 37.3173 47.6787 37.3173V35.1351C47.6787 35.1351 48.6892 35.0054 49.2085 35.6394V34.1262H47.0016H44.7912ZM44.9447 25.8008C44.8514 25.7697 44.4651 25.6409 43.8505 25.1536C42.6962 24.2568 42.6717 23.4337 42.6717 23.4303L45.24 24.509V25.9347L44.9663 25.8087C44.9646 25.8075 44.9573 25.805 44.9447 25.8008ZM49.9594 25.1536C51.1208 24.2568 51.1418 23.4303 51.1418 23.4303L48.5735 24.509V25.9347L48.8436 25.8087C48.8455 25.8076 48.8519 25.8055 48.8627 25.802L48.8628 25.8019C48.9516 25.7729 49.337 25.647 49.9594 25.1536ZM46.9176 15.2461C50.942 15.2461 54.5875 17.1898 54.5875 19.3507L54.5102 19.8829L52.9033 29.0902L54.5102 30.0253L58.6857 32.4593H58.6715C58.6715 32.4593 59.6118 32.9391 60.0399 33.2369C61.6399 34.3401 61.9733 35.9475 61.0504 36.6129C60.8188 35.2996 59.7838 33.9304 57.8401 33.9304C56.44 33.9304 55.377 34.6483 54.5068 35.734C54.2892 36.0072 54.0824 36.2978 53.8822 36.6129C53.6403 37.0086 53.3982 37.3589 53.1595 37.6917H63.9171C63.1242 39.2782 62.3732 40.9593 62.3732 42.7839V66.5427C62.3732 72.2933 57.9487 75.039 53.1526 75.039C52.8681 75.039 52.6025 75.038 52.3536 75.037C49.3585 75.0256 48.7896 75.0235 46.9107 76.902C45.0195 75.0241 44.4509 75.0261 41.4474 75.0371C41.2024 75.038 40.9412 75.039 40.6617 75.039C35.869 75.039 31.4374 72.2933 31.4374 66.5427V42.7839C31.4374 40.9593 30.6867 39.2782 29.8973 37.6917H40.6512C40.4091 37.3555 40.1669 37.0086 39.925 36.6129C39.7285 36.2978 39.518 36.0072 39.297 35.734C38.4337 34.6517 37.3672 33.9304 35.9672 33.9304C34.0234 33.9304 32.9849 35.3031 32.7568 36.6129C31.8341 35.9475 32.1709 34.3401 33.7602 33.2369C34.1954 32.9391 35.1357 32.4593 35.1357 32.4593H35.1215L39.297 30.0253L40.9108 29.0902L39.3039 19.8829L39.2231 19.3507C39.2231 17.1898 42.8687 15.2461 46.8931 15.2461H46.9036H46.9142H46.9176ZM46.4544 22.3345L40.8055 20.4224L42.2968 29.0027L46.4544 31.1916V22.3345ZM44.6721 41.0431C43.809 40.728 42.9003 40.1571 41.974 39.236V39.2432H32.22C32.6376 40.3639 32.9918 41.5791 32.9918 42.7873V55.2587H54.6402C53.5559 54.1448 53.5736 52.7334 53.8471 51.8158C53.5314 51.6655 53.2718 51.4833 53.0402 51.2836C52.1946 51.9036 49.6157 53.7807 48.9386 54.2536L48.7948 54.348L40.3004 52.8175H40.1284C39.925 52.8175 39.6267 52.8106 39.3004 52.7721C39.2057 53.1538 38.8758 53.4163 38.497 53.4163C38.4548 53.4163 38.4057 53.4129 38.3601 53.406C38.1425 53.3675 37.946 53.2553 37.8199 53.0697C37.6864 52.8875 37.6373 52.6706 37.6724 52.4462L37.7041 52.2643C36.8302 51.6479 36.0199 50.2716 36.3776 48.8217L36.4127 48.6674L36.539 48.5799C36.5567 48.5658 36.7004 48.4679 36.9215 48.3417L36.304 48.2473C36.0724 48.2051 35.9181 47.9916 35.9532 47.7638C35.9917 47.5363 36.2093 47.3681 36.4374 47.4138L37.9074 47.6448L38.0409 42.4757L40.2302 40.1642L41.595 43.0324L40.1529 48.002L41.4512 48.2051C41.6794 48.2401 41.8371 48.4539 41.802 48.6886C41.7669 48.8986 41.5881 49.0387 41.3845 49.0387C41.3634 49.0387 41.3425 49.0387 41.3178 49.0352L40.2618 48.8636C40.268 48.8839 40.2775 48.8983 40.2872 48.9129C40.2943 48.9236 40.3015 48.9344 40.3075 48.9477C40.4196 49.1824 40.6688 49.3468 40.8161 49.4205L47.2895 49.5221L47.3018 49.5101C47.5865 49.2332 48.2576 48.5803 48.9457 47.8866C47.3491 47.2806 46.7738 45.9114 46.6755 45.0007C45.7879 44.6225 45.1704 44.055 44.8301 43.3196C44.4125 42.4057 44.5598 41.4881 44.6721 41.0431ZM48.6018 53.4479C49.4018 52.8875 51.6122 51.2767 52.4718 50.6463C51.8472 49.7356 51.7876 48.657 51.9279 47.9004C51.5209 47.6378 51.2086 47.34 50.9596 47.0284C50.0362 48.0334 48.3324 49.6898 47.8706 50.1388C47.8077 50.1999 47.7679 50.2386 47.7561 50.2504L47.6335 50.3766L41.146 50.2716C41.1389 50.9123 41.0371 51.4586 40.9355 51.858C40.9267 51.893 40.9179 51.9271 40.9092 51.9612C40.9004 51.9954 40.8916 52.0296 40.8828 52.0646L48.6018 53.4479ZM40.2898 50.0928C40.0617 49.9493 39.7319 49.6937 39.5494 49.3118C39.3389 48.8705 39.0409 48.6639 38.6022 48.6674C38.0338 48.6674 37.4268 49.0071 37.1636 49.1683C36.9531 50.3906 37.8584 51.5008 38.4653 51.7249C39.0127 51.9246 39.6829 51.9665 40.0232 51.9665L40.0245 51.9624C40.0383 51.9212 40.0554 51.87 40.0722 51.8089C40.1039 51.7074 40.1318 51.6058 40.1529 51.4973C40.2476 51.007 40.2827 50.4501 40.2898 50.0928ZM38.8758 42.8117L38.746 47.7744L39.311 47.8585L40.6934 43.0955L39.9915 41.6316L38.8758 42.8117ZM51.2403 73.5226C51.5911 73.5085 51.9807 73.5016 52.4016 73.5016C52.4016 73.5016 53.4087 70.5632 53.4683 70.4722C52.9033 70.2235 51.7314 69.6037 51.2788 69.3199C51.3758 69.4646 51.5181 69.6159 51.6611 69.7679C51.9576 70.0832 52.2567 70.4012 52.1595 70.6682L51.2403 73.5226ZM54.6859 73.3825L55.2857 70.2585C55.3524 69.9153 55.4155 69.46 55.4155 69.453C55.3816 69.4187 55.3405 69.3786 55.2943 69.3335C55.0247 69.0704 54.5763 68.6328 54.3069 68.1186C54.0853 67.6911 54.0435 67.3702 53.9963 67.0085C53.9539 66.6828 53.9071 66.3241 53.721 65.8248C53.721 65.8248 53.8437 65.5795 54.1209 65.5795C54.1631 65.5795 54.2122 65.583 54.2578 65.597C54.6228 65.7012 54.872 66.3192 55.1534 67.0171C55.5348 67.963 55.9754 69.0556 56.8435 69.2149C56.991 69.2428 57.1279 69.2534 57.2471 69.2534C57.6821 69.2534 57.9419 69.0712 58.2225 68.7386C58.2225 68.7386 57.4647 67.5478 56.8963 66.7459C56.7767 66.5788 56.6615 66.4064 56.5467 66.2345C55.9366 65.3217 55.3365 64.4238 54.1525 64.4238C54.1175 64.4238 54.0787 64.4238 54.0436 64.4272C53.5804 64.4519 53.2964 64.676 53.2964 64.676C52.7279 64.3188 52.1946 64.1962 51.7174 64.1962C51.1781 64.1962 50.7117 64.3485 50.3525 64.4659C50.1276 64.5393 49.9447 64.5991 49.8122 64.5991H49.7982L46.6615 64.2907C46.1703 64.2453 45.7844 63.7515 45.6441 63.5587C45.609 63.5062 45.5914 63.4746 45.5914 63.4746C45.5914 63.3908 45.5914 63.303 45.5845 63.2261C45.479 60.6696 43.4933 59.5732 42.7846 59.5557C42.7846 59.5557 42.8653 59.0691 42.6756 58.8834L41.9845 59.7204L39.7145 58.5822L41.3354 60.4699L39.9635 62.0038C39.7881 62.1789 39.8127 62.4136 39.8828 62.5151L40.4758 63.037L41.2267 62.5817C41.2652 62.5536 41.3354 62.5467 41.4161 62.5467C41.5118 62.5467 41.6299 62.5579 41.757 62.57C41.905 62.584 42.0652 62.5992 42.2161 62.5992C42.5248 62.5992 42.788 62.5361 42.8196 62.2489C42.7911 62.5349 42.6912 62.8844 42.5814 63.2687C42.3267 64.1599 42.0187 65.238 42.4232 66.1433L42.8547 67.1241L40.0828 66.7247L38.7847 68.9136C38.3812 69.6421 38.3179 70.4266 38.704 70.8573L39.1917 71.4633C39.1917 71.4633 39.8723 70.7454 40.0232 70.2691L39.8021 70.0272C39.6162 69.8243 39.6233 69.6387 39.7391 69.4215L40.5531 68.0767L43.8265 68.8471L44.0019 68.553C44.2229 68.1817 44.5423 68.0732 44.8931 68.0732C45.0369 68.0732 45.1843 68.0907 45.3387 68.1151C45.9458 68.2342 46.9458 68.3954 47.9458 68.3954C49.0404 68.3954 50.1316 68.2026 50.7106 67.5513C51.3182 68.4502 52.2452 68.9612 52.9795 69.3659C53.6785 69.7511 54.2027 70.0401 54.1103 70.4757L53.4789 73.4804C53.8964 73.4629 54.3034 73.435 54.6859 73.3825ZM38.5846 67.6635L38.4408 67.3026C38.3355 67.0681 38.3495 66.8124 38.546 66.6758L39.718 65.8667L41.6757 66.2415C41.6757 66.2415 41.3214 65.8002 41.3565 65.2083L39.4898 64.8126L37.7286 65.8842C36.9705 66.4481 36.918 67.3691 37.1671 67.9154L37.4023 68.4267C37.4023 68.4267 38.4899 67.9785 38.5846 67.6635ZM56.1174 70.416L55.5806 73.2109C58.7909 72.4228 60.8294 70.0063 60.8259 66.5393L60.8188 56.0922H32.9884V66.5393C32.9884 70.8119 36.0864 73.4876 40.6583 73.4876C44.479 73.4876 45.4861 73.6345 46.9071 75.0424C47.8861 74.0654 48.6965 73.7011 50.3595 73.5682L50.3983 73.4035L51.2753 70.6998C51.2263 70.6367 49.7911 69.0118 49.7911 69.0118C49.2193 69.2008 48.7421 69.2324 47.9421 69.2324C47.1175 69.2324 46.1877 69.1377 45.1809 68.9486C45.0791 68.9277 44.9844 68.9171 44.8897 68.9171C44.7668 68.9171 44.7563 68.9277 44.7248 68.9871L44.5492 69.2743L44.23 69.7997L43.63 69.6631L40.9601 69.0362L40.595 69.6387L40.6478 69.7016L40.974 70.0588L40.8303 70.5247C40.6338 71.1341 39.9986 71.8449 39.8021 72.0411L39.1356 72.7556L38.5284 71.9886L38.0723 71.4142C37.5883 70.8748 37.4794 70.0553 37.7495 69.1939C37.7426 69.2008 37.732 69.2043 37.7215 69.2078L36.9705 69.5196L36.6303 68.784L36.3918 68.2623C35.9811 67.3447 36.132 66.0033 37.2372 65.1944L39.388 63.9825L41.4335 64.3853C41.456 64.2961 41.4834 64.1026 41.512 63.9013C41.5462 63.66 41.582 63.4075 41.6126 63.3102C41.5974 63.3088 41.5826 63.3063 41.5677 63.3038C41.5451 63.3 41.5222 63.2961 41.4968 63.2961L40.3178 63.734L39.1812 62.953C39.1812 62.953 38.7354 62.5257 39.139 62.0985L40.2408 60.4349L37.4514 56.9395L41.739 58.6978L42.0231 58.344L42.602 57.6505L43.2617 58.274C43.4477 58.4525 43.5529 58.6732 43.6054 58.8938C44.7879 59.3526 46.907 60.708 47.093 62.9108L46.4299 63.1771V63.1911C46.5808 63.3733 46.7071 63.4468 46.7456 63.4537L49.8088 63.7549C49.8616 63.7453 49.9241 63.726 49.9931 63.7046C50.0251 63.6947 50.0584 63.6843 50.0929 63.6743C50.4719 63.5449 51.0438 63.3592 51.7209 63.3592C52.2719 63.3592 52.8015 63.4818 53.3174 63.7234C53.5034 63.6534 53.735 63.6008 54.0051 63.5833L54.1525 63.5799C55.7896 63.5799 56.607 64.7997 57.2593 65.773L57.2611 65.7758C57.3698 65.9473 57.4787 66.1049 57.591 66.2624C58.1664 67.0681 58.9102 68.2448 58.9418 68.2973L59.2787 68.8227L58.8645 69.3024C58.5454 69.67 58.0682 70.1009 57.2471 70.1009C57.0786 70.1009 56.8926 70.0834 56.6927 70.045C56.5173 70.0134 56.3558 69.9609 56.205 69.8978C56.1878 70.0101 56.1656 70.1378 56.1442 70.2607C56.1349 70.3139 56.1258 70.3663 56.1174 70.416ZM60.8188 42.7804C60.8188 41.5722 61.1733 40.3568 61.5977 39.236V39.2326H51.8543C50.3595 40.7105 48.9246 41.2603 47.644 41.3865C47.4124 41.4109 47.1774 41.425 46.9387 41.425H46.9213H46.9071C46.6686 41.425 46.4299 41.4109 46.1983 41.3865C45.9738 41.369 45.7388 41.3303 45.5038 41.2778C45.4194 41.6106 45.3107 42.3041 45.6159 42.9658C45.886 43.5649 46.437 44.0096 47.2404 44.3072L47.5106 44.4122L47.5142 44.7031C47.5142 44.7906 47.5773 46.6783 49.6334 47.2C49.9668 46.8568 50.2719 46.5418 50.4999 46.2824C50.0789 45.2948 50.2999 44.2862 50.9105 43.7924C50.886 43.894 50.6157 46.3699 52.6016 47.2875L52.9279 47.4416L52.8297 47.7919C52.7947 47.8935 52.135 50.2891 54.5384 51.1786L54.9629 51.3396L54.7735 51.753C54.7278 51.844 53.7875 54.0154 56.0085 55.2481H60.8225V51.4308C59.1101 51.2205 58.3839 49.8478 58.198 48.8742C57.4014 48.7376 56.7874 48.3942 56.3629 47.8339C55.462 46.6504 56.0561 45.5561 56.2029 45.2856C56.2208 45.2527 56.232 45.232 56.2332 45.2248C56.2295 45.2354 56.2332 46.5312 57.0332 47.3297C57.4296 47.7148 57.8997 48.016 58.6084 48.0826L58.9592 48.1142L58.9909 48.4714C58.998 48.5483 59.1908 50.3031 60.8225 50.5763L60.8188 42.7804ZM55.9979 32.4593L54.0964 31.3561L52.1384 30.239L46.9176 33.0757L46.9036 33.0653L46.8931 33.0757L41.6722 30.239L39.718 31.3561L37.8162 32.4593H37.7951L37.3111 32.7359C38.3881 33.0303 39.2057 33.5626 39.8968 34.2664C39.911 34.279 39.9231 34.2923 39.9349 34.3054C39.9495 34.3214 39.9636 34.337 39.981 34.3505C40.1318 34.5152 40.2827 34.6937 40.4302 34.8724C40.4652 34.9143 40.4969 34.953 40.532 35.0021C40.6688 35.1805 40.8021 35.3696 40.9355 35.5622C40.9511 35.5837 40.9666 35.6073 40.9828 35.6318C40.9957 35.6514 41.0091 35.6716 41.0231 35.6919C41.1811 35.93 41.3283 36.1751 41.4757 36.4273C42.8302 38.7563 44.9915 40.1467 46.9107 40.1502C48.8334 40.1467 50.9947 38.7563 52.3491 36.4273C52.5 36.1682 52.6507 35.916 52.8086 35.6813C52.8332 35.6499 52.8577 35.6149 52.8788 35.5797C53.0123 35.3768 53.1489 35.184 53.2964 34.9949C53.3141 34.9734 53.3306 34.9518 53.3467 34.9309C53.3594 34.9145 53.3718 34.8984 53.3842 34.883C53.5314 34.6973 53.6894 34.5152 53.8471 34.347C53.8719 34.3226 53.8964 34.2945 53.921 34.2735C54.6086 33.5695 55.4297 33.0337 56.5033 32.7359L56.0261 32.4593H55.9979ZM47.3597 31.1951L51.5209 29.0061L53.0051 20.4224L47.3597 22.3345V31.1951ZM40.7179 18.92L46.9071 21.3609L53.0964 18.92C52.5736 17.6767 50.1456 16.6188 46.9071 16.6154C43.6722 16.6188 41.2442 17.6767 40.7179 18.92Z" fill="black" data-color-group="1"/></g></g></svg>