<svg width="240.76" height="49" viewBox="0 0 240.76 49" xmlns="http://www.w3.org/2000/svg"><path d="M12.584 4.394H1.54V18.65H4.4V6.836h5.324V18.65h2.86zm8.118 12.694c-1.628 0-2.354-1.122-2.354-3.938 0-2.794.726-3.96 2.354-3.96 1.606 0 2.354 1.166 2.354 3.96 0 2.816-.748 3.938-2.354 3.938zm-2.398-9.592h-2.86v15.07h2.86v-3.454c0-1.012-.176-1.694-.484-2.53l.264-.044c.352 1.034 1.276 2.42 3.388 2.42 2.486 0 4.444-1.826 4.444-5.808 0-3.85-1.672-5.874-4.378-5.874-2.156 0-3.036 1.43-3.388 2.42l-.264-.044c.22-.594.418-1.276.418-2.046zM32.78 18.958c3.322 0 5.214-2.112 5.214-5.852 0-3.762-1.892-5.874-5.214-5.874-3.322 0-5.214 2.112-5.214 5.874 0 3.74 1.892 5.852 5.214 5.852zm0-1.914c-1.628 0-2.354-1.122-2.354-3.938 0-2.794.726-3.96 2.354-3.96 1.606 0 2.354 1.166 2.354 3.96 0 2.816-.748 3.938-2.354 3.938zm16.456-2.728h-2.42c.22 2.2-.858 2.728-1.892 2.728-1.54 0-2.42-1.078-2.42-3.96 0-2.728.814-3.938 2.376-3.938 1.166 0 2.178.726 1.892 2.618h2.442c.308-2.816-1.408-4.554-4.334-4.554-3.454 0-5.236 2.376-5.236 5.874 0 3.74 1.782 5.874 5.236 5.874 3.212 0 4.598-1.958 4.356-4.642zm6.666 4.334V9.586h3.014v-2.09H50.16v2.09h3.014v9.064zm8.998.308c3.322 0 5.214-2.112 5.214-5.852 0-3.762-1.892-5.874-5.214-5.874-3.322 0-5.214 2.112-5.214 5.874 0 3.74 1.892 5.852 5.214 5.852zm0-1.914c-1.628 0-2.354-1.122-2.354-3.938 0-2.794.726-3.96 2.354-3.96 1.606 0 2.354 1.166 2.354 3.96 0 2.816-.748 3.938-2.354 3.938zm8.976-13.002v1.914c1.056.22 2.134.352 3.19.352 1.034 0 2.09-.132 3.168-.352V4.042a15.82 15.82 0 0 1-3.168.33c-1.056 0-2.134-.11-3.19-.33zm1.65 14.608l2.068-4.29c.726-1.496 1.518-3.85 1.76-4.774l.264.066c-.242.968-.44 3.476-.44 5.06v3.938h2.728V7.496h-3.344l-2.068 4.29c-.682 1.43-1.518 3.85-1.76 4.774l-.264-.066c.242-.968.44-3.476.44-5.06V7.496h-2.706V18.65zm22.462-4.334h-2.42c.22 2.2-.858 2.728-1.892 2.728-1.54 0-2.42-1.078-2.42-3.96 0-2.728.814-3.938 2.376-3.938 1.166 0 2.178.726 1.892 2.618h2.442c.308-2.816-1.408-4.554-4.334-4.554-3.454 0-5.236 2.376-5.236 5.874 0 3.74 1.782 5.874 5.236 5.874 3.212 0 4.598-1.958 4.356-4.642zm4.994 4.334V9.586h3.652v9.064h2.75V7.496h-9.152V18.65zm13.706.308c3.322 0 5.214-2.112 5.214-5.852 0-3.762-1.892-5.874-5.214-5.874-3.322 0-5.214 2.112-5.214 5.874 0 3.74 1.892 5.852 5.214 5.852zm0-1.914c-1.628 0-2.354-1.122-2.354-3.938 0-2.794.726-3.96 2.354-3.96 1.606 0 2.354 1.166 2.354 3.96 0 2.816-.748 3.938-2.354 3.938zm16.456-2.728h-2.42c.22 2.2-.858 2.728-1.892 2.728-1.54 0-2.42-1.078-2.42-3.96 0-2.728.814-3.938 2.376-3.938 1.166 0 2.178.726 1.892 2.618h2.442c.308-2.816-1.408-4.554-4.334-4.554-3.454 0-5.236 2.376-5.236 5.874 0 3.74 1.782 5.874 5.236 5.874 3.212 0 4.598-1.958 4.356-4.642zm7.018 4.642c3.322 0 5.214-2.112 5.214-5.852 0-3.762-1.892-5.874-5.214-5.874-3.322 0-5.214 2.112-5.214 5.874 0 3.74 1.892 5.852 5.214 5.852zm0-1.914c-1.628 0-2.354-1.122-2.354-3.938 0-2.794.726-3.96 2.354-3.96 1.606 0 2.354 1.166 2.354 3.96 0 2.816-.748 3.938-2.354 3.938zm12.848-9.108c-2.09 0-3.52 1.144-3.85 3.498h-.264v-.352c0-2.772.902-4.202 3.234-4.796 1.562-.396 2.75-.594 3.828-1.1l-.198-2.618c-1.21.66-2.09.792-4.224 1.364-4.026 1.078-4.62 4.554-4.62 7.854 0 4.092 1.254 7.128 5.192 7.128 3.344 0 5.06-2.75 5.06-5.698 0-2.86-1.32-5.28-4.158-5.28zm-.902 9.108c-1.364 0-2.222-1.1-2.222-3.608 0-2.464.902-3.674 2.2-3.674 1.342 0 2.222 1.166 2.222 3.63 0 2.508-.902 3.652-2.2 3.652zM10.362 38.526h-2.42c.22 2.2-.858 2.728-1.892 2.728-1.54 0-2.42-1.078-2.42-3.96 0-2.728.814-3.938 2.376-3.938 1.166 0 2.178.726 1.892 2.618h2.442c.308-2.816-1.408-4.554-4.334-4.554-3.454 0-5.236 2.376-5.236 5.874 0 3.74 1.782 5.874 5.236 5.874 3.212 0 4.598-1.958 4.356-4.642zm6.666 4.334v-9.064h3.014v-2.09h-8.756v2.09H14.3v9.064zm4.4-7.722h2.42c-.22-1.056.352-1.87 1.738-1.87 1.232 0 1.848.616 1.848 1.936v.616c-2.794.132-6.512.506-6.512 4.114 0 1.54 1.078 3.146 3.278 3.146 1.958 0 2.904-1.078 3.388-2.332l.242.066c-.242.836-.374 1.518-.374 1.848v.198h2.684v-7.48c0-2.42-.924-3.894-4.268-3.894-3.322 0-4.708 1.606-4.444 3.652zm3.806 6.072c-1.1 0-1.76-.704-1.76-1.716 0-1.254.924-2.156 3.96-2.266v.946c0 1.562-.66 3.036-2.2 3.036zm12.078 1.65v-9.064h3.014v-2.09H31.57v2.09h3.014v9.064zm7.26-11.154h-2.706V42.86h3.982c3.542 0 4.884-1.848 4.884-3.762 0-2.244-1.32-3.806-4.884-3.806h-1.276zm0 9.064v-3.388h1.276c1.408 0 2.09.506 2.09 1.694s-.682 1.694-2.09 1.694zm15.752 2.09l2.068-4.29c.726-1.496 1.518-3.85 1.76-4.774l.264.066c-.242.968-.44 3.476-.44 5.06v3.938h2.728V31.706H63.36l-2.068 4.29c-.682 1.43-1.518 3.85-1.76 4.774l-.264-.066c.242-.968.44-3.476.44-5.06v-3.938h-2.706V42.86zm11.77 0v-4.598h3.916v4.598h2.75V31.706h-2.75v4.488h-3.916v-4.488h-2.75V42.86zm9.306 0h4.928c2.288 0 4.422-.616 4.422-3.124 0-1.078-.704-2.398-2.816-2.53v-.22c1.694-.33 2.398-1.518 2.398-2.508 0-2.002-1.562-2.772-3.806-2.772H81.4zm2.75-1.958V38.24h2.244c.836 0 1.606.286 1.606 1.32 0 .968-.638 1.342-1.672 1.342zm0-4.62v-2.618h1.914c.924 0 1.54.308 1.54 1.254 0 .968-.748 1.364-1.518 1.364zm17.688 2.86h-2.42c.11 1.562-.836 2.178-2.002 2.178-1.518 0-2.398-1.32-2.398-3.652h6.798c.066-.44.088-1.078.088-1.474 0-2.596-1.342-4.774-4.554-4.774-3.586 0-5.17 2.64-5.17 5.874 0 3.3 1.54 5.874 5.126 5.874 2.926 0 4.73-1.54 4.532-4.026zm-4.488-5.896c1.364 0 2.068.88 2.068 2.662v.132H95.04c.044-1.76.858-2.794 2.31-2.794zm15.906 5.28h-2.42c.22 2.2-.858 2.728-1.892 2.728-1.54 0-2.42-1.078-2.42-3.96 0-2.728.814-3.938 2.376-3.938 1.166 0 2.178.726 1.892 2.618h2.442c.308-2.816-1.408-4.554-4.334-4.554-3.454 0-5.236 2.376-5.236 5.874 0 3.74 1.782 5.874 5.236 5.874 3.212 0 4.598-1.958 4.356-4.642zm6.666 4.334v-9.064h3.014v-2.09h-8.756v2.09h3.014v9.064zm8.998.308c3.322 0 5.214-2.112 5.214-5.852 0-3.762-1.892-5.874-5.214-5.874-3.322 0-5.214 2.112-5.214 5.874 0 3.74 1.892 5.852 5.214 5.852zm0-1.914c-1.628 0-2.354-1.122-2.354-3.938 0-2.794.726-3.96 2.354-3.96 1.606 0 2.354 1.166 2.354 3.96 0 2.816-.748 3.938-2.354 3.938zm12.562.044c-1.628 0-2.354-1.122-2.354-3.938 0-2.794.726-3.96 2.354-3.96 1.606 0 2.354 1.166 2.354 3.96 0 2.816-.748 3.938-2.354 3.938zm-2.398-9.592h-2.86v15.07h2.86v-3.454c0-1.012-.176-1.694-.484-2.53l.264-.044c.352 1.034 1.276 2.42 3.388 2.42 2.486 0 4.444-1.826 4.444-5.808 0-3.85-1.672-5.874-4.378-5.874-2.156 0-3.036 1.43-3.388 2.42l-.264-.044c.22-.594.418-1.276.418-2.046zm14.476 11.462c3.322 0 5.214-2.112 5.214-5.852 0-3.762-1.892-5.874-5.214-5.874-3.322 0-5.214 2.112-5.214 5.874 0 3.74 1.892 5.852 5.214 5.852zm0-1.914c-1.628 0-2.354-1.122-2.354-3.938 0-2.794.726-3.96 2.354-3.96 1.606 0 2.354 1.166 2.354 3.96 0 2.816-.748 3.938-2.354 3.938zm19.602-9.548h-3.85l-1.32 5.236c-.374 1.496-.616 2.816-.66 3.476h-.264c-.066-.638-.308-2.024-.638-3.476l-1.21-5.236h-3.894l-.902 11.154h2.596c.154-1.958.33-4.048.418-5.896.044-1.056.088-2.398.044-3.19h.264c.088.836.22 1.518.924 4.378.33 1.364.616 2.75.968 4.114h3.036l1.188-4.664c.352-1.386.638-2.794.77-3.828h.264c-.044.814 0 2.068.044 3.168.066 1.848.242 3.938.418 5.918h2.684z"/></svg>