<svg width="239.221" height="22" viewBox="0 0 239.221 22" xmlns="http://www.w3.org/2000/svg"><path d="M1.431 7.414l.072.018q.108-.288.189-.495.081-.207.167-.4.085-.194.193-.419.108-.225.279-.558l1.683-3.312H5.04V8.08h-.783V4.606q0-.288.022-.724.023-.437.149-1.031l-.072-.018q-.126.414-.301.81-.176.396-.446.927L1.818 8.08H.783V2.248h.783v3.357q0 .441-.027.886-.027.446-.108.923zm5.67.666h-.765v-4.5h.765v1.854h1.89V3.58h.765v4.5h-.765V6.127h-1.89V8.08zm3.969 0v-4.5h1.935q.252 0 .49.058.239.059.424.194.184.135.292.346.108.212.108.518 0 .153-.054.31-.054.158-.167.302-.112.144-.288.252-.175.108-.418.162v.063q.306.018.518.122.211.103.337.252.126.148.184.324.059.175.059.337 0 .414-.216.72t-.648.441q-.18.063-.378.081-.198.018-.441.018H11.07zm.738-.594h1.062q.378 0 .621-.167.243-.166.243-.544 0-.189-.072-.32-.072-.13-.189-.211-.117-.081-.27-.122-.153-.04-.306-.04h-1.089v1.404zm0-1.971h.927q.333 0 .585-.18.252-.18.252-.531 0-.342-.22-.495-.221-.153-.509-.153h-1.035v1.359zm6.237 1.062l.747.009q-.018.756-.468 1.17-.45.414-1.242.414-.486 0-.841-.18-.356-.18-.585-.49-.23-.311-.338-.734-.108-.423-.108-.9 0-.504.117-.936.117-.432.351-.752.234-.319.59-.503.355-.185.832-.185.432 0 .747.153t.522.41q.207.256.306.603.099.346.099.733 0 .117-.009.239-.009.121-.027.247h-2.745q.009.891.333 1.282.324.392.801.392.351 0 .635-.216.283-.216.283-.756zm-.981-2.475q-.486 0-.756.355-.27.356-.306.932h2.016v-.081q0-.603-.248-.904-.247-.302-.706-.302zm5.265 2.241l.747.009q.018.81-.405 1.314-.423.504-1.233.504-.504 0-.864-.171t-.59-.477q-.229-.306-.337-.729-.108-.423-.108-.927 0-.477.108-.904.108-.428.338-.756.229-.329.589-.523.36-.193.864-.193.765 0 1.215.463.45.464.414 1.31l-.756-.009q.009-.576-.23-.86-.238-.283-.643-.283-.522 0-.801.45t-.279 1.269q0 .873.293 1.305.292.432.805.432.162 0 .324-.059.162-.058.288-.197.126-.14.202-.374.077-.234.059-.594zM25.65 8.08h-.774V4.264h-1.44V3.58h3.654v.684h-1.44V8.08zm2.142-4.5h.747v1.728q0 .243-.009.513t-.027.531q-.018.261-.045.49-.027.23-.072.383l.081.036q.063-.144.122-.301.058-.158.144-.351.085-.194.206-.446.122-.252.311-.585l1.134-1.998h.747v4.5h-.747l.009-1.872q.009-.486.045-.931.036-.446.108-.788l-.072-.018q-.063.144-.122.292-.058.149-.148.347-.09.198-.22.454-.131.257-.338.617l-1.08 1.899h-.774v-4.5zm4.545 0h.747v3.897h1.863V3.58h.747v3.897h.522v1.899h-.603V8.08h-3.276v-4.5zm4.689 0h.747v1.728q0 .243-.009.513t-.027.531q-.018.261-.045.49-.027.23-.072.383l.081.036q.063-.144.121-.301.059-.158.145-.351.085-.194.206-.446.122-.252.311-.585l1.134-1.998h.747v4.5h-.747l.009-1.872q.009-.486.045-.931.036-.446.108-.788l-.072-.018q-.063.144-.121.292-.059.149-.149.347-.09.198-.22.454-.131.257-.338.617L37.8 8.08h-.774v-4.5zm4.545 0h.747v1.728q0 .243-.009.513t-.027.531q-.018.261-.045.49-.027.23-.072.383l.081.036q.063-.144.121-.301.059-.158.145-.351.085-.194.206-.446.122-.252.311-.585l1.134-1.998h.747v4.5h-.747l.009-1.872q.009-.486.045-.931.036-.446.108-.788l-.072-.018q-.063.144-.121.292-.059.149-.149.347-.09.198-.22.454-.131.257-.338.617l-1.08 1.899h-.774v-4.5zm7.02 4.5h-.765v-4.5h.765v1.854h1.89V3.58h.765v4.5h-.765V6.127h-1.89V8.08zm6.345-1.503l.747.009q-.018.756-.468 1.17-.45.414-1.242.414-.486 0-.841-.18-.356-.18-.585-.49-.23-.311-.338-.734-.108-.423-.108-.9 0-.504.117-.936.117-.432.351-.752.234-.319.59-.503.355-.185.832-.185.432 0 .747.153t.522.41q.207.256.306.603.099.346.099.733 0 .117-.009.239-.009.121-.027.247h-2.745q.009.891.333 1.282.324.392.801.392.351 0 .635-.216.283-.216.283-.756zm-.981-2.475q-.486 0-.756.355-.27.356-.306.932h2.016v-.081q0-.603-.248-.904-.247-.302-.706-.302zm5.265 2.241l.747.009q.018.81-.405 1.314-.423.504-1.233.504-.504 0-.864-.171t-.59-.477q-.229-.306-.337-.729-.108-.423-.108-.927 0-.477.108-.904.108-.428.338-.756.229-.329.589-.523.36-.193.864-.193.765 0 1.215.463.45.464.414 1.31l-.756-.009q.009-.576-.23-.86-.238-.283-.643-.283-.522 0-.801.45t-.279 1.269q0 .873.292 1.305.293.432.806.432.162 0 .324-.059.162-.058.288-.197.126-.14.202-.374.077-.234.059-.594zm2.511 1.656L60.246 3.58h.81l.675 2.169q.117.36.184.603.068.243.108.41.041.166.063.279.023.112.041.229h.063q.018-.117.113-.535.094-.419.283-1.067l.603-2.088h.801l-1.494 4.401-.513 1.674h-.756l.504-1.656zm4.644.081h-.774V4.264h-1.44V3.58h3.654v.684h-1.44V8.08zm3.852-4.5h.774v.072q0 .171-.045.446-.045.274-.09.517l.081.009q.153-.531.454-.81.302-.279.887-.279.477 0 .797.212.319.211.522.54.202.328.287.737.086.41.086.806 0 .387-.095.806-.094.418-.297.755-.202.338-.521.558-.32.221-.779.221-.585 0-.886-.279-.302-.279-.455-.81l-.081.009q.045.243.09.518.045.274.045.445v1.629h-.774V3.58zm1.872 3.951q.486 0 .801-.441.315-.441.315-1.26 0-.792-.32-1.247-.319-.454-.796-.454-.486 0-.774.455-.288.454-.288 1.246 0 .819.288 1.26.288.441.774.441zm2.736-3.951h.747v1.728q0 .243-.009.513t-.027.531q-.018.261-.045.49-.027.23-.072.383l.081.036q.063-.144.121-.301.059-.158.144-.351.086-.194.207-.446.122-.252.311-.585l1.134-1.998h.747v4.5h-.747l.009-1.872q.009-.486.045-.931.036-.446.108-.788l-.072-.018q-.063.144-.121.292-.059.149-.149.347-.09.198-.22.454-.131.257-.338.617l-1.08 1.899h-.774v-4.5zm6.984 2.763l.747.009q.018.81-.405 1.314-.423.504-1.233.504-.504 0-.864-.171t-.59-.477q-.229-.306-.337-.729-.108-.423-.108-.927 0-.477.108-.904.108-.428.338-.756.229-.329.589-.523.36-.193.864-.193.765 0 1.215.463.45.464.414 1.31l-.756-.009q.009-.576-.23-.86-.238-.283-.643-.283-.522 0-.801.45t-.279 1.269q0 .873.293 1.305.292.432.805.432.162 0 .324-.059.162-.058.288-.197.126-.14.202-.374.077-.234.059-.594zm2.376 1.737h-.765v-4.5h.765v1.953h.414q.288 0 .446-.126.157-.126.265-.414.063-.171.126-.378t.126-.4q.063-.194.13-.36.068-.167.149-.275h.864q-.135.135-.23.351-.094.216-.157.396-.099.279-.166.473-.068.193-.149.355-.135.27-.32.4-.184.131-.472.194v.081q.342.063.517.207.176.144.293.45.045.126.121.356.077.229.167.454.099.234.189.423.09.189.243.36h-.9q-.072-.09-.135-.239-.063-.148-.121-.328-.059-.18-.117-.378-.059-.198-.122-.396-.099-.306-.252-.477-.153-.171-.495-.171h-.414V8.08zm3.843.063q-.207 0-.364-.176-.158-.175-.158-.49t.157-.482q.158-.166.365-.166t.36.167q.153.166.153.481 0 .315-.153.49-.153.176-.36.176zm7.668-.765h.675v1.98h-.72V8.08h-3.762v1.278h-.72v-1.98h.045q.315-.018.517-.14.203-.121.325-.342.121-.22.184-.535.063-.315.099-.72.045-.513.081-1.409.036-.895.063-1.984h3.213v5.13zm-3.474.054h2.682V2.995h-1.683q-.027.873-.063 1.503-.036.63-.054.918-.027.324-.072.621t-.14.549q-.094.252-.256.45t-.414.315v.081zm6.624.738q-.9 0-1.404-.603-.504-.603-.504-1.737 0-1.134.504-1.737.504-.603 1.404-.603.9 0 1.404.603.504.603.504 1.737 0 1.134-.504 1.737-.504.603-1.404.603zm0-.621q.459 0 .77-.423.31-.423.31-1.296t-.31-1.3q-.311-.428-.77-.428-.468 0-.774.427-.306.428-.306 1.301t.306 1.296q.306.423.774.423zm2.115-3.969h.873l.315.549.247.446q.104.184.176.324.072.139.122.256.049.117.094.252h.063q.045-.126.09-.234.045-.108.104-.234.058-.126.139-.279.081-.153.207-.369l.405-.711h.828l-1.404 2.205 1.44 2.295h-.864l-.576-.999q-.117-.189-.239-.477-.121-.288-.157-.45h-.063q-.036.189-.14.391-.103.203-.283.545l-.504.99h-.837l1.386-2.295-1.422-2.205zm5.814 4.59q-.9 0-1.404-.603-.504-.603-.504-1.737 0-1.134.504-1.737.504-.603 1.404-.603.9 0 1.404.603.504.603.504 1.737 0 1.134-.504 1.737-.504.603-1.404.603zm0-.621q.459 0 .77-.423.31-.423.31-1.296t-.31-1.3q-.311-.428-.77-.428-.468 0-.774.427-.306.428-.306 1.301t.306 1.296q.306.423.774.423zm5.985-.072h.621v1.809h-.648V8.08h-3.015v1.206h-.648V7.477h.081q.324 0 .49-.279.167-.279.266-.774.027-.135.05-.437.022-.301.035-.688.014-.387.028-.837.013-.45.022-.882h2.718v3.897zm-2.817 0h2.07V4.282h-1.341q-.027.666-.058 1.206-.032.54-.059.765-.108.873-.612 1.161v.063zm6.615.603h-.765v-4.5h.765v1.854h1.89V3.58h.765v4.5h-.765V6.127h-1.89V8.08zm6.345-1.503l.747.009q-.018.756-.468 1.17-.45.414-1.242.414-.486 0-.841-.18-.356-.18-.585-.49-.23-.311-.338-.734-.108-.423-.108-.9 0-.504.117-.936.117-.432.351-.752.234-.319.59-.503.355-.185.832-.185.432 0 .747.153t.522.41q.207.256.306.603.099.346.099.733 0 .117-.009.239-.009.121-.027.247h-2.745q.009.891.333 1.282.324.392.801.392.351 0 .634-.216.284-.216.284-.756zm-.981-2.475q-.486 0-.756.355-.27.356-.306.932h2.016v-.081q0-.603-.248-.904-.247-.302-.706-.302zm5.193 3.978h-.747v-4.5h2.628v.702h-1.881V8.08zm3.231-3.168h-.729q-.045-.63.373-1.026.419-.396 1.229-.396.846 0 1.179.427.333.428.333 1.193v2.97h-.765v-.072q0-.09.05-.337l.094-.482h-.081q-.144.414-.436.697-.293.284-.878.284-.351 0-.599-.108-.247-.108-.409-.288-.162-.18-.239-.41-.076-.229-.076-.472 0-.558.248-.873.247-.315.63-.477.382-.162.837-.22.454-.059.868-.095v-.171q0-.972-.837-.972-.441 0-.653.225-.211.225-.139.603zm.648 2.682q.432 0 .689-.315.256-.315.292-.801.027-.405 0-.819-.567.045-.923.14-.355.094-.562.238-.207.144-.284.329-.076.184-.076.409 0 .378.243.598.243.221.621.221zm2.943-4.014h.774v.072q0 .171-.045.446-.045.274-.09.517l.081.009q.153-.531.454-.81.302-.279.887-.279.477 0 .796.212.32.211.523.54.202.328.287.737.086.41.086.806 0 .387-.094.806-.095.418-.297.755-.203.338-.523.558-.319.221-.778.221-.585 0-.887-.279-.301-.279-.454-.81l-.081.009q.045.243.09.518.045.274.045.445v1.629h-.774V3.58zm1.872 3.951q.486 0 .801-.441.315-.441.315-1.26 0-.792-.32-1.247-.319-.454-.796-.454-.486 0-.774.455-.288.454-.288 1.246 0 .819.288 1.26.288.441.774.441zm3.519-2.619h-.729q-.045-.63.373-1.026.419-.396 1.229-.396.846 0 1.179.427.333.428.333 1.193v2.97h-.765v-.072q0-.09.05-.337l.094-.482h-.081q-.144.414-.436.697-.293.284-.878.284-.351 0-.599-.108-.247-.108-.409-.288-.162-.18-.239-.41-.076-.229-.076-.472 0-.558.248-.873.247-.315.63-.477.382-.162.837-.22.454-.059.868-.095v-.171q0-.972-.837-.972-.441 0-.653.225-.211.225-.139.603zm.648 2.682q.432 0 .689-.315.256-.315.292-.801.027-.405 0-.819-.567.045-.923.14-.355.094-.562.238-.207.144-.284.329-.076.184-.076.409 0 .378.243.598.243.221.621.221zm3.708.486h-.765v-4.5h.765v1.854h1.89V3.58h.765v4.5h-.765V6.127h-1.89V8.08zm5.571 0h-.774V4.264h-1.44V3.58h3.654v.684h-1.44V8.08zm2.142-4.5h.747v1.728q0 .243-.009.513t-.027.531q-.018.261-.045.49-.027.23-.072.383l.081.036q.063-.144.121-.301.059-.158.144-.351.086-.194.207-.446.122-.252.311-.585l1.134-1.998h.747v4.5h-.747l.009-1.872q.009-.486.045-.931.036-.446.108-.788l-.072-.018q-.063.144-.121.292-.059.149-.149.347-.09.198-.22.454-.131.257-.338.617l-1.08 1.899h-.774v-4.5zm4.545 0h.774v.072q0 .171-.045.446-.045.274-.09.517l.081.009q.153-.531.454-.81.302-.279.887-.279.477 0 .797.212.319.211.522.54.202.328.287.737.086.41.086.806 0 .387-.095.806-.094.418-.297.755-.202.338-.521.558-.32.221-.779.221-.585 0-.887-.279-.301-.279-.454-.81l-.081.009q.045.243.09.518.045.274.045.445v1.629h-.774V3.58zm1.872 3.951q.486 0 .801-.441.315-.441.315-1.26 0-.792-.32-1.247-.319-.454-.796-.454-.486 0-.774.455-.288.454-.288 1.246 0 .819.288 1.26.288.441.774.441zm4.473.639q-.9 0-1.404-.603-.504-.603-.504-1.737 0-1.134.504-1.737.504-.603 1.404-.603.9 0 1.404.603.504.603.504 1.737 0 1.134-.504 1.737-.504.603-1.404.603zm0-.621q.459 0 .77-.423.31-.423.31-1.296t-.31-1.3q-.311-.428-.77-.428-.468 0-.774.427-.306.428-.306 1.301t.306 1.296q.306.423.774.423zm2.871.531v-4.5h1.935q.252 0 .49.058.239.059.424.194.184.135.292.346.108.212.108.518 0 .153-.054.31-.054.158-.167.302-.112.144-.287.252-.176.108-.419.162v.063q.306.018.517.122.212.103.338.252.126.148.185.324.058.175.058.337 0 .414-.216.72t-.648.441q-.18.063-.378.081-.198.018-.441.018h-1.737zm.738-.594h1.062q.378 0 .621-.167.243-.166.243-.544 0-.189-.072-.32-.072-.13-.189-.211-.117-.081-.27-.122-.153-.04-.306-.04h-1.089v1.404zm0-1.971h.927q.333 0 .585-.18.252-.18.252-.531 0-.342-.22-.495-.221-.153-.509-.153h-1.035v1.359zm4.356-.603h-.729q-.045-.63.374-1.026.418-.396 1.228-.396.846 0 1.179.427.333.428.333 1.193v2.97h-.765v-.072q0-.09.05-.337l.094-.482h-.081q-.144.414-.436.697-.293.284-.878.284-.351 0-.599-.108-.247-.108-.409-.288-.162-.18-.238-.41-.077-.229-.077-.472 0-.558.248-.873.247-.315.63-.477.382-.162.837-.22.454-.059.868-.095v-.171q0-.972-.837-.972-.441 0-.653.225-.211.225-.139.603zm.648 2.682q.432 0 .689-.315.256-.315.292-.801.027-.405 0-.819-.567.045-.922.14-.356.094-.563.238-.207.144-.284.329-.076.184-.076.409 0 .378.243.598.243.221.621.221zm3.708.486h-.765v-4.5h.765v1.854h1.89V3.58h.765v4.5h-.765V6.127h-1.89V8.08zm4.455.063q-.207 0-.365-.176-.157-.175-.157-.49t.157-.482q.158-.166.365-.166t.36.167q.153.166.153.481 0 .315-.153.49-.153.176-.36.176zM182.133 8.08l1.764-5.832h1.026l1.746 5.832h-.846l-.387-1.341h-2.115l-.387 1.341h-.801zm1.872-3.69l-.477 1.629h1.701l-.504-1.773q-.081-.27-.126-.464-.045-.193-.072-.341-.027-.149-.045-.266-.018-.117-.045-.234h-.09q-.045.261-.13.653-.086.391-.212.796zm5.679 3.789q-.648 0-1.107-.261-.459-.261-.751-.684-.293-.423-.428-.963t-.135-1.098q0-.576.144-1.12.144-.545.445-.963.302-.419.761-.671.459-.252 1.089-.252.234 0 .468.032.234.031.486.157.396.198.67.509.275.31.446.683.171.374.248.792.076.419.076.833 0 .576-.14 1.116-.139.54-.436.958-.297.419-.752.676-.454.256-1.084.256zm-.009-.702q.693 0 1.125-.607.432-.608.432-1.697 0-.54-.117-.963-.117-.423-.324-.72-.207-.297-.49-.455-.284-.157-.626-.157-.702 0-1.13.607-.427.608-.427 1.688 0 1.089.428 1.697.427.607 1.129.607zm6.921.225l-.729-1.935.729-1.971h.585l-.729 1.971.729 1.935h-.585zm-1.989-1.935l.729-1.971h.585l-.729 1.971.729 1.935h-.585l-.729-1.935zm3.114-3.519h4.284v.702h-1.746v5.13h-.792V2.95h-1.746v-.702zm4.455 1.332h.747v1.728q0 .243-.009.513t-.027.531q-.018.261-.045.49-.027.23-.072.383l.081.036q.063-.144.121-.301.059-.158.144-.351.086-.194.207-.446.122-.252.311-.585l1.134-1.998h.747v4.5h-.747l.009-1.872q.009-.486.045-.931.036-.446.108-.788l-.072-.018q-.063.144-.121.292-.059.149-.149.347-.09.198-.22.454-.131.257-.338.617l-1.08 1.899h-.774v-4.5zm5.31 4.5h-.765v-4.5h.765v1.854h1.89V3.58h.765v4.5h-.765V6.127h-1.89V8.08zm4.599-4.5v1.665h.549q.225 0 .392.005.166.004.292.018.126.013.234.035.108.023.234.068.351.126.571.454.221.329.221.815 0 .189-.072.441t-.261.472q-.189.221-.518.374-.328.153-.85.153h-1.53v-4.5h.738zm1.71 3.06q0-.396-.243-.598-.243-.203-.693-.203h-.774v1.602h.729q.414 0 .698-.189.283-.189.283-.612zm2.457 1.44h-.765v-4.5h.765v1.953h.414q.288 0 .446-.126.157-.126.265-.414.063-.171.126-.378t.126-.4q.063-.194.13-.36.068-.167.149-.275h.864q-.135.135-.23.351-.094.216-.157.396-.099.279-.166.473-.068.193-.149.355-.135.27-.32.4-.184.131-.472.194v.081q.342.063.518.207.175.144.292.45.045.126.121.356.077.229.167.454.099.234.189.423.09.189.243.36h-.9q-.072-.09-.135-.239-.063-.148-.121-.328-.059-.18-.117-.378-.059-.198-.122-.396-.099-.306-.252-.477-.153-.171-.495-.171h-.414V8.08zm4.806.09q-.9 0-1.404-.603-.504-.603-.504-1.737 0-1.134.504-1.737.504-.603 1.404-.603.9 0 1.404.603.504.603.504 1.737 0 1.134-.504 1.737-.504.603-1.404.603zm0-.621q.459 0 .77-.423.31-.423.31-1.296t-.31-1.3q-.311-.428-.77-.428-.468 0-.774.427-.306.428-.306 1.301t.306 1.296q.306.423.774.423zm5.112 2.133v-.729q0-.711.045-1.165.045-.455.09-.698l-.081-.009q-.126.522-.396.805-.27.284-.747.284-.36 0-.625-.194-.266-.193-.446-.517t-.27-.747q-.09-.423-.09-.882 0-.468.09-.886.09-.419.27-.734.18-.315.446-.495.265-.18.625-.18.477 0 .747.283.27.284.396.806l.081-.009q-.045-.243-.09-.72t-.045-1.053v-.594h.738v.594q0 .576-.045 1.053t-.09.72l.081.009q.126-.522.396-.805.27-.284.747-.284.351 0 .621.18t.45.495q.18.315.27.734.09.418.09.886 0 .459-.09.882t-.27.747q-.18.324-.45.518-.27.193-.621.193-.477 0-.747-.284-.27-.283-.396-.805l-.081.009q.045.243.09.697.045.455.045 1.166v.729h-.738zm-.873-2.151q.387 0 .617-.446.229-.445.229-1.255 0-.792-.23-1.247-.229-.454-.616-.454-.378 0-.625.455-.248.454-.248 1.246 0 .81.248 1.255.247.446.625.446zm2.475 0q.378 0 .63-.446.252-.445.252-1.255 0-.792-.252-1.247-.252-.454-.63-.454t-.607.455q-.23.454-.23 1.246 0 .81.23 1.255.229.446.607.446zm4.86 2.151v-.729q0-.711.045-1.165.045-.455.09-.698l-.081-.009q-.126.522-.396.805-.27.284-.747.284-.36 0-.626-.194-.265-.193-.445-.517t-.27-.747q-.09-.423-.09-.882 0-.468.09-.886.09-.419.27-.734.18-.315.445-.495.266-.18.626-.18.477 0 .747.283.27.284.396.806l.081-.009q-.045-.243-.09-.72t-.045-1.053v-.594h.738v.594q0 .576-.045 1.053t-.09.72l.081.009q.126-.522.396-.805.27-.284.747-.284.351 0 .621.18t.45.495q.18.315.27.734.09.418.09.886 0 .459-.09.882t-.27.747q-.18.324-.45.518-.27.193-.621.193-.477 0-.747-.284-.27-.283-.396-.805l-.081.009q.045.243.09.697.045.455.045 1.166v.729h-.738zm-.873-2.151q.387 0 .617-.446.229-.445.229-1.255 0-.792-.23-1.247-.229-.454-.616-.454-.378 0-.625.455-.248.454-.248 1.246 0 .81.248 1.255.247.446.625.446zm2.475 0q.378 0 .63-.446.252-.445.252-1.255 0-.792-.252-1.247-.252-.454-.63-.454t-.608.455q-.229.454-.229 1.246 0 .81.23 1.255.229.446.607.446zM4.23 13.804H1.575v1.35h.909q.162 0 .396.009t.522.081q.207.054.432.167.225.112.41.31.184.198.306.504.121.306.121.747 0 .342-.086.603-.085.261-.238.486-.207.306-.495.473-.288.166-.59.242-.301.077-.575.09-.275.014-.446.014H.783v-5.832H4.23v.756zm-1.773 2.034h-.882v2.331h.828q.207 0 .4-.023.194-.022.347-.094.306-.126.482-.396.175-.27.175-.675t-.175-.675q-.176-.27-.491-.378-.171-.063-.32-.077-.148-.013-.364-.013zm3.888-.126h-.729q-.045-.63.373-1.026.419-.396 1.229-.396.846 0 1.179.428.333.427.333 1.192v2.97h-.765v-.072q0-.09.05-.337l.094-.482h-.081q-.144.414-.437.697-.292.284-.877.284-.351 0-.599-.108-.247-.108-.409-.288-.162-.18-.239-.41-.076-.229-.076-.472 0-.558.247-.873.248-.315.63-.477.383-.162.838-.22.454-.059.868-.095v-.171q0-.972-.837-.972-.441 0-.652.225-.212.225-.14.603zm.648 2.682q.432 0 .688-.315.257-.315.293-.801.027-.405 0-.819-.567.045-.923.14-.355.094-.562.238-.207.144-.284.329-.076.184-.076.409 0 .378.243.599.243.22.621.22zm3.708.486h-.765v-4.5h.765v1.854h1.89V14.38h.765v4.5h-.765v-1.953h-1.89v1.953zm4.626 0h-.765v-4.5h.765v1.953h.414q.288 0 .445-.126.158-.126.266-.414.063-.171.126-.378t.126-.4q.063-.194.13-.36.068-.167.149-.275h.864q-.135.135-.23.351-.094.216-.157.396-.099.279-.166.473-.068.193-.149.355-.135.27-.32.4-.184.131-.472.194v.081q.342.063.517.207.176.144.293.45.045.126.122.355.076.23.166.455.099.234.189.423.09.189.243.36h-.9q-.072-.09-.135-.238-.063-.149-.121-.329-.059-.18-.117-.378-.059-.198-.122-.396-.099-.306-.252-.477-.153-.171-.495-.171h-.414v1.989zm3.654-.378l.73-1.935-.73-1.971h-.584l.728 1.971-.728 1.935h.584zm1.99-1.935l-.73-1.971h-.585l.73 1.971-.73 1.935h.585l.73-1.935zm1.574 1.062q.207 0 .36.148.153.149.153.554 0 .243-.063.5-.063.256-.158.481-.094.225-.202.405-.108.18-.207.261l-.297-.081q.063-.09.135-.225.072-.135.13-.27.059-.135.1-.261.04-.126.04-.198-.207 0-.36-.167-.153-.166-.153-.499 0-.315.157-.482.158-.166.365-.166zm3.006.63q.117 0 .243-.005.126-.004.23-.058.103-.054.175-.171.072-.117.099-.351.027-.27.05-.652.022-.383.04-.82.018-.436.04-.904.023-.468.041-.918h2.709v4.5h-.747v-3.834h-1.296q-.027.423-.05.869-.022.445-.044.846-.023.4-.046.715-.022.315-.04.477-.027.234-.099.419-.072.184-.225.31-.153.126-.41.194-.256.067-.661.067l-.009-.684zm4.833-3.879h.747v1.728q0 .243-.009.513t-.027.531q-.018.261-.045.49-.027.23-.072.383l.081.036q.063-.144.121-.302.059-.157.145-.35.085-.194.207-.446.121-.252.31-.585l1.134-1.998h.747v4.5h-.747l.009-1.872q.009-.486.045-.931.036-.446.108-.788l-.072-.018q-.063.144-.122.292-.058.149-.148.347-.09.198-.22.454-.131.257-.338.617l-1.08 1.899h-.774v-4.5zm4.545 0h.747v3.897h1.863V14.38h.747v3.897h.522v1.899h-.603V18.88h-3.276v-4.5zm7.263 2.997l.747.009q-.018.756-.468 1.17-.45.414-1.242.414-.486 0-.841-.18-.356-.18-.585-.49-.23-.311-.338-.734-.108-.423-.108-.9 0-.504.117-.936.117-.432.351-.752.234-.319.59-.503.355-.185.832-.185.432 0 .747.153t.522.41q.207.256.306.603.099.346.099.733 0 .117-.009.238-.009.122-.027.248H40.14q.009.891.333 1.282.324.392.801.392.351 0 .634-.216.284-.216.284-.756zm-.981-2.475q-.486 0-.756.356-.27.355-.306.931h2.016v-.081q0-.603-.248-.905-.247-.301-.706-.301zm3.411 3.978h-.765v-4.5h.765v1.854h1.89V14.38h.765v4.5h-.765v-1.953h-1.89v1.953zm4.293-1.278q-.027.234.05.387.076.153.215.247.14.095.329.131.189.036.396.036.441-.009.684-.194.243-.184.243-.544 0-.387-.216-.572-.216-.184-.612-.184h-.801v-.639h.738q.351 0 .553-.18.203-.18.203-.522 0-.378-.216-.553-.216-.176-.675-.176-.207 0-.378.04-.171.041-.288.14-.117.099-.171.279-.054.18-.027.459h-.702q-.027-.405.085-.684.113-.279.329-.45.216-.171.517-.252.302-.081.644-.081.333 0 .63.068.297.067.513.215.216.149.342.378.126.23.126.554 0 .378-.22.652-.221.275-.617.32v.126q.243 0 .432.095.189.094.32.238.13.144.197.324.068.18.068.36 0 .369-.135.621t-.373.414q-.239.162-.559.234-.319.072-.688.072-.882.009-1.296-.32-.414-.328-.342-1.039h.702zm3.582-3.222h.747v1.728q0 .243-.009.513t-.027.531q-.018.261-.045.49-.027.23-.072.383l.081.036q.063-.144.122-.302.058-.157.144-.35.085-.194.206-.446.122-.252.311-.585l1.134-1.998h.747v4.5h-.747l.009-1.872q.009-.486.045-.931.036-.446.108-.788l-.072-.018q-.063.144-.122.292-.058.149-.148.347-.09.198-.22.454-.131.257-.338.617l-1.08 1.899h-.774v-4.5zm5.04 1.368q0 .405.302.607.301.203.787.203h.675v-1.584h-.774q-.45 0-.72.175-.27.176-.27.599zm-.027 3.132h-.909q.063-.063.121-.207.059-.144.117-.328.059-.185.117-.374.059-.189.113-.342.126-.333.342-.509.216-.175.594-.193v-.126q-.351 0-.585-.095-.234-.094-.378-.247t-.203-.351q-.058-.198-.058-.396 0-.459.216-.76.216-.302.558-.437.117-.045.23-.072.112-.027.243-.04.13-.014.297-.019.166-.004.4-.004h1.314v4.5h-.738v-1.683h-.693q-.171 0-.297.014-.126.013-.216.067-.09.054-.153.158-.063.103-.117.283-.072.243-.144.563-.072.319-.171.598zm11.097-3.591q-.486 0-.756-.27t-.27-.891q0-.621.27-.891t.756-.27q.486 0 .747.27t.261.891q0 .621-.261.891t-.747.27zm0-.414q.261 0 .374-.18.112-.18.112-.567 0-.387-.112-.567-.113-.18-.374-.18-.495 0-.495.747t.495.747zm-.873 1.278v-.495h1.764v.495h-1.764zm-1.224 1.701l.072-.036q-.144-.396-.207-.76-.063-.365-.063-.653v-3.357h.693v5.832h-.621l-2.169-3.618q-.243-.414-.365-.725-.121-.31-.238-.625l-.054.027q.099.432.148.806.05.373.05.661v3.474h-.693v-5.832h.711l2.07 3.501q.234.396.374.693.139.297.292.612zm7.335 1.125q-.432 0-.778-.212-.347-.211-.59-.602-.243-.392-.369-.945-.126-.554-.126-1.247 0-.693.126-1.247.126-.553.369-.945.243-.391.594-.603.351-.211.783-.211.432 0 .774.211.342.212.58.603.239.392.365.945.126.554.126 1.247.009.693-.117 1.246-.126.554-.369.945-.243.392-.59.603-.346.212-.778.212zm-.009-.666q.486 0 .774-.612.288-.612.279-1.728 0-1.098-.283-1.715-.284-.616-.77-.616-.486 0-.77.617-.283.616-.283 1.714 0 1.116.284 1.728.283.612.769.612zm4.167-5.265h.81q-.081.558-.243 1.094-.162.535-.391 1.021-.23.486-.518.904-.288.419-.621.743h2.106v-2.43h.702v2.43h.918v.693h-.918v1.377h-.702v-1.377h-2.61v-.621q.684-.891 1.013-1.827.328-.936.454-2.007zm4.491 2.646q.234-.306.477-.428.243-.121.621-.121.279 0 .549.108t.481.333q.212.225.343.576.13.351.13.837 0 .513-.153.887-.153.373-.41.616-.256.243-.607.364-.351.122-.738.122-.405 0-.738-.117-.333-.117-.549-.346-.216-.23-.302-.558-.085-.329.014-.761h.792q-.108.594.148.873.257.279.698.27.216 0 .41-.081.193-.081.333-.243.139-.162.22-.41.081-.247.081-.589 0-.333-.09-.576-.09-.243-.23-.392-.139-.148-.319-.22-.18-.072-.36-.072-.306 0-.513.162-.207.162-.306.396l-.765-.153.252-3.123h2.781v.684H82.62l-.072.864q-.018.234-.05.482-.031.247-.085.553l.081.063zm3.681.126h2.268v.783h-2.268v-.783zm3.51 2.358h1.377v-4.221l-.036-.009q-.18.396-.522.621-.342.225-.747.225v-.747q.567-.036.94-.32.374-.283.527-.679h.621v5.13h1.359v.702h-3.519v-.702zm5.652-5.13h.81q-.081.558-.243 1.094-.162.535-.391 1.021-.23.486-.518.904-.288.419-.621.743h2.106v-2.43h.702v2.43h.918v.693h-.918v1.377h-.702v-1.377h-2.61v-.621q.684-.891 1.012-1.827.329-.936.455-2.007zm5.202 5.931q-.432 0-.779-.212-.346-.211-.589-.602-.243-.392-.369-.945-.126-.554-.126-1.247 0-.693.126-1.247.126-.553.369-.945.243-.391.594-.603.351-.211.783-.211.432 0 .774.211.342.212.58.603.239.392.365.945.126.554.126 1.247.009.693-.117 1.246-.126.554-.369.945-.243.392-.59.603-.346.212-.778.212zm-.009-.666q.486 0 .774-.612.288-.612.279-1.728 0-1.098-.284-1.715-.283-.616-.769-.616-.486 0-.77.617-.283.616-.283 1.714 0 1.116.283 1.728.284.612.77.612zm3.978-2.619q.234-.306.477-.428.243-.121.621-.121.279 0 .549.108t.481.333q.212.225.343.576.13.351.13.837 0 .513-.153.887-.153.373-.41.616-.256.243-.607.364-.351.122-.738.122-.405 0-.738-.117-.333-.117-.549-.346-.216-.23-.302-.558-.085-.329.014-.761h.792q-.108.594.148.873.257.279.698.27.216 0 .41-.081.193-.081.332-.243.14-.162.221-.41.081-.247.081-.589 0-.333-.09-.576-.09-.243-.23-.392-.139-.148-.319-.22-.18-.072-.36-.072-.306 0-.513.162-.207.162-.306.396l-.765-.153.252-3.123h2.781v.684h-2.124l-.072.864q-.018.234-.05.482-.031.247-.085.553l.081.063zm5.391 3.285q-.432 0-.778-.212-.347-.211-.59-.602-.243-.392-.369-.945-.126-.554-.126-1.247 0-.693.126-1.247.126-.553.369-.945.243-.391.594-.603.351-.211.783-.211.432 0 .774.211.342.212.58.603.239.392.365.945.126.554.126 1.247.009.693-.117 1.246-.126.554-.369.945-.243.392-.59.603-.346.212-.778.212zm-.009-.666q.486 0 .774-.612.288-.612.279-1.728 0-1.098-.284-1.715-.283-.616-.769-.616-.486 0-.77.617-.283.616-.283 1.714 0 1.116.284 1.728.283.612.769.612zm2.979-2.493h2.268v.783h-2.268v-.783zm3.51 2.358h1.377v-4.221l-.036-.009q-.18.396-.522.621-.342.225-.747.225v-.747q.567-.036.94-.32.374-.283.527-.679h.621v5.13h1.359v.702h-3.519v-.702zm6.174.801q-.432 0-.778-.212-.347-.211-.59-.602-.243-.392-.369-.945-.126-.554-.126-1.247 0-.693.126-1.247.126-.553.369-.945.243-.391.594-.603.351-.211.783-.211.432 0 .774.211.342.212.58.603.239.392.365.945.126.554.126 1.247.009.693-.117 1.246-.126.554-.369.945-.243.392-.59.603-.346.212-.778.212zm-.009-.666q.486 0 .774-.612.288-.612.279-1.728 0-1.098-.283-1.715-.284-.616-.77-.616-.486 0-.77.617-.283.616-.283 1.714 0 1.116.284 1.728.283.612.769.612zm4.689.666q-.432 0-.779-.212-.346-.211-.589-.602-.243-.392-.369-.945-.126-.554-.126-1.247 0-.693.126-1.247.126-.553.369-.945.243-.391.594-.603.351-.211.783-.211.432 0 .774.211.342.212.58.603.239.392.365.945.126.554.126 1.247.009.693-.117 1.246-.126.554-.369.945-.243.392-.59.603-.346.212-.778.212zm-.009-.666q.486 0 .774-.612.288-.612.279-1.728 0-1.098-.283-1.715-.284-.616-.77-.616-.486 0-.77.617-.283.616-.283 1.714 0 1.116.283 1.728.284.612.77.612zm4.689.666q-.432 0-.779-.212-.346-.211-.589-.602-.243-.392-.369-.945-.126-.554-.126-1.247 0-.693.126-1.247.126-.553.369-.945.243-.391.594-.603.351-.211.783-.211.432 0 .774.211.342.212.58.603.239.392.365.945.126.554.126 1.247.009.693-.117 1.246-.126.554-.369.945-.243.392-.59.603-.346.212-.778.212zm-.009-.666q.486 0 .774-.612.288-.612.279-1.728 0-1.098-.284-1.715-.283-.616-.769-.616-.486 0-.77.617-.283.616-.283 1.714 0 1.116.284 1.728.283.612.769.612zm4.689.666q-.432 0-.778-.212-.347-.211-.59-.602-.243-.392-.369-.945-.126-.554-.126-1.247 0-.693.126-1.247.126-.553.369-.945.243-.391.594-.603.351-.211.783-.211.432 0 .774.211.342.212.58.603.239.392.365.945.126.554.126 1.247.009.693-.117 1.246-.126.554-.369.945-.243.392-.59.603-.346.212-.778.212zm-.009-.666q.486 0 .774-.612.288-.612.279-1.728 0-1.098-.284-1.715-.283-.616-.769-.616-.486 0-.77.617-.283.616-.283 1.714 0 1.116.284 1.728.283.612.769.612zm4.689.666q-.432 0-.779-.212-.346-.211-.589-.602-.243-.392-.369-.945-.126-.554-.126-1.247 0-.693.126-1.247.126-.553.369-.945.243-.391.594-.603.351-.211.783-.211.432 0 .774.211.342.212.58.603.239.392.365.945.126.554.126 1.247.009.693-.117 1.246-.126.554-.369.945-.243.392-.59.603-.346.212-.778.212zm-.009-.666q.486 0 .774-.612.288-.612.279-1.728 0-1.098-.284-1.715-.283-.616-.769-.616-.486 0-.77.617-.283.616-.283 1.714 0 1.116.283 1.728.284.612.77.612zM147.69 18.97q-.9 0-1.404-.603-.504-.603-.504-1.737 0-1.134.504-1.737.504-.603 1.404-.603.9 0 1.404.603.504.603.504 1.737 0 1.134-.504 1.737-.504.603-1.404.603zm0-.621q.459 0 .77-.423.31-.423.31-1.296t-.31-1.3q-.311-.428-.77-.428-.468 0-.774.428-.306.427-.306 1.3t.306 1.296q.306.423.774.423zm4.473.531h-.774v-3.816h-1.44v-.684h3.654v.684h-1.44v3.816zm5.472.099q-.432 0-.778-.212-.347-.211-.59-.602-.243-.392-.369-.945-.126-.554-.126-1.247 0-.693.126-1.247.126-.553.369-.945.243-.391.594-.603.351-.211.783-.211.432 0 .774.211.342.212.58.603.239.392.365.945.126.554.126 1.247.009.693-.117 1.246-.126.554-.369.945-.243.392-.59.603-.346.212-.778.212zm-.009-.666q.486 0 .774-.612.288-.612.279-1.728 0-1.098-.284-1.715-.283-.616-.769-.616-.486 0-.77.617-.283.616-.283 1.714 0 1.116.284 1.728.283.612.769.612zm5.022-3.222q.279 0 .563.104.283.103.512.328.23.225.378.576.149.351.149.855 0 .495-.149.873-.148.378-.4.625-.252.248-.59.374-.337.126-.706.126-.414 0-.76-.144-.347-.144-.595-.468-.247-.324-.387-.841-.139-.518-.139-1.265 0-.711.117-1.31.117-.598.369-1.034.252-.437.648-.68.396-.243.945-.243.711 0 1.111.396.401.396.347 1.017h-.81q.018-.36-.189-.554-.207-.193-.531-.193-.378 0-.626.225-.247.225-.395.567-.149.342-.212.738-.063.396-.063.738l.072.009q.216-.432.558-.626.342-.193.783-.193zm-.225 3.186q.414 0 .72-.302.306-.301.306-.967 0-.702-.306-1.008-.306-.306-.711-.306-.459 0-.756.329-.297.328-.297.976 0 .576.302.927.301.351.742.351zm3.546.666q-.207 0-.364-.176-.158-.175-.158-.49t.157-.482q.158-.166.365-.166t.36.166q.153.167.153.482 0 .315-.153.49-.153.176-.36.176zm3.411.036q-.432 0-.779-.212-.346-.211-.589-.602-.243-.392-.369-.945-.126-.554-.126-1.247 0-.693.126-1.247.126-.553.369-.945.243-.391.594-.603.351-.211.783-.211.432 0 .774.211.342.212.58.603.239.392.365.945.126.554.126 1.247.009.693-.117 1.246-.126.554-.369.945-.243.392-.59.603-.346.212-.778.212zm-.009-.666q.486 0 .774-.612.288-.612.279-1.728 0-1.098-.284-1.715-.283-.616-.769-.616-.486 0-.77.617-.283.616-.283 1.714 0 1.116.283 1.728.284.612.77.612zm3.177-3.438q-.018-.108-.027-.207-.009-.099-.009-.189 0-.378.13-.666.131-.288.37-.482.238-.193.562-.287.324-.095.702-.095.36 0 .67.09.311.09.54.274.23.185.36.473.131.288.131.684 0 .54-.261.864-.261.324-.72.495v.099q.468.189.724.558.257.369.257.909 0 .423-.144.72t-.396.49q-.252.194-.58.284-.329.09-.707.09-.846 0-1.287-.378-.441-.378-.441-1.143 0-.162.027-.351h.801q-.027.18-.027.333 0 .486.283.688.284.203.698.203.396 0 .68-.243.283-.243.283-.774 0-.27-.081-.463-.081-.194-.194-.32-.112-.126-.243-.184-.13-.059-.22-.059h-.594v-.783h.594q.09 0 .22-.054.131-.054.244-.167.112-.112.193-.296.081-.185.081-.446 0-.27-.077-.45-.076-.18-.202-.288-.126-.108-.302-.158-.175-.049-.373-.049-.387 0-.653.207-.265.207-.265.693 0 .198.036.378h-.783zm5.166 4.068q-.207 0-.364-.176-.158-.175-.158-.49t.157-.482q.158-.166.365-.166t.36.166q.153.167.153.482 0 .315-.153.49-.153.176-.36.176zm2.421-.756h2.844v.693h-3.375v-.855q.603-.306 1.08-.688.477-.383.81-.802.333-.418.504-.85.171-.432.171-.855 0-.324-.077-.549-.076-.225-.211-.36-.135-.135-.315-.198t-.387-.063q-.387 0-.648.189t-.261.675q0 .207.054.459h-.756q-.099-.225-.099-.486 0-.36.14-.652.139-.293.373-.491.234-.198.554-.306.319-.108.688-.108.387 0 .716.113.328.112.562.337.234.225.369.567.135.342.135.801 0 .621-.292 1.166-.293.544-.725.98-.432.437-.936.752t-.918.486v.045zm5.67.792q-.432 0-.779-.212-.346-.211-.589-.602-.243-.392-.369-.945-.126-.554-.126-1.247 0-.693.126-1.247.126-.553.369-.945.243-.391.594-.603.351-.211.783-.211.432 0 .774.211.342.212.58.603.239.392.365.945.126.554.126 1.247.009.693-.117 1.246-.126.554-.369.945-.243.392-.59.603-.346.212-.778.212zm-.009-.666q.486 0 .774-.612.288-.612.279-1.728 0-1.098-.284-1.715-.283-.616-.769-.616-.486 0-.77.617-.283.616-.283 1.714 0 1.116.284 1.728.283.612.769.612zm3.195-.135h1.377v-4.221l-.036-.009q-.18.396-.522.621-.342.225-.747.225v-.747q.567-.036.94-.32.374-.283.527-.679h.621v5.13h1.359v.702h-3.519v-.702zm7.128-2.358v.081q.495.162.801.54.306.378.306.954 0 .396-.171.689-.171.292-.446.49-.274.198-.63.297-.355.099-.724.099-.378 0-.729-.099t-.612-.297q-.261-.198-.418-.49-.158-.293-.158-.689 0-.576.306-.954t.801-.54v-.081q-.441-.18-.715-.482-.275-.301-.275-.859 0-.378.14-.661.139-.284.387-.482.247-.198.58-.297.333-.099.72-.099.387 0 .72.099.333.099.58.297.248.198.388.482.139.283.139.661 0 .558-.275.86-.274.301-.715.481zm-.837-2.232q-.189 0-.378.054t-.333.176q-.144.121-.234.31-.09.189-.09.45t.09.45q.09.189.225.306.135.117.292.171.158.054.302.054h.252q.144 0 .302-.058.157-.059.292-.176.135-.117.225-.301.09-.185.09-.446t-.09-.45q-.09-.189-.234-.31-.144-.122-.333-.176-.189-.054-.378-.054zm.018 4.734q.198 0 .4-.058.203-.059.356-.18.153-.122.252-.316.099-.193.099-.472 0-.279-.099-.482-.099-.202-.248-.328-.148-.126-.31-.189t-.297-.063h-.342q-.135 0-.297.063-.162.063-.31.189-.149.126-.248.328-.099.203-.099.482 0 .279.099.473.099.193.256.315.158.121.365.18.207.058.423.058zm5.382.558h-.747v-4.5h2.628v.702h-1.881v3.798zm2.592.063q-.207 0-.364-.176-.158-.175-.158-.49t.157-.482q.158-.166.365-.166t.36.166q.153.167.153.482 0 .315-.153.49-.153.176-.36.176z"/></svg>